<svg xmlns="http://www.w3.org/2000/svg" version="1.1" viewBox="0 0 976 1600"><metadata/><defs><style>.cls-1{fill:none}.cls-2{fill:#fff}.cls-3{clip-path:url(#clip-path)}.cls-4{fill:#0055e1}.cls-5{fill:#000}.cls-6{fill:#ffb85a}.cls-7{fill:#fc1c25}.cls-8{fill:#000}</style><clipPath id="clip-path"><path d="M960,22V1578a6,6,0,0,1-6,6H22a6,6,0,0,1-6-6V22a6,6,0,0,1,6-6H954A6,6,0,0,1,960,22Z" class="cls-1"/></clipPath></defs><g id="Paper_Backing" data-name="Paper Backing"><path d="M960,22V1578a6,6,0,0,1-6,6H22a6,6,0,0,1-6-6V22a6,6,0,0,1,6-6H954A6,6,0,0,1,960,22Z" class="cls-2"/></g><g id="Wikipedia_Cropped" data-name="Wikipedia Cropped"><g class="cls-3" clip-path="url(#clip-path)"><path d="m431 1283.9c-56.6-7.8-114.11-13.09-170.69-18.73-19.25-5.24-77.44 9.67-47.45-25.65 133.27-197.28 208.38-387.57 242-623.15 13.53-65.92 16.14-141.16 21.34-211.52 7.76-24.6-9.67-87.15 16-84.69 70.92 0.81 145.11-3.16 216.86-6.46 28.93-3.54 26.9 2.18 23.86 28.4-4.7 46.75-9.36 93.9-14 140.74-16.26 199.67-63.43 398.51-143.79 581.7-27.34 58.91-57.2 117.16-96.62 168.82-16.62 15.6-21.82 50.34-47.51 50.54z" class="cls-4"/><path d="M546.36,1581.74c-66.8-1.81-67.74-18.29-89.88-71.12-39.79-.3-84.52-56-50.66-94.46,4.71-14.77-24.22-11.28-30.34-24.72-16.38-17.54-13-40.47,10.54-50.11,7.84-17.47-9.79-34.24,21.73-54.63,11.95-5.82,26.41,7.52,38.08-1,8.94,4.85,15.48,14.92,30.78,13.95,26.13.38,41.16-32.24,63.85-18.43.77,15.65-8.85,35.55,1.27,49.59,12.8,19.28,34.74,16.67,51.36,8.26,15.27.17,18-33.73,26.51-38.41,13.87,10.94,33.45,49.56,51.55,50.25,42.41,1.16,42.29-41,49.15-69.46,12.87,10.12,22.71,26.7,42.51,25,10.44-10.09,26.6-23.14,23.14-42.62-3.69-7.3-8.85-19.29,2.87-19.86,18.72,7.8,44.27,7.82,56.33-10.51-.44-11.35,1.23-21.72,2.17-32.05-.66-4.9-7.91-4.46-9.13-8.77-2.72-13.78-27.78-30-17.2-37.3,39,6.81,61.17-9.23,45.6-49,34.25-13.08,97,6.41,96.49,52.3.38,6.67,5.36,9.22,11.84,11.86,11.88-5.07,2,116.6,5.09,119,.32-.4-.36,83,0,86.72a4,4,0,0,1-4,4c-14.88-.2-29.87,8.25-44.91,6.42-23.43.52-41.2-8.64-56.6-22.72-15.08,0-30.82,13.83-46.4,2.87-14.78-.84-59.2-56.93-59.18-33.51,2.08,17.91-4.19,28-15.88,39.55a6,6,0,0,0-1.37,7.92c17.21,25.14-16.61,60.14-41.4,58.54-4.75-1-10.85,1.29-9.63,7.11,5.48,21.85,4.91,43.25-13.33,62.94-15.58,17.31-37.5,10.39-57.52,9.92a6,6,0,0,0-5.93,5.13c-6.82,34.32-48.14,56.35-77.49,57.43Zm-412-347c-27.69-.23-55.15-16.32-53.15-47.25C34,1185,7.42,1134,29.39,1090.78,38,1076.19,51.68,1072,62.61,1070c13.09-7.55-13.89-29.36,8.09-54.37,28.26-37.77,73.05-18.67,104.52.09a6,6,0,0,0,6-6.29c.94-33.8,39.88-47.69,64-27.07,39.19,28.18,12.29,23.57,49.67,7.76,59.25,14.68,33.45,39.58,12.28,77.32-8.27,7.25-5.17,25.52-19,29.17-10.57,28.11-28.84,57.19-44.48,85.16-7.46,17.25-20.38,28.08-39,30.51-24.48,10.81-46.2,22-70.4,22.37Zm701.14-164.51c-6.68.46-9-6.88-6.31-12.71-2.9-27.78-36-36.07-58.66-26.91-11.5-.5-16.14-17.46-34-17.65l0,0c-9.7-9.58-20,.44-12.72-19.82,4.36-10.52-12.16-14.26-15.56-24.29-14.58-4.85-41.17,9.57-47.87,23.12-5.64,3.41,3,8.45,4.74,11.92-.58,2.27-7.44-9.18-7.9-9a4.06,4.06,0,0,1-6.33-2.22h0c4.58-37.22-37.25-30.58-22.36-52,10.66-32,20.46-64.72,29-97.61,9.36-36.59,19.6-106.48,73.14-84.22C768.89,708,843.12,717,838.79,790.27c10.42,13.88,42.82,5.53,42.33,45.48,4.88,23.2-45.77,59.35-25.7,64.73,18.07.3,31.23,9.95,38.09,27.89,8.68,18.73-8.44,33.42-18.56,47.18C918.89,1013.16,878,1058.25,835.48,1070.18ZM377,909.25c-58.31-44.94-121.56,9.53-182.24-22.7-12.54-6.32-6.21-24.35-18.41-26.89-39.28,7-58-46.2-21.16-62.09,16.19-14.78-34.63-17.05-40.51-27-21.46-15.37-29.46-68.36,2.62-75.69a6.06,6.06,0,0,0,2.54-9.38C94.27,656.47,92,592,130.66,569.18c23.89-14,33.72,19.68,49.81,28.21,37.43-72.78,79.67,27.54,94.26,65.43,12.48,13.12,23.94-33.4,61.75-13.45,20.35,10.5,3.48,33.82,28.92,40.4,41.83,26.89,17.18,96.05,38.06,137.28,3.26,14.11-9.47,28.19-11.54,40.55C394,875.5,383.06,908.51,377,909.25Zm470.4-266.48c-43.56-3.35-93-41.34-134.47-7.51-2.64,2-6.86-.38-6.31-3.74,6.41-44.22,8-84.73,13-129.12,1.95-29.67,31.91-51.11,50.84-68.92,27.73-27.19,62.51-13.91,62.45,25.09,35.79-8.93,101.15-19.7,108.24,33.76C945,502.9,969,490.41,980,510.07c-4,6.91,8.79,79.4-8.44,76.24-16,17.83-48.28,20.44-73.25,18.64a6,6,0,0,0-5.89,4.86c-8.4,25.41-24,31-45.07,33Zm-377-260.87c-76.45-111.3-164.31-75.76-32.88-112.55,14.87,1.26,112-37,104.22-18.15-18.8,19.45-13.68,62.46-34.7,70.79C451.34,308.8,491.16,359.19,470.39,381.9Z" class="cls-5"/><path d="m677.4 1348.3c-18.23 5.74-59.43-46.79-32.82-50.57 26.21-3.94 32.23-35.61 27.32-57.67-11.67-5.88-25.6-10.07-31.77-25.52-12.6-12.18-17.49 21.3-31.82 21.78-5.4 2.73-2.83 9.73-4.81 14.57-4.16 24.11 20.85 39.78 12.7 54.87-5.23 20.26-26.06 39.25-47.85 39.2-20.35 1.52-36.55-27.6-28.72-48 3.55-9.21-3.57-18 11.22-20.94 19.54-4.88 31.77-15.31 36.58-30.81 0.94-12.21-32.35-17.17-23.75-57.12 28.17-53.07-38.09-9.61-19.79-53.84 3.37-12.07 17.89-15.3 23.62-25.13-9-11.52 4.48-20.72 7.3-32.43 3-20.86 26.53-10.32 35.55-0.47 0.88 19.25-22.21 20.84 0 40 5.87 6-10.79 21.6-8.38 33.43-11.21 32 1.47 72.26 34.2 46.76 1.72-18.53 9-36.74 12.1-53.71-9.51-13.39-7.18-32 11.36-32.84 20.07 1.6 71.41 47.6 42.08 69.3-7.3 10.08 13 24.11-5 46.58 17.28 33.37 40.86 113.52-19.32 122.56zm-201.7-50.38c-42.15-1.53-20.11-28.12-4.35-47.42 16.1-14.28 22.15-51.59 48.53-46.6a4 4 0 0 1 1.72 6.77c-47.49 48.74 38.24 74.78-45.9 87.25zm336-51.11c-19.62 2.7-78.88-38.12-61-54.55 28.95-18.06 6.39-34.25 11.32-54.44 3.22-1.18 5.45-4.43 4.29-7.86-4.13-11.53-41.58 7.13-34.52-10.92 5.69-3.57 11.82-7 13-12.22 3.72-9.46-7.6-19.79-11.56-28.93-6.46-11.42-28-1.1-39.27-5.79-11.09-12-20.76 8-32.19 9.8-4.47-1.45-20.13-7.7-17.19-15.61 3.58-19.76 20.93-51.47 44.16-47.24 37.24 12.78 13.92-2.11 49-4 33.91 5.27 25.21 28.17 17.43 47.38 19.12 9.91 23.93 1.87 44.71 21.3 25.42-6.76 59 14.16 67.65 35.76 12 30.56-25.29 39.34-48 32.61-19.63 1.67 28.21 45 21.17 62.41 1.42 18.96-10.21 32.37-29.02 32.3zm-169.7-210.99c-9.82-8.09-8-27.29-19.72-34.88-2.68-2.15-13-6.82-10.55-10.41 19.55-84.7 56.53 17.49 30.27 45.29zm-442.73-658.53c-21.66 3.35-40.05-15.32-26.07-35 4.69-13.36 34.94-16 25.74-29.83-34.87-37.75 64.17-57.58 85.08-42 13.26 10 30.35 12.5 45.63 16.24 4.61-1.55 13.81-2.53 12 5.05-7.34 39.59-106.49 84.37-142.33 85.54zm237.31-110c-95.05 0.83-154-99.13-32.35-57.69 17.09 12.47 20.46 34.21 38.7 46.89 19.71 12.92 10.93-28.34 12-37.83-2.11-29.59-7.08-73.81 29.94-86 43.2 14.88-5.64 104.5-23.68 127.72-22.12 0.41-6.52 6.93-24.61 6.88zm50-8c-3.81 0.14-5.45-5.21-2.27-7.29 33.34-22.82 72.08-51.4 83.47-92.32 64.91-77.15 118.86 45.4-81.16 99.54zm155.42-19.74c-83.16-1.44-22.12-13.33 11.83-37.3 14.75-8.95 26.92-27.18 46-22.64 20.91-4 69.86 24.88 35.27 43.93-28.93 16.23-60.1 15.04-93.1 16.01z" class="cls-6"/><path d="m755.85 1303.1c-46.57-8.69-57.84-75.42-51.81-112.37 5-25.89 16.56-31.34-5.76-56.34-6.3-4.27 1.57-13.9-7.15-15.9-19.07-3.46-32.66-15.65-48 0.14-9.74 6.36 5.34 19.88 2.64 28.82 0 19.54-9.92 36.53-15.56 53.08 12 10.81 20.38 40.41 37.76 40.35 2.59-0.17 6.22 1.56 6.71 4.79 3.37 68.43-82 67.82-68.92-4.28 6.51-11.28 23.34-15.16 24.11-32.4 1.28-4.58-3.77-8.88-8.08-7-40 4.54-18-58.42-8.27-77.23 0.76-19.92-23-12.86-1.68-46.44-7.46-14.42-30.44-30.15-17.12-48.23 6.85-20.19 15.23-50.75 33.52-18.08 8.71 14 11.63 35.49 11 55.08-0.83 10.11 17.14 7.42 19 15.65 8.78 7.53 32-13.74 52.8-7.8 18.81 0.66 31 11.71 32 30.13-0.05 9.67-14.92 9.06-15.87 17.87 1.36 7.65 11.93 6 17.19 10.25 24.32 10.06 26.35 51.69 1.75 62.09-15.24 9.28 28.32 31.84 32.48 48.12 15.57 24.46 3.71 57.93-22.74 59.7zm-220.07-24.8c-43.62-0.43-25-51.32-14.83-73.87-24.44-10.44-4.94-10.92 2.84-33.54 15.69-30.61 8.7-18.32 32.46-10.64 14.66-1.27 13.6 8.15 4.59 16.14-1.57 10.22 3.75 23.27 3 35.1-1.07 13.39 13.88 21.88 24.37 31.67-2.55 21.5-30.33 34.88-52.43 35.14zm267.37-198.42c-11.49-1-17.35-11.91-28-13.26-11.38-1.35-23.64-3.54-12.32-17.27 1.4-15.82 11.24-23 26.5-20.73 37.22-4.2 54.97 50.12 13.82 51.26zm-149.67-41.65c-14.74-19.85 15.74-70 45.08-67.15 23.49-3 20.2 46.38 6.06 50.38-21.5-10.25-37.7-0.42-51.14 16.77zm-405.7-617.09c-26.36-1.44-19.34-31.93-9.14-48.07 30.74-21.73 66.84-36.74 96.21-63.14 27.02 2.56-63.3 116.8-87.07 111.21zm108.33-133.9c-27.54 3.15-121.36-20.06-65.83-53.85 44.64-18.94 78.56 27.2 119.56 29.87 50.86 9.14-38.57 25.47-53.73 23.98zm324.68-4.35c-46.02-1.85-88.79-16.85-132.33-31.91-9.49-6.37 6.85-7.36 5.78-13.91 2.1-6.63 11.84-8.88 16.68-13.28 21.93-16.12 50-27.25 55.54-56.94 1.12-9.86 8.49-12.81 15.94-15 32.29-16.29 58.15 13.3 29.22 38.71-16.65 11.45-31.54 21.32-48.41 29-64.66 34.47 82.2 6.87 94.47 26.71 31.49 22.9-16.68 38.89-36.89 36.62zm-230.22-21.44c-67.57-39.59-50.08-157.41-8.15-95.15 10.09 26.93 19.94 73.67 8.15 95.15zm19.75-2.62c-12.83 0.16 31.7-56.23 27.61-76.17 29.32-120.81 154.82-28.68-27.61 76.17z" class="cls-7"/><path d="m982.64 1293.6c-25.37-15.55-49.25-30.76-74.31-47.62 19.62-5.84 36.13-16.75 55-24.45 3-1.35 6.69-2.77 6.69-5.39-0.46-5.13-6.5-3.91-10.55-2-17.29 7.56-34.51 15.29-52 22.42-3 1.24-6.63 4.66-10.5 1.48-14.747-12.147-29.46-24.343-44.14-36.59-0.6-0.5-3-0.43-0.54-2.48 26.15-23.89 53.11 5.37 81.78 4.16 4.93 0.15 4.84-4.62 0.83-6-3.26-1-6.81-1.17-10.06-2.22-12-3.92-24-8.06-36-12.1 9.31-8 40.59-11.9 42-19.79-4.88-9.66-69.88 20.39-80.53 25.23-2.2 1.12-5.66 8.17-8.56 2.52-5.7-11.11-12.06-21.66-20.46-31.48 32.52 6.93 68.13-8.78 50.22-46.88-0.59-1-3.62-5 0.88-5.17 19.59-0.68 39-0.79 57.44 8.22s28.12 22.93 29.26 43.37c0.54 9.71 8.5 13.08 16.18 16.08 1.15 0.19 2.35-1.15 3.16-1.9 1.7-1.81-0.73-2-1.4-2.83-2.82-3.31-9.46-3.79-9.46-8.47 3.13-50.31-55.41-69.85-96.71-62.48-2.88 0.29-5.16 5.3-8.17 2.13-15.16-18.8-41-20.27-33.48-24.16 22.35-7 46.4-16.53 60.7-36.26 13.14-19.9 15.45-46.91-7.61-64.21-1.59-1.19-1.79-2.45 0-4 37.67-26 11.06-80.51-29-76.46-0.49-0.1-0.61-3.49 0.83-5.26 26.69-27.39 44.29-56.29 15.09-92.15-10.25-8-33.61-3.25-27.48-27.59-5.47-55.35-73.45-64.68-104-23.59-8.32 21.13-13.33-13.21-50 10.35-1.76 1-3.1 1.35-2.6-1.15 2.58-12.84 5.35-25.65 8.09-38.46 4-18.93 10.31-37.3 12.31-56.8 0.63-6.16-1.78-14.8 4.22-18.94 35.49-28.75 74.17-10.13 111.71 1.63 29.74 10.48 71.16 0.38 76.79-35 7.47 4.43 14.82-0.67 22.3-0.32 20.76 0.85 40.68-5.37 55.42-20.36 1.53-2.21 2.46-5.3 0-8-3.58-4-5.38 1-6.82 2.51-27.26 30.14-80.52 10-80.21 22.51-0.87 11.6-7.4 19.2-16.63 25.53-49.06 29.61-101.43-44.38-161.79 0.93 11.15-88.78-3.12-58.06 80.13-31.17 4.32 1.2 9.59-3.63 3.19-5.91-20.64-9.68-40.33-18-61.82-26.69 8.78-3.35 26.21-18.45 33-13.47 27.342 22.918 58.14 41.363 91.25 54.65 7.14 5.21 10.06-3.52 3.84-6-10-2-17.37-9-26.44-12.35s-14.95-10.45-23.82-14c14.68-0.77 27.17 0.77 41.25 3.11 2.2 0.29 5.89 1.16 6.39 0.3 1.44-2.46-1.41-4.79-3.09-5.29-17.45-7.24-36.26-5.77-54.4-7.15-8.54-0.83-16.18-9.63-24.53-14.35-3.83-2.16-1.26-3.3 0.23-3.87 23.08-5.68 60.35-15.22 82.5-5.65 11.5 6.27 22 14.33 32.83 21.85 9.81 6 25.05 19.67 36.69 12.55-1.34-1.2-2.49-3-4.07-3.51-19.48-6.58-34.76-19.92-54.67-32.92 20.89 0.54 89 12.55 98-4.79-0.46-3-3-4.17-6.6-2.84-42.6 8.17-83.34-6.67-126.77-3.48 24.56-10.71 45.08-16.29 64.33-33.73 2.94-2.45 8.77-3.65 6.25-8.18-2.75-4.93-7-0.23-9.57 1.71-13.666 10.268-28.917 18.236-45.15 23.59 5.2148-13.445 11.845-26.298 19.78-38.34 1.64-2.47 2.9-4.91 0.87-6.76-6.83-4.72-19.7 24.27-23.55 29.55-4 7.37-3.35 17.78-12.2 22-18.36 8.7327-37.901 14.726-58 17.79-3.06 0.47-5.79 4.23-9 1.37 12.77-23.2 21.37-49.7 26.8-75.95 1.62-6.38-6.6-8.95-7.41-1.89-2.7 17.48-8.78 33.85-16.34 50-6.67-9.74-9.1-20-11.66-30.26-1.7196-5.4727-9.9237-2.431-7.66 2.84 5.18 9.06 4.7 20.07 10.7 28.88 5.62 8.26-1.44 28.75-10.8 33.51-11.34 5.74-22.57 11.74-33.89 17.74 1.07-18.32 4-36.77 6-55.08 1-8.14-0.29-18.27 4.07-24 17.81-21.54 52.81-72.43 85.17-61.14 10.17 4 18.21 20.07 13.63 30.38-1.28 2.87-0.48 6.67-0.63 10 2.82-1.51 4.64 2.14 8.25 0.72 33-16.55 94.1-21.66 103.31 25.36 1.24 20 22.07 1.74 33.58 15.39 4.55 7.57 11.48 0.85 5.5-4.83-7-5.86-15.31-9.65-24.68-9-1.47 0.11-4.08 1.25-4.21-1.85-6.25-52.19-77.59-56.27-113.65-32.33 9.32-32.67-17-55.76-48-41.09-24.28 12.58-40.52 34.09-58.37 55.48 6.85-53.94 8.79-107.77 10-162 0.16-4.44-1.1-6.5-5.88-6.15-9.76 0.71-19.54 1.3-29.32 1.61-22.58-0.95-44.23 2-66.48 3.93-35.08 3-71.13 2.08-106.33 6-6.58 0.58-7.18-0.89-5.17-6.25 6.43-17.18 12.54-34.49 19.35-51.52 1-2.61 2.16-9.28 5.82-7.09 23.589 12.751 48.948 21.911 75.24 27.18 28.57 5.48 60.22 12.53 88.56 2.24 18.16-7.67 22-14.5 16-29.58-3.34-8.51-12.88-9.34-19.71-13.47 13.81-5.12 31.11-8 39.73-21 12.59-27.81-31.68-44.16-53.09-40.48-3.69 0.36-12.09 4.59-7.08-6.35 8.35-24.49-27.86-32.68-46.56-22-7.49 3.78-10.79 4.11-13.41-4.85-11-20.5-41.84-9.21-55.21 3.67-7.45-38.16-49.58-27.42-64.74-2.81-1.24-0.8-1.41 5.1-4.28 0-6.89-19.49-28.17-20.38-40-3.81-6.5 9.42-11.22 19.49-14.78 34.33-1.25-10.45-6.37-14.8-8.49-20.42-4.21-11.15-19.72-15.51-28.77-7.7-19.31 16.67-14.66 37.26-10.18 58.4-19.18-12.77-77.87-21.72-69.5 17 1.06 3.82 0.92 5-4.13 5-15.53 0.14-31.59-3-46.09 6-10.52 6.53-18 14.2-13.45 27.86 0.68 2.07 0.5 2.17-3.55 2.16-28.29-2.7-109.85 13.91-68.9 52.9 2.21 2 1.84 2.6-0.53 4.12-19.14 10.49-47.65 31.18-25.55 54 14.56 13.39 41.59 8.52 59.69 3.39 1.14 11.49-7.69 19.9-3.93 32.37 2.56 10.74 16.19 20 26.18 14.89 14.44-7.4 28.05-15.84 39.56-27.58 25-25.52 43.13-55.18 55.11-88.82 2.06-5.79 3.75-15.67 12.93-12.53 44.3 19.11 78.43 55.3 106.22 93.87 5.86 7.84 1.43 16.59 0.61 25.05-1.24 13-0.31 26-1.55 39.11-7 121-30.72 241.93-61.56 358-15.58-43.41 8.35-109.68-45-131.43-3.15-1.18-3.81-3.27-4-6.62-1.63-38.06-48.33-49.66-73.21-12.39-2.92 4-3.54 0.95-4.14-0.53-2.73-6.66-4.8-13.6-7.69-20.18-10.29-35.62-61.09-115-87-49.16-0.62 1.92-2.82 1.44-3.78 0.22-4.54-6.16-9.13-12.29-13.43-18.61-8.65-12.72-31.92-15.71-43.73-6.13-35.79 29.15-32.05 87.63-5.81 121.25-3.49 1.87-7.3 4.06-11.24 6-29.25 16.57-15.71 66 7.84 81.11 13.57 7 27.28 13.42 43.33 16.64-44.29 15-30.1 75.24 15.49 71.17 9-1.69 5.92 18.68 14.4 24.05 51.65 43.92 117-13.62 171.56 16.55 5.77 3.24 18.09 3 14.91 15.27-10.09 30-25.22 58.13-37.64 87.18-0.18 0.39-2.45 0.44-2.57 0.16-13-17.55-37.17-26.67-56.8-13.75-2 1.22-2.81 7.32-5.7 3.74-8.81-10.91-20.91-16.92-32.13-24.51-26-16.45-64.25 10.65-61.5 39.93-20.8-12.47-39.37-27.85-66.77-23.23-20.12 3.31-36.18 10.59-45.26 28.77-6.45 12.88-13.35 26.82-6.95 41.67 3 6.91-0.07 8.41-4.84 8.85-27.5 2.52-38.88 38.15-36.72 57.69 2.5 28.58 19.73 61.86 50.81 65.17 8.47 1 12 2 10.89 11 5.77 28.48 35.83 39.6 61.94 37.57 29.34-1 52.66-19.07 79.5-27.53-1.79 16.82-41.58 47.81-12.87 57.42 66.76 4.7 128.05 15.41 195.84 17.74-19.95 13.06-22.71 29.79-18.7 48.76 0.3 1.44 0.52 3-2.14 3.49-38.08 16.57-17.8 63.59 17 70.21 5.17 1.13 7.07 3.69 2.6 9-27.78 33.43 1.75 83.46 38.68 95 32.15 5.44 13.85 10.52 24.82 33.73 29.68 64.11 143.38 48 162.54-16 2-10.22 5.2-7.66 12.13-6.34 28.08 9.62 57.13-6.37 66.56-34.2 7.17-15.32 2.85-30.33 1.28-46.18 35.83 1.59 66.58-34.89 51.45-68.55 11.67-10.73 16.66-24.23 18.21-39.44 0-5.52 13 8.78 14.78 10 18.1 17.21 46.07 39.21 71.66 24.89 15.88-11.66 20 26.37 83.88 19.59 9.43-0.82 21.65 0.3 25.83-12.68 0.52-2.52 0.75-6.11-3-4.59-6.13 5.49-13.46 7-21.43 8-57.76 8.67-60.9-25.25-80.28-21.39-12 4.25-23.25 11.09-37.41 3.19-21.86-12.18-41.91-25.86-54.76-47.79-2-3.48-8-9.21-4.34-12 11.11-8.18 22.77-25.18 18.73-41.39-17.33-34.5 23.82 9.41 48.6-18.07 2.66-2.56 2.72 0.14 2.67 2.08 0 27.53 5 54.55 8 81.84-0.56 5.36 5.21 2.31 5.92-0.09-1-19.48-3.29-38.88-3.28-58.4 13.77 14.44 19.87 34.06 29.3 51.36 1.07 2.19 2.54 2.93 4.21 1.78 1.1632-1.0346 1.7428-2.5753 1.55-4.12-4.54-14.8-10.53-29-18.94-42-4.79-7.39-12.72-13.07-16.29-20.87-5.36-11.73-0.46-25-2.24-37.55-0.35-2.47 0.45-5.11 0.73-7.66 5.35 4.17 11.55 8 16 13 8.36 10.57 24.13 13.87 27.74 29.18 9.34 31.54 21.88 83.29 44.64 106.26 0.88-1.66 2.93-3.84 2.46-4.92-5.92-13.693-12.103-27.27-18.55-40.73-0.71-1.49-1.44-2.6-0.46-3.73 0.3-0.34 2.38 0.41 3.28 1.12 8.93 7.18 19.43 12.37 26.54 21.91 3.42 3.14 11.1 13.94 16 9.2 2-1.5 0.53-3-0.59-4-11.36-15.61-26.11-27.28-42.67-37-3-1.77-7.73-0.41-9.14-5.13-3.82-14.06-9.63-27.67-11.66-42.15 24 15.22 48.06 30.6 72.57 45 4.01 1.8 13.64 0.17 6.56-4.78zm-150.49-202.46c24.16 9.26 54.38 49.78 13.49 58.38-27.89 3.9-49.74-11.93-74.35-18.84 14.76-5.71 26.25-17.36 30.73-31.93 3.38-3.79-4.48-15.91 9.87-12.14 6.55 1.73 13.8 1.28 20.26 4.53zm-133.15 37.52c8 1.53 16 5.26 22.88 3.81 8.41-1.78 13.83 1 20.67 4.31 21.05 10.19 21.12 36.94 8.1 51.39-7.38 8.18-35.29 4-42-5.33 14.66-22.27 4.87-36.11-9.65-54.18zm-31.54-39.66c20.75-15.64 70.5-16.58 71.62 15.1-10.07 21.68-58.49 9.8-75.36 1.72 4.28-4.93-2.26-12.41 3.74-16.82zm30-20.14c-1.0676-0.1242-2.1079-0.4214-3.08-0.88 1.18-2.34 1.86-5.14 3.6-6.93 9.07-9.37 16.27-18.85 18-33 0.79-6.51 11.74-9.13 22.29-9 27.7 3.92 26.07 31.94 3.2 44-13.87 9.56-29.21 4.95-44 5.84zm11.29-56.59c-1.59 9.56-8.84 2.94-12 2.21-19.36-4.42-34.32 3-43.27 19.68-0.48-24.34 15.42-60.26 46.52-59.09 17.72 1.46 9.07 25.71 8.76 37.23zm-40.52 17.06c7.78-9.29 31.68-9 36.22 1 3 6.55-3.37 11.51-6.62 16.57-8.74 13.62-22.11 22.47-35.4 30.72-2.26 1.41-9.75-5.53-14.72-8.77 3.2312-14.747 10.315-28.374 20.53-39.49zm-11.19 66.07c0.58 21.82-46.29 33.41-49.87 3.88-0.66-26.09 52.32-31.69 49.88-3.85zm-15.19 50.76c-2.27 17.76-4.24 32-12.41 44-3.56 5.23-9.8 10.72-16.69 8.34-22-12.92-3.18-54.21 4.36-72.13 1.25-2.75 3.9-1.4 5.68-1.21 6.47 0.71 14.33-0.24 16 8.82 0.91 5.22 3.87 10.2 3.07 12.21zm6.68 7.11c9.32 18 19.87 28.47 36.31 32.7 28.21 0.22 14.67 43.32-5.58 47-14.92 4.2-30.47-7.21-36.65-22.77-7.81-19.65 5.56-35.1 5.93-56.9zm-47.8 46.73c6.62 10.23 16.4 8.08 25.79 5.51 0 21.25-26.63 37.61-46.33 25.3-8.83-5.23-17-31.42-12.83-41.13 15.19-46.45 13.23-21 31.88-46.27-4.55 21.59-9.77 39.25 1.49 56.59zm44.08-179.45c-0.18 3.74-1.83 7.41-2.85 11.29-4.86-18.92-10.16-30.4-26.35-40.4 2.24-9.247 5.2815-18.281 9.09-27 5.35-6.41 15.86 2.9 17.93 8.15 5.05 15.63 2.95 31.88 2.18 47.92zm-20.2-6.74c6.41 12.94 11.8 26.3 9.94 43-1.11 2.76 3.24 10.85-1.43 11.48-8.59 1.15-19.77 10.89-26.43-4.31-2.08-4.75-6.54-8.41-9.58-12.79-7.39-10.68 2.75-18.66 4.63-27.91 0.71329-3.5545 1.9217-6.9913 3.59-10.21 2.08-3.94 1.88-11.38 6.33-11.26 6.2 0.19 10.25 6.49 12.95 11.96zm-27.76 58.58c3.53 2.55 12.27 2.67 9.53 8.63-3.62 7.84-7.4 17.38-19 18-6.65 0.38-13.11 3.21-20.16 1.45 4-7.78 9.36-14.87 11.42-22.81 3.54-13.45 10.44-10.93 18.21-5.31zm-6 36.29c12-3.89 11.33 7.74 17.27 10.86-2.63 13.64-29 34.88-42.16 36.07-6.75-1.86-14.66 1.45-20.18-6.3-4.08-5.72-0.08-9.65 1.67-13.32 8.69-18.1 26.31-21.81 43.45-27.35zm-33 55.51c2-0.15 4.16 0.72 6.24 1.12-12.15 17-27 33.24-51.54 31.37 11.26-13.25 16-29.5 25.44-42.46 4.86 5.99 10.92 10.56 19.9 9.93zm-39 43.6c-17.13 16.29-21.54 49.38-11.63 60.88 12.31 14.29 0.08 15-7.83 18.85-12.1 5.91-24.39 9-37.79 3.63-13.93-5.62-5.65-12.49-1.26-18.7 13.3-18.82 27.76-36.87 40-56.31 5.06-8.02 9.71-10.76 18.5-8.39zm-3 19.52c5.65-22.06 27.94-26.3 42.51-39.72 0.55 19.06 0.3 44.38 21 52.74 9.36 4 3.27 6.94 1.57 10.92-8.34 19.49-51.8 31.18-63.74 16.33-9.83-12.33-4.67-26.72-1.32-40.31zm29.33 57.57c0-5 5.67-4.48 8.42-5.31 17.77-5.34 31.65-14.45 37.62-33.12 1-3.3 5-4.07 8-3.19 4.29 1.24-0.33 3.11-0.11 4.66 2.09 15.12 0.64 31.52 12.67 43.46 6.67 6.63 0.35 11.55-1 16.9-7.49 30.45-58.66 49.25-68.11 10-2.67-11.85 2.44-22.28 2.53-33.44zm66.14-12.91c-4.23-9.29-3.2-20.07-1.67-30 0.49-3.21 6.49-5.72 10.17-8.27 8.19-5.68 11.7-14.13 14.27-25.45 3.9 18.5 20.36 35 36.56 37.91 4.72 33.65-39.39 72.65-59.31 25.77zm36.56 29.67c22.24-6.33 31.1-29.75 29.38-50.69-0.2-2.37-2.61-5.93 2-7.94 9.05-4 18.57-12.72 23.32 4.72 4.23 15.55 10.84 30.56 10.37 45.47 3 32-30.26 70.79-58 40.66-6.1-8.66-12.66-17.25-15.4-27.51-1.55-6.22 6-4.16 8.35-4.75zm50.21-125.09c-28.43 6.78-44.07-28.86-52.13-50.17-2.25-5.81 8.36-12.25 13.11-12.53 17.93 0.84 67.14 45.6 39.04 62.66zm35.81-54.11c17.2-7.92 19.44-23.27 8.57-37.21-4.21-5.9-10.69-9.63 2.5-13.66 12.89-3.93 37.1-0.4 45.47 10.11 8 10-2.79 32.65-17.83 37.12-12.499 3.9109-25.684 5.1377-38.69 3.6zm49.59-89.77c18.48-2.22 36.12 6.4 39.77 23.57 1.27 15.65-7.88 16.18-15.86 18.89-11.81 4-16-9.23-25.45-10.36-3.86-0.46-7.67-3.88-11.25-3.5-16.37 1.65-3.91-7.72-2.2-14.36-0.76-11.08 4.29-14.23 15.01-14.28zm-52.22-267.83c3.54 2.56 7-6 9.54-9.55 19-27 52.7-31.81 77.77-15.28 14.61 11.52 17 39.61 15.78 57.49-0.44 5.41 4.68 3.87 7.38 3.34 17.77-3.53 37.38 16.28 35.41 34.48-2.12 26.25-22 41.48-35.5 61.64-5.24 4-0.17 9.33 5.21 8.07 37.42-7.81 62 40.39 28.21 62-4.16 2.57-8.64 5.87-8.53 10.6 0.08 3.76 4.8 4.76 8.87 6.08 11.78 3.78 16.9 26.9 13 39.43-7.7 24.67-30.83 30-48.93 42.41-12.75 3.41-5.17-7.68-5.86-10.46-5.55-22.58-31.47-38.36-53.32-30.84-8.17 2.82-14.72 4.9-20.3-5.16-4.13-8.2-15.2-6.73-22.78-10.24 17.51-11 19.86-14.35 39.81-7.28 14.7 1.51 72.58 18.71 79.43 5.2-0.18-3.29-4-1.69-6.26-1.76-26.67-0.1-52.25-7-77.89-13.3 1-1.45 1.72-3.74 3.09-4.25 28-10.39 51.32-29 77.06-43.34 2.13-1.19 5.16-3.46 3.64-6-4.19-8.59-49.06 28.67-58.53 28.48 6.25-12.87 14.5-24.93 22.08-37.09 1.73-2.62 0.54-3.58-0.73-3.93-1.8-0.48-5-0.56-5.72 0.48-7.66 11.23-16 22.17-22.06 34.26-7.72 15.54-21.78 21.71-35.84 28.63-10.1 4.89-19.61 11-30 15.36 8-27.13 25.77-75.74 46.2-94.39 11.13-11.05 26.4-13.43 40.12-19.13 6.51-4.24 38.79-20.71 34.66-28.77-4.31-3-53.66 37.34-40.45 17.05 5.12-8.15 38-39.56 30.72-47-1-0.52-4.12 1.82-5.49 3.51-19.37 24.64-39.21 48.85-60.27 72.07-1.5-1.1133-3.0033-2.22-4.51-3.32 16.13-47.65 31-98.49 22.67-149.14-0.3-2.32-2.08-2.19-3.77-2.26-3.16-0.12-2.51 2.35-2.23 3.85 3.6734 27.903 0.72379 56.279-8.61 82.83-1.52-19.39-8.08-37.9-7.36-57.31 0.07-1.93 0.44-4.82-2-4.9-11 2.43-0.23 60.66 4.42 69.31 5.36 13.68-3.76 22.71-5.48 33.93-1.57 8.21-5 16.49-8.56 24.19-1.17-0.82-2.79-1.39-3.44-2.52-6.44-11.12-12.5-22.47-19.1-33.5-4.2-7 1.12-12.69 2.62-18.46 4.09-16.09 6.6-32.58 2.77-48.82 1.34-3.63 1.66-7.07-1.45-9.93-3.28-1.44-6.29 8.93-5.24 11.83 4.7 18.09-3.2 33.75-5.12 51.55-8.52-13.14-11.25-27.43-17-40.4-1.77-4-2.06-12.48-6-10.63-6.13 2.9-1.34 10.71-0.12 15.77 9.86 32.9 24.27 65.72 46 92.5 4 4.65 0.42 8.07-0.72 11.19-4.25 9.69-7.8 20.46-14.63 28.67-9.91-16.72-11.39-38.13-22.26-54.21-7.67 6.54 13.56 53.84 19.13 63.07 3 5-2.68 13.14-6.87 18.14-1.91 2.28-5.06-2.7-6.89-5.09-8.25-10.79-16-22-24.56-32.5-3.58-4.37-1.23-9-0.72-12.26 3.2-20.34 0.7-40.43-0.85-60.58 0.12-8.3-10-6.28-8 1.55 3.72 17.55 1.39 35.3 1.78 53 0 1.14-1.47 2.31-2.26 3.47-8.83-7.85-13-20.48-20-30.11-1.58-3.92-4.82-6.19-6.84-1.21 5.85 24.41 27.11 42.95 39 65.06 5.58 9.85-5.92 5.24-7.46 5.86-14.17 4.81-23.61 13.92-32.42 25.42-0.83-50.13-38.85-27.2-20.83-52.51 11.8-41.49 24.94-82.67 35.24-124.62 3.49-12.43 6.36-25.4 12.23-36.72 8.28-15.84 31.29-26.46 49.92-13zm-16-515.37c16.87 10.17 6.83 21.33-7.34 25.19-54.74 12.94-105.33-11.17-158.26-27.52 16.61-0.83 29-9.89 43.58-8 27.35 3.48 54.78 5.56 82.29 2.94 14.18-1.38 27.46-1.73 39.76 7.39zm-19.39-66.19c17.1 1.5 35.29 1.75 45.4 19.28 11.63 19.17-36.54 27.86-48.51 30.29-13.49 2.68-27.23 2.29-43.22 2-13 2.76-28.34-3.62-43.69 0-0.57 0.13-1.41-0.91-2.12-1.4 16.93-9.47 36.26-15.65 52.3-27.86 13.64-7.33 22.86-24.18 39.87-22.31zm-65.48-16c1.15-10.06 10.74-10.42 17.32-12.95 28-10.54 45.13 8.82 21.61 32.92-33.66 23.65-70.08 42.89-111.12 49.66 27.25-20.79 64.99-33.08 72.22-69.65zm-34-25.85c23.06-9.34 34.53 14.47 23.12 32.85-28 43.72-85.25 66-133 80.94 35.49-24.63 72.21-51.09 85-94.44 3.26-10.27 14.71-15.98 24.94-19.37zm-89 19.89c32.92-70.76 127.89-12.19-37.15 93.49 24.64-30.69 28.25-59.5 37.22-93.51zm-49.87 18.68c2.05-15.57 6.59-31.19 21-41.06 3.33-2.28 7.41-3.57 10.39-0.76 5.09 4.8 11.52 9.31 9.9 18-7.18 37.27-15.32 70.56-40.75 101.65 4.93-28.24-2.46-51.01-0.54-77.83zm-43.76-20.94c2.4-3.24 7.73-7.93 9.8-7.11 30.67 18.62 26.72 73.19 27 105.43-25.24-21.75-56.57-65.83-36.8-98.29zm-73.62 54.63c2-10.37 13.9-11 23.75-11.18 14.12-0.31 26.28 6.24 39 10.78 8.12 2.91 9.38 12 13.23 18.11 7.54 12 17.53 21.36 27.47 31.31-24.68 3.36-105.77-18.21-103.45-48.99zm-144.81 84.48c0.67-25.07 53.65-26.89 73.73-29.49 7.68-2.11 12.52 6.79 19.81 9.8 8 3.33 16 7 24.48 8.27 7.4 1.07 14.53 6.54 22.54 2.41 0.41-0.21 1.35 0.6 2.05 0.94-31.69 20.95-76.33 29.62-114.63 24.5-10.88-1.8-26.08-0.81-27.98-16.43zm115.16 64.26c-11.16 16.09-23.51 31.68-40.27 42.05-9 5.55-17.61 17.76-30.54 10.25-13.43-8.67-3.17-28.62 2.29-39.5 5.26-8 15.3-9.14 23-13.51 26.15-13.92 48.55-30.36 72.25-48.63-6.9416 17.439-15.913 34-26.73 49.34zm-72.24 2.09c-18.2 7.43-37.36 11.7-57.28 6.37-8.72-2.33-11.09-17.33-4.56-26.21 8.16-11.1 20.46-16.87 31.89-22.63 5.65-2.84 15 2.74 22.72 2.77 15.12 0.05 30.81 1.21 45.23-2.33 19.7-4.84 40.35-8.46 57.62-20.69 0.69-0.49 1.73-0.49 5.21-1.39-31.86 27.52-64.32 49.19-100.83 64.11zm107.64-81.77c-16.63-1.75-73.9-8.15-68.5-32.48 9-21.45 41.49-16.35 60-14.49 8.82 1.44 16.27 10.39 24.7 15.34 18.76 12.36 39.18 14.5 61 19-25.98 7.68-50.96 15-77.2 12.63zm89.36 52.25c-18.15-17.2-39.35-33.74-61.92-43.25 0.71-0.89 1.49-2.39 2.3-2.42 22.14-0.9 42-10.49 62.91-16.11 29.85-8 61.05-10.91 89.63-23.91 2.74-1.24 6.53-0.16 10.13-0.16-11.19 18.53-19.24 38.35-23.06 58.93-3.26 17.6-14.61 5.86-21.65 8.45-5.67 2.08-12.75 0.09-19.15 0.58-4.61 0.35-2 4.93-2.12 6.78-1.1 17.52 2.15 35.17-1.94 54-10.059-15.573-21.844-29.96-35.13-42.89zm-104.38 551.57c-45.19-7-91.38 22.2-133.88-3.31-10.95-5.48-7.55-29.27-18.28-27.92-43.38 8.06-57.25-49.23-11.78-56.43 8.53-0.56 17-2.51 25.38-4.32 1.22-0.27 2.25-3.21 2.64-5.07 0.6-2.84-1.72-2.47-3.55-2.6-26.09-1.95-51.67-5.19-74.64-19.73-11.7-7.4-19.63-35.46-17-48.4 3.17-15.61 15.21-17.74 25.38-23.37 14.91-6.15-33.87-27.08-16.61-89.37 3.86-20 27.07-48.09 46.41-29.67 9.05 9.86 17.05 20.67 25.58 31 1.48 1.79 2.76 4.56 5.86 3.43 3.57-1.3 2.43-4.58 2.7-7.29-0.41-19.31 12.89-38.76 32-23 32.51 22.33 35.64 62.47 55.71 92.86 10.75 11.39 13.62-38.74 58.09-20.34 6.57 2.8 9.56 10.05 9.4 14.89-0.41 31.35 37.55 17 40.5 60.51 2.49 22.93 3.21 46.09 6.58 68.88 5.61 26.95 14.31 30.87 0.8 59.46-0.59 1.82-2.61-0.39-3.72-1.43-11-10.22-22.46-20-32.71-30.85-5.91-6.28-0.87-14.83 0-21.86 2.1-17 1.4-33.7-0.09-50.52-1.2-8.19-1.11-43.48-12-42.89-3.38 1.12-0.85 3.7-0.66 5.5 5.1676 33.021 6.4062 66.538 3.69 99.85-8.11-6.47-16-12.69-23.8-19-3.33-2.7-6.61-4.76-4.1-10.71 3.18-7.55 2.33-16 1.74-24.24-2.34-10.46 0.38-87.65-11.22-83.6-4.31 1.45-0.69 4.51-0.57 7 0.65 19.61 0.83 35.63 2.62 56.08-8.23-13.07-15.28-24.3-22.35-35.53-1.89-3.73-5.95-4.49-9.34-2.12 14.42 32.92 36.71 42.45 30.72 82.39-20.91-13.72-38.78-32.26-57.9-48.47-6.67-6.1-3.81-15.84-5.22-23.85-6.93-34.62-11.72-73.44-30-103.33-2.33-0.47-6.55-1.75-4.69 3.72 9.43 23.65 16.63 47.85 20.5 73.08 1.73 11.91 7.63 23.85 5.18 36.08-29.62-29.69-55.55-63.65-83.8-94.88-4.53-6.11-7.8 0.61-4.87 5.24 27.07 32.43 51.8 68.38 82.82 97-20.48 9.67-35.3-3.59-51.29-13.06-10.36-6.15-21.14-11.61-31.85-17.15-1.16-0.59-3.13 0.4-4.72 0.65 11.38 17.37 35.3 20 50.76 35.19-18.9-3.24-37.44 3.5-55.49-3.08-3.55-1.3-9.35-3.5-10.44 1.1-1.34 5.65 4.94 5 9 6.08 22.51 6.1 45.44 4.62 68.13 2.88 9.54-0.73 19.46 1.1 28.88-2.79 5.4-2.23 8.86 2 12.34 5.54 16.17 16.6 35.26 29.78 52.92 44.63 1.85 1.56 3.6 3.57 0.07 5.07-7 3-14 6-21.16 8.35-9 2.9-16.8-3.08-25.31-4.26-12.2-1.68-24.28-4.27-36.47-6-2.86-0.42-8.91-3.87-8.32 2.26 0.64 6.51 8.61 4.53 13.11 5.92 12.76 3.91 26.77 2.77 39.88 9.83-23.46 4.52-45.16 11.9-68.85 13-2.13 0-4.25 2-6.37 3.07 2.67 1.47 5.51 4.45 8 4.17 23.74-2.72 47-6.63 70.08-13.28 11.037-3.6022 21.799-8.0004 32.2-13.16 10.18-5.23 17.62-4.57 25.43 3.28 5.23 5.24 11.13 9.82 16.67 14.64-17 10.27-34.84 19.4-54 25.43-15.93 5-32.2 9-48.4 13.1-2.48 0.63-4.1 1.27-4.26 3.82 0.93 8.68 51.12-8.23 58.71-10.08 18.89-5.55 36-14.63 52.76-24.67 2.62-1.58 3.89 0.19 5.13 1.34 12.58 11.58 25.87 22.54 37.15 35.29 6.66 9.06-7.24 24.86-7.88 35.58-0.29 2.75-1 4.54-4.94 1.73-12.87-9.19-27.42-13.86-42.99-17.29zm-127.88 322.15c-31.93 14.37-70.67 34.57-103 11.24-7.79-5.47-17.39-15.1-13.17-29 1.8-5.91-2.19-9.77-8.43-9.79-60.64 4.21-75-104.89-10.34-108 21.9-3.27-19.5-20.24 6-55.41 12.39-19.77 46.42-24.43 65.56-16.34 14.71 6.22 26.26 19.2 43.3 20 1.93 0.09 6 1.62 4.24-3-6.37-16.87 3.27-30.8 15.69-37.61 14.19-7.78 27.52-4.63 40 4.73 10.43 7.84 21.61 14.82 28.42 26.56 2.24 2.47 7.06-0.35 7.67-3.08 5.51-24.36 27.76-13.18 42.13-2.89 14.76 8.74 4.07 17.9 0.32 26.8-5.22 11-9.65 18.75-15.23 30.63-4.66-15-4.12-28-10.7-40.47-5.58 0.26-5.43 7.82-4.22 11.5 2.33 12.15 6.79 24.1 7.55 36.3 0.63 10.1-5.43 20.7-15.2 23.08-6 1.47-12.52-7.28-17-13.37-16.66-24.49-35.72-47.37-51.7-72.22-0.81-1.22-1.35-4.49-3.88-2.72-12.6 6.95 28.64 47.41 31.78 58.43-21.66 1.76-42.73-7.63-62.63-15-0.93-0.37-2.44 0.71-3.68 1.12 15.68 14.08 37.13 20 58.29 21.08 10.69 0.23 17.77 7.11 25.69 14.67 14.7 14 4.56 15.75-6.54 18.86-21.13 9.08-26 5-46-2.66-24.42-6.31-45.08-20.45-66.84-32.07-14.09-7.52-26.48-18.24-39.49-27.73-2.73-2-5.51-2.37-7.6-0.37-3.14 3 1.27 3.8 2.49 4.89 14.113 12.436 29.017 23.944 44.62 34.45-11.3-2.94-22.61-5.83-33.89-8.87-1.21-0.32-2.58-1.84-3.17 0.09-0.34 1.13 0.44 3.66 1.23 3.91 15.9 5 30.39 14.39 48.33 12.84 11.33-1 18.87 9.58 29 13 5.58 1.88 11 4.35 16.35 6.76 2.93 1.3 6.81 0.82 8.61 4.36-40.37 12.22-84.58 6-126.44 7.49-9.43 0-18.85 0.18-28.28 0.13-2.43 0-2.89 1.72-2.86 3.18 0 2.68 2.28 2.62 4.36 2.84 25.44 3 50.5 1.27 76 2.33-17.22 10-33.25 18.69-51 23.62-1 0.29-2.64 2.19-2.43 2.85 2.17 9.34 33.71-6.79 38.72-10.31 27-19.17 59.55-19 91-20-17.303 17.638-36.268 33.565-56.63 47.56-6.94 5.4-15.45 11-20 18.61 6.25 4.65 51.23-32 57.94-38.06-0.27 15.9-6.52 30.82-11.08 46.15-0.68 2.26-1 4.16 1.63 4.42 6.55 0.61 7.32-5.42 8.38-9.25 14-76.08 26.59-68.62 94.39-89.54-11.76 24.07-25.9 47.16-38.88 70.66-5.11 8.9-10 18.65-17.45 25.26-5.25 4.64-14.7 3.91-21.93 7.36zm152.07 62.39c-44.64-5.24-89.38-10.32-134.3-12.21-14.61 1.27-16.56-1-6.52-14 62.75-100.36 125.28-202.19 167.86-312.9 21.89-59 36.89-120.7 50.41-182.14 33.17-137.61 48.38-279 50.36-420.37-0.12-5.14 3.74-5.27 9.33-5.29h58.93c58.667-2 117.29-4.4067 175.86-7.22 3.65-0.16 3.88 1.16 3.58 4.28-2 20.53-2.45 41.32-6 61.57-7.06 80.55-16.69 160.84-24.73 241.32-10.38 63.21-25.05 125.67-42.28 187.36-35.85 140.19-86.42 278.65-167.52 399.3-68.37 90.33-21.51 68.84-134.96 60.3zm409.17 77.89c-9.25 26-25.4 19.57-16.06 33.65 16.37 27.76-22.32 61.39-50.3 50.42-2.69-0.9-4 0.69-3.3 4.07 2.09 10.5 5.06 21.06 5.24 31.64 0.33 19.28-15 50.73-42.5 48.21-10.44-1-20.94-1.31-31.39-2.1-3.38-0.25-5.46 1.44-5.6 4.3-2.48 34.34-46.61 59.48-77.94 58.41-98-2.74-59.6-68.29-85.83-71-29.76-1.58-56.77-28.43-58.67-57.65-2.06-13.34 8.09-25.11 14.74-36.55 0.85-2.69 4.28-4.82 2.37-8.09-1.72-3-4.85-1.28-7.26-1.31-32.64-0.66-56.62-45.87-18.65-58.65 11.53-4.7 2.19-12.13 1.8-17.89-1.13-16.41 6.76-28.38 19.05-36.44 4.49-2.94 13.74 1 20.72 2.34 11.74 4 14.24-7.49 18.28 0.14 19.56 21.27 55.45 7.11 73.07-10.78 1.92-2.18 10 1 15.21 1.78-1.15 12-7.54 24.21-2.78 36 2.16 5-1 7.45-11.77 9.5-12.33 2.33-22.64-4.78-34-7-14.531-2.928-29.412-3.7096-44.17-2.32-4.64 1.55-21.6-1.24-21.66 4.42-1.61 5.94 36.15 1.92 41.82 3 13-0.14 24.84 4.78 38.5 8.74-33.88 11.42-64.73 22-96.91 35.78-4.92 1.6 0.25 5.9 3.09 5.27 34.29-11.42 67.08-23.79 101.93-34.14-15.86 21.77-35.6 38.21-55.49 54.5-1.09 0.9-4 1.53-2 3.29 9.46 9.88 59-43 64.63-53.25 4.86-6.87 12.79-16.74 22-12.44 14.94 25.19 42.26 4.45 34.58 22.88-3.16 7.64-6.81 15.34-8.28 23.37-2.37 12.87-13.64 13.31-22 17.84-14.52 7.86-29.44 15-43.61 23.42-13.49 8-25.79 17.83-37.5 28.39-4.11 2.75-26.43 30.36-10.21 23 8.56-7.81 14.33-18.23 24.36-24.72 11.55-7.48 22.56-15.78 35.79-25.13-12.53 18.49-20.7 36.66-33.78 51.64-1.72 2.9 1.81 8.38 5.25 4.57 8.62-9.46 14.44-21.08 22.5-30.7 9.39-11.22 8-29.75 25.39-35.49 8.8-2.89 16.78-8.31 27-13.57-11.76 40.61-21.71 79.11-30.66 120-0.48 2.74-2.56 7.7 2 8.53 7 1.28 6.61-6.23 7.48-9.62 7.23-23.41 9.36-49.58 18.2-71.87 6.84 19 7 41.73 8.07 62.3 0 4.88-1.85 10.61 4.62 13.33 5.73-15 3.77-54.14-2.79-69-9.46-21.21-1.66-40.1 4.4-59.57 0.79-2.55 3-1.3 4.36-0.12 9.12 7.72 18.18 15.52 27.29 23.26 2.73 2.31 2.17 5.27 1.88 8.22-1.88 7.95-0.29 72.44 10.41 68.53 3.31-0.78 2.08-3.36 1.77-4.76-3.79-20.27-5.27-41.63-3.53-61.89 18.31 16.73 32.24 37.92 45.8 58.76 24.6 5.34-38.64-66.91-44.66-70.5-11.19-10.63-21.4-22.88-36.15-29.28-3.57-1.54-4.07-4.47-3.08-7.69 3.2-10.35 6.41-20.69 9.9-30.94 1.57-4.62 6.58-4.45 10.19-5.18 1.24-0.25 3.89 4 5.11 6.52 5.13 10.71 10.23 21.45 14.79 32.4 2.12 3.66 3.5 23.7 9.5 20.54 0.6-2.87 2.68-5 1.92-8.67-10.4-56.4-35-41.68-11.05-74.68 1.49-4.48 2.54-9.11 3.93-14.19 5.61 7.74 9.54 16.6 16.3 21.68 10.11 7.59 8.82 17.24 9 27.13-0.39 7.19 7.07 65 16.71 59.28 4.67-3.65-0.07-9-1.18-13-6-21.19-5.1-36.69-10.43-59 21.83 24.24 37.5 40.52 62.57 57.71 0.41 0.31 1.82-0.38 2.59-0.88 5.6-5.87-18.36-20-22.11-24.67-6.49-6.12-13.09-12.14-20-18.51 19.09 1.67 28.7-9.06 38.39-22.35 10.19-14 9.14-29.31 9.77-46.71 8.27 14.64 19.21 21.79 34.07 24.06 7.01 0.9 12.72 31.42 8.96 39.48zm6.93-56.53c-33 25.75-54.42-30-63.23-53.84-2.77-9-3.28-18.79-0.27-27.75 2.09-6.23-0.52-11.55-0.54-17.64 11.65 5 24.14 8.07 33.7 15.1 24.37 17.8 57.64 56.42 30.34 84.13zm31.73-50.74c-22.95-5.48-37.31-21.44-51-38.67-11-10.13 33.64-11 12.34-58.84-0.4-0.87-0.69-2.7-0.41-2.84 1.56-0.77 3.84-2.14 4.92-1.55 15.16 8.16 32.5 12 44.55 26.24 25.97 24.63 39.02 84.82-10.4 75.66z" class="cls-8"/></g></g><g id="Red_Japanese_Frames" data-name="Red Japanese Frames"><path fill="#fc1c25" stroke="#000" stroke-linecap="square" stroke-width="4" d="m0 0v1600h976v-1600zm96 48h784c26.592 0 48 21.408 48 48v1408c0 26.592-21.408 48-48 48h-784c-26.592 0-48-21.408-48-48v-1408c0-26.592 21.408-48 48-48z"/></g></svg>