<svg width="328" height="537" viewBox="0 0 328 537" fill="none" xmlns="http://www.w3.org/2000/svg">
<g clip-path="url(#clip0_5_2)">
<rect width="328" height="537" fill="#E33535"/>
<path d="M322.623 7.38375V529.616C322.623 530.15 322.411 530.663 322.032 531.04C321.654 531.418 321.141 531.63 320.607 531.63H7.39344C6.85866 531.63 6.34578 531.418 5.96763 531.04C5.58949 530.663 5.37704 530.15 5.37704 529.616V7.38375C5.37704 6.84967 5.58949 6.33746 5.96763 5.95981C6.34578 5.58216 6.85866 5.37 7.39344 5.37H320.607C321.141 5.37 321.654 5.58216 322.032 5.95981C322.411 6.33746 322.623 6.84967 322.623 7.38375Z" fill="#666666"/>
<path d="M0 0V537H328V0H0ZM32.2623 16.11H295.738C304.674 16.11 311.869 23.2951 311.869 32.22V504.78C311.869 513.705 304.674 520.89 295.738 520.89H32.2623C23.3256 520.89 16.1311 513.705 16.1311 504.78V32.22C16.1311 23.2951 23.3256 16.11 32.2623 16.11Z" fill="#FC1C25" stroke="black" stroke-width="4" stroke-linecap="square"/>
</g>
<defs>
<clipPath id="clip0_5_2">
<rect width="328" height="537" fill="white"/>
</clipPath>
</defs>
</svg>
