<?xml version="1.0" encoding="UTF-8"?>
<svg version="1.1" viewBox="0 0 976 1600" xmlns="http://www.w3.org/2000/svg" xmlns:cc="http://creativecommons.org/ns#" xmlns:dc="http://purl.org/dc/elements/1.1/" xmlns:rdf="http://www.w3.org/1999/02/22-rdf-syntax-ns#">
 <metadata>
  <rdf:RDF>
   <cc:Work rdf:about="">
    <dc:format>image/svg+xml</dc:format>
    <dc:type rdf:resource="http://purl.org/dc/dcmitype/StillImage"/>
    <dc:title/>
   </cc:Work>
  </rdf:RDF>
 </metadata>
 <defs>
  <style>.cls-1{fill:none;}.cls-2{fill:#fff;}.cls-3{clip-path:url(#clip-path);}.cls-4{fill:#0055e1;}.cls-5{fill:#000;}.cls-6{fill:#ffb85a;}.cls-7{fill:#fc1c25;}.cls-8{fill:#000;}.cls-9{fill:#000;}</style>
  <clipPath id="clip-path">
   <path class="cls-1" d="M960,22V1578a6,6,0,0,1-6,6H22a6,6,0,0,1-6-6V22a6,6,0,0,1,6-6H954A6,6,0,0,1,960,22Z"/>
  </clipPath>
 </defs>
 <g id="Paper_Backing" data-name="Paper Backing">
  <path class="cls-2" d="M960,22V1578a6,6,0,0,1-6,6H22a6,6,0,0,1-6-6V22a6,6,0,0,1,6-6H954A6,6,0,0,1,960,22Z"/>
 </g>
 <g id="Wikipedia_Cropped" data-name="Wikipedia Cropped">
  <g class="cls-3" clip-path="url(#clip-path)">
   <path class="cls-4" d="M505.6,1290c-29.15-10.8-40.89-52.12-61.5-74.51-40.19-65.06-78.62-132.09-104-204.1-69.38-173.45-107-363.3-122.54-550.63-2.15-36.32-5.2-72.34-9.94-108.35,1.28-10-9.32-31.81,4.54-33.31,80.64,6,162.17,4,243.15,10,11.43-5.93,5.41,83.07,9.35,94.78,2.43,68.65,8.47,138.32,21.74,205.75C520.26,868.94,600.35,1057,734.9,1258c5.81,9.76-4.14,11.7-10.74,10.71-73.15,3.1-146,13-218.56,21.29Z"/>
   <path class="cls-5" d="m839 1556.3c-21.19-31.09-0.16-105.71 14.66-136.8 19.63-24.87-47-14.07-59.49-20.5-41.5-10.64-88.35-15.7-121.44-46.69 34.44-41.33 100.09-62.22 152.66-63.58 29.15 6.27-22.61-68.68-22.75-93.59-15.15-50.55-21.36-101.27-26.31-153.62 1.15-8.85 8.93-1.79 11.76 2 65.51 49.77 105.04 118.45 144.91 186.36 11.33 17.18 39-43.06 47-25.53-0.36 50.95-0.06 109.49 0 160.78-3.3 3.35 6 100.4-4 100.84-21.37-29.7-12.57-40.27-36.64-1.08-29.75 40.25-57.47 69.66-100.36 91.41zm34.25-974.68c-6.32 0.65-6.92-11.72-8-17-6.42-38.39-14.16-77.32-8.32-116.81-0.55-9.36 12.39-39.7-5.14-36-35.25 21-73.58 31.71-114.36 40.74-22.91 3-195.65 32.91-144.54-13.2 30.06-45.21 65.15-75.82 106.4-106.91 15.52-20.32 94.87-52 80.05-64.64-47.76-24.08-109.5-59.38-142.67-99.17 54.72-32.25 135.33-20 196.82-7.14 21 8.47 17.84-5.78 11.79-20-7.58-37.42-19.5-73.69-21.67-112 0.69-24-8.39-100.6 27.19-55.17 44.28 45.37 90.88 94.44 116.27 153.41 17.95 16.87 11.71 59 12.92 82.36-0.93 25.52 0.42 67.81 0 93.75-2.25 8.78 4.33 177.6-2.37 184.75-32.06 29.25-67.94 76.64-104.4 93.03z"/>
   <path class="cls-6" d="M256.06,958.29c-7.6-.4-10.4-9.45-12.61-15.41-20.12-36-18-82.82-25.54-121.52-43.29,16-80.61,48.27-131.26,53.79-13.13.9-56,17.42-56.35-1.54,23.55-42.38,60-75.66,96.91-105.72,19.56-21.08,65.05-36.83,14.18-51.26C104.45,700.75,49.28,673,37.6,636.8c43.06-21.32,94.83-7.51,138.79-4.28,4.83-27.07,7.46-57.1,19.44-81.65,4.68-6.65,16.42-43.94,25.2-31.34,7,78.88,16.57,157.81,33.66,229.23,14.7,41.42,22.07,86,35.86,128C291,896.84,269.47,948.1,256.06,958.29Z"/>
   <path class="cls-7" d="M282.43,1604a4.22,4.22,0,0,1-4-5c1.52-36.32-22.49-3.2-34.48,5-15.93-.34-43.6.14-59.26,0-3.66-2.48-41.63,6.17-31.47-7.68,5-17.75,37.46-53.13,1.41-51.26-53.29-11.44-110.7-22.36-156.87-52.15-9.94-9.59-46.88-31.83-34.6-45.56C3,1426.91,48.89,1423,93.33,1423.92c112.75,11.2,52.92,8.14,39.61-70.25-19.57-66.79-30.1-139.47-54.62-202.53,9.48-6.13,19.75,7.26,27.4,12.06,56.1,41.82,99.71,95.92,141.61,151.68,12.25,8.58,23.32,53.85,38.74,38.53,41-52.26,94.47-83.74,154.69-120.15,28.7-3.7-34.66,171.9-47.13,187.83-6,7-2,16.19,8.13,13.71,22.12,0,43.6,4.43,64.08,8.88,32.87,5.78,66.59,18.51,97,30.6,7,14.1-37.06,28.33-47.29,35.94C369.27,1587,272,1522.58,321,1597.55,328.17,1609.94,285.83,1601.77,282.43,1604Zm371.18-494C565.06,969.37,524.37,813.06,493.69,650c-19-60.57,40.55-1.45,59.89,14.37,22.68,12.1,57.49,90.37,69.15,78.33,41.34-71.19,136-94.12,204.81-127.9,17.92,5.77-39.33,110.82-50.06,125.9C664.61,901,706,804.4,840,887.64c38.81,22-58.79,35-72.15,40-25.91,6.22-54.35,2.8-79.45,6.51-6,22.37,4.67,55.05-3.75,79.23C678.13,1045.52,673.74,1085.74,653.61,1110Zm-516-639.32c-15.56-27.25.27-70.82,5.61-101.73,22.71-45.12-58.74,12.21-144.36-18l.13,0c-60-10.3,31.6-60.76,51.76-75.21,66.78-32.23,43.23-15.69,18.87-76.7C61.31,179.86,2,40.24,39.12,48.11,88,68,149.14,117,182.3,153.9c6,4.65,14,23.11,21.42,11.13,1.49-21.87,113.1-185.16,104.13-100,.22,45.67,16.83,86.4,13.91,132.78.6,11.81,14.87,3.59,22.46,5,35.28,1.62,65.91,14.39,99.49,22.28,43,14.36-72.46,75.06-90,81.75C328.07,316.56,295,328.3,268.41,315c-8.07,7-55.25-5-62.62,2.54-.9,12.15,5.34,24.47-1.69,37.25,3.84,14,6.8,30,6.23,45.92C196.29,432.37,164.28,458.28,137.63,470.67Z"/>
   <path class="cls-8" d="m979 1249.8c1.64 3.28-1.33 6.68-3.39 9.51-15.22 20.47-30 41.42-44.62 62.23-3.9 4.4-6.47 0.26-7.91-3.28-18.92-42.44-39.48-84.18-61.29-125.21 15.93 45.74 36.77 90.57 54.79 135.83 1.61 3.91 1.46 6.43-4.12 6.35-41.26-1.56-83.13 1.16-124 4.75 36.07 7.87 73.94 10 110.92 9 15.25-0.72 33.16-1.3 19.4 16.94-10.66 32.69-28.51 63.09-34.26 97.21 67.54-102.13 32.3-126 90.63-3.82 0.88 1.82 1.18 4.08-0.68 5.28-3.05 3.56-13.77-21.36-16.8-25.08-23.37 52.27-66 95.75-117.22 120.84-17.21 7.22-13.05-9.11-13-15.09 0.34-22.76-2.9-45.49 3-68.42 17.42-90.29 57.9-63-36-72.36-17.62-1.91-146.51-33.79-122-59.4 42-42.85 103.67-60.42 162.3-60.93-34.9-55.22-46.76-121.06-57.31-184.46-3.68-21.94 0.36-44.71-6.24-66.39 3.65-20.6 77.71 61 83.87 69.39 13.5 16.83 26.38 33.9 37.15 53 13.57 23.73 32.82 45 42.68 71 1.75 4 3.17 2.2 5 0.69 10.35-8.73 20.8-17.36 30.91-26.37 2.56-2.25 4.76-1.58 7.5-1.37-9.49 16.26-26.86 27.15-39.5 41.15-2.41 2.33-4.75 1-5.61-1-39.2-74.37-86.75-146-152.87-198.75 7.28 79.63 19.62 156.89 55 228.8 2.72 5.34 4.48 11.26 9.15 15.85 4.71 5.64-6.89 7.2-10.75 7.23-19.8-1.08-39.36 1.86-58.3 6.44-35.862 8.4537-69.051 25.71-96.57 50.21-11.52 7.48 54.89 30.48 61.74 31.62 33.37 11.86 68.26 16.26 103.38 19.44 1.7 0.18 2.83-1.76 5.35-1.17 17.93 4.24 17.39 3.91 6.86 23.85-16.7 33.12-21 71.67-21 108.41 0.12 6.3 0.51 12.79 2.17 18.8 1.09 3.92 4.4 0.09 6-0.7 37.27-20.79 68.31-52.76 92.79-87.28 26.38-36.6 14.32-39.29-2.41-75.23-14.58 36.23-36.32 69.37-58.45 101.9-1.53 2.31-3 4.88-6.54 3.32-3.89-1.73-0.92-4.66-0.52-6.38 5.91-25 12.21-50.1 23.28-73.29 6.69-14 8.83-30 18.92-42.64 2.16-2.71 1.13-8.34 4.29-11.71-20.41-4-44 0.59-65.36-1.79-15.45-0.81-30.78-4-46.15-6.26-12.38-1.78-24.75-3.66-37.13-5.4-2.95-0.42-7.51 0.84-6.82-4 5.49-15.89 124.49-14 145.13-14.18 2.35 0 3.21-1 2.42-3-9.16-22.28-18.377-44.54-27.65-66.78-18.32-43.57-36.39-87.24-55.1-130.64-0.91-2.08-1.67-3.67 0.75-5s4.66-0.55 6 1.72c36.12 60.59 67.34 123.83 99.2 186.57 5.36-6.86 42.14-66.71 48.99-59.95zm-2.1 30.59c-3.11-0.6-4.68 2.19-6 4.57-10.29 17.94-20.69 35.83-30.73 53.91-3.19 5.75-3.41 10.64 5.77 10.27 10.17-1.52 22 2.91 31-2.67-5.84-11.47-33.74-0.74-28.16-8 3.22-7.11 37.82-56.9 28.08-58.08zm-0.86 84.81c-1.39-0.86-3.67 0.49-4.8-0.13-5.7 1.78-28.13-1.58-23.1 8.14 9.13 15.94 12.26 36 25.38 49.17 4.87-7.15-12.75-38-15.83-47.12-1-2.32 0.32-2.12 1.71-2.13 6.04-0.7 22.75 3.3 16.6-7.93zm-340.13-1188.5c44.06 37.67 88.61 77.14 144 96.86-53.74 25.06-99.25 63.85-143.57 102.43-20.34 20.08-37.14 43.57-54.1 66.72-11.31 15.44-10.67 19.57 7.11 22.43 39.2 8.46 78.41 0 117.57-3.83 53.29-4.51 105-21.39 151.38-47.36 0.16 1.1 0.82 2.44 0.41 3.25-6.38 12.69-6.52 26.89-7.24 40.24-2.37 38.5 0.66 78.59 11.77 115.79 1.91 5.05-1.13 15.93 8.48 14 7.48-1.5 14.14-7.91 20.78-12.68 31.19-23.78 61.5-49.73 83.5-82.27 1.73-2.56 2.34-6.34-1-8-3.42-1.93-5.14 2.7-7 4.93-6.52 8-12.25 16.71-19.18 24.32-5.11 6.8-75.56 73.45-77.56 62-7-41.89-16.55-84.26-10.38-126.92 2.37-13.15 3.31-26.56 5.09-39.82 0.27-2 0.2-3.53-1.45-4.81-9.42-3.59-25.5 14.25-36.36 16.25-13 4.19-25.41 10.41-38.48 14.47-65.12 19.61-137 31.32-204.5 21.49 47.83-71.89 116.15-126.9 190-170.59 10.12-6.91 27.87-10.62 4.81-21.87-49.82-20.79-90.9-57-134.92-87.54-6.11-4.5-6.68-8.91 2-11.09 54.4-16.22 112-15 167.17-3.8 14.61 1.65 28.49 10.1 43.4 6.68-1.29-9.59-6.12-18.17-8.53-27.4-3.74-15.29-6-31-10.54-46-11-42.74-16.63-89.2-6.77-132.22 14.07 11 25.29 25.14 37.88 37.71 21.337 20.579 40.464 43.333 57.07 67.89 14.44 18.73 27.88 39.19 36.49 61.18 2.17 6.12 10.6 10.74 10.6 17.52-0.11467 2.5174-1.0727 4.923-2.72 6.83-9.89 12.9-20.6 25.17-30.72 37.42-17.56-28.42-28.67-59.42-43-89.44-10.4-19.08-14.4-40.94-25.46-59.56-4.78 3.7-8.48 7.67-7.07 14.62 3.38 16.66 3.49 33.76 7.7 50.45 3.66 14.53 3 30.18 6.75 44.67 7.29 27.79 11.78 56.55 25.43 82.43 2.74 11.94-17.26-1.56-22.07-2.35-48.53-20.58-98.68-38.12-150.83-46.26-11.86-1-23.88-0.54-35.8-0.09-1.51 0.05-3.14 3.73-4.12 6-0.23 0.52 1.76 2.59 3.06 3.11 29.47 12.57 60.19 22.38 89.5 35.19 23.32 11.05 45.89 23.67 68.88 35.42 20 10.2 20.06 10.11 8 20.55-18.37 14.83-35.37 31.2-56.37 42.77-49 34.57-102.83 60.48-156 87.83-2.13 1.11-5.83 3.58-5.61 4.1 1.35 3.26 4.69 3.12 7.67 2.75 89.61-20.61 179.23-56.25 251.07-114.34 2.05 8.92-1 18.77 1.34 27.4 2.92 11.07 1.91 22.06 0.59 32.7-1.58 12.65 0.44 25.41-2.76 38-1.93 7.61-0.73 16-1.69 23.89-2.49 33.18-13 65.41-13.14 98.93 7.41-0.32 11-7 13.58-12.85 7.75-16.74 17.53-32.5 23.22-50.26 18.24-53.94 32.22-110 28.86-167.44 5.86 2.17 18.54 14.22 23.85 11.11 3.32-1.08 2.21-3.44 1-4.83-4.89-8.8-15.26-10.23-23.37-14.49-5.31-2.82-8-0.37-8.32 4.49 0.93 75.31-15.84 147.69-50.27 215.74 1.64-23.4 9.42-44.26 11.77-67.39 0.94-16.52 20.9-157.33-10.88-140.56-60 50.19-130.41 77.33-204.37 101.69 5.22-4.6 6.73-6.86 8.8-7.63 25.6-9.5 48.08-24.8 71.47-38.36 37-23.72 75.3-45.72 105.06-78.5 5.38-5.31 1.82-10.35-3-13.11-14.08-8.13-28.43-15.82-42.92-23.19-38.16-20-76.3-36.91-117.67-50.28 15.92-6.07 29.15 3.56 44.65 5.07 21.8 2.83 42.28 10.49 62.89 17.1 25.23 8.08 49.48 19.19 74.24 28.76 10.34 5.9 21.8 1.66 17.76-11.56-7.1-25.06-15.5-49.86-21.62-75.23-3.89-27.38-11.53-54.15-14.46-81.69-2.43-1.79-1.6-4.08-0.08-6.43 11.66 39.19 31.49 77.05 50.1 114 8.84 15.81 13.7 17.94 26.2 5.65 6.609-6.611 12.585-13.826 17.85-21.55 4.35-6.37 13.3-13.29 9.56-21.79-8.45-19.17-17.49-38.38-28.94-55.86-31.81-49.59-69.87-96.47-115.68-133.93-24.67-12.35-15 50.1-16.77 62.43-1.2 47.63 14.27 94 25.55 139.82-5.64 1.34-9.55-3.46-14.78-3.59-16.64-0.58-32.3-6.55-48.75-8.78-21.47-2.9-42.81-3.68-64.29-3.42-13.71 0.09-113.1 8.91-80.8 33.88zm337.09 48.75c2.89-3.66 4.18-8.48 5.93-12.75 0.15-0.33-1.62-1.44-2.91-2.55-11.09 8.78-19.23 20.58-28.25 31.35-3.61 4.81-8.61 11.12-0.84 17 9.49 6.51 18.4 15.05 29.11 19.19 12.47-6-12.1-14.26-15.39-18.92-3-2.9-10.94-5-8.33-9.07 5.61-8.87 14.01-15.94 20.68-24.25zm-412.33 1264.9c-73.88 49.42-162.81 71.85-251.17 71.07 5.47 11.42 10.3 23.18 15 34.93 0.14 4.54-3 9.07-6.7 3.69-13.16-27.91-27.25-55.51-38.48-84.27-1.35-3.67 2-6.79 6.08-6.71 55.31-1.17 103.6-8.75 160-17.14-54.69-1.62-108.57-5-163-0.19-5.35 0.43-3.83-4-3-5.63 30.73-57.05 74.06-106.05 105.39-163.05-7.29 1-7.79 8.28-11.58 12.14-28.2 29.24-51.41 62.8-77.45 93.91-8 10-15.95 20-24 29.92-10.95 13.48-13.14 13.41-20.19-2-25.34-51.71-42.58-107.59-77.21-154.28 22.37 53.35 38.65 108.86 61.26 162.15 2 5.27 7.88 11.71 4.33 15.83-4.59 5.32-13.69 3.55-20 1.87-12.36-3.28-24.84-0.74-37.27-3s-25.75-4.83-37.93-3.74c-21.63 1.94-42.95-3.81-64.67 0 55.58 12.82 111.68 21.36 167.7 31.72 3.55 0.62 3 2.57 1.57 4.57-21.78 29.08-40.39 62-64.52 88.65-0.33-2.27-1.85-5.46-0.88-6.9 17.9-26.46 36.5-52.46 54.33-79-3.65-1.27-7.25-3.46-11-3.68-28-1.66-54.72-9.92-82.14-14.55-33.5-7.56-69.54-11-100.89-25.1 8.21-8.45 52.29-5 65.09-4.06 40.55 3 80.88 4.21 121.27 8.77-4.15-19.2-15.5-36.73-21.48-55.59-8.54-22.93-15.34-46.53-24.41-69.24-18.08-43.38-36-86.94-55.19-129.85-0.68-1.46 0.14-3.62 0.27-5.46 56.27 71.23 96.24 156.75 132 240.6 51.32-55 91.65-119.34 146.4-170.4 1 17.28-12.17 32.08-20 46.51-29.66 54-69.28 99.89-101.78 152.18 47-5.23 92.86-1.53 139.78-1.92 12.93 1.17 28.49 1 40.46 5.37-13.43 11.84-33.39 8.82-49.1 14.88-40.78 8.29-82.95 8.61-124.49 13.71-3.62 0.39-2.09 2.49-1.33 4.25 4.46 10.36 8.84 20.77 13.5 31.05 1.8 4 5.78 2.68 8.88 2.43 86-5.27 176.84-24.43 246.53-77.08-1.16-0.86-2.26-2.38-3.49-2.49-13.27-1.22-24.36-8.57-36.48-13-43.62-13-88.87-25.92-134.84-22.66-1.21 0.13-2.88-1.83-3.94-3.14-1.4-1.73 0.83-2.37 1.42-3.55 32.33-61.16 54.24-128.38 61.26-197.3-56 33.54-114.9 68-155.48 120.25-7.16 9.07-13.55 8.9-19.94-1.34-7.92-12.7-16-25.37-25.11-37.23-33.11-41.44-63.37-85.9-104.42-120-14.05-13-29.13-24.9-44-37-3.55-2.24-10.71-7.91-14.32-6.62 10.54 19.5 16.38 41.49 23 62.76 5.3 14.68 5.42 31.16 8.8 46.63 3.48 16 8.05 31.71 12.26 47.51 11.23 36.94 16.12 76 38.16 108.64 2.64 4.23 9.59 7.14 6.63 13.87-0.77 1.76-4.24 4.18-5.21 3.71-23.42-5.06-47.82-9.39-71.67-8.85-11.43 0.13-23.43 0.59-34.72 0.2-20.53-0.71-39.39 5.48-58.66 9.83-12.47 1.84-23.79 7.25-35.13 13-4.07 1.91 0.19 4.89 1 6 32.43 44.67 87 58.47 137.3 73.06 22.75 5.25 46.13 10.65 69.28 13.12 12.62 2.75 4.53 10.31 2.43 15.37-5.65 13.58-12.1 26.82-18.37 40.14-1.2 2.84-5.37 3.77-7.36 1.36 22.46-76.94 45.61-31.59-62.24-63.47-48-11.48-97.89-33-126.78-75.19-6.03-10.27 2.2-23.58 15.97-26.55 11.77-2.54 23-7.64 34.67-10.6 29-9.13 59.06-6.94 89-5.65 17.8 0 35.15 2.94 52.49 6.41 3.13 0.63 6.06 0.1 2.57-3.82-23.48-29.79-29.25-67.92-37.8-103.79-8.55-28.37-14.3-57.34-20-86.37-7.58-29.87-13.82-60.32-31.52-86.57-0.76-1.12-0.29-4.59-0.09-4.61 3.41-0.44 7.57-1.84 10.21-0.45 72.53 39.92 127.17 103.63 173.76 170.8 9.58 13.17 18.74 26.5 26.53 40.79 1.63 3 3.65 1.44 5-0.53 19.22-29.46 48.91-48.49 76.16-69.74 26.2-18.81 52.72-36.89 82.14-50.28 3.18-1.78 3.85-3.48 1.23-7.33-21.38-31.18-39-65.08-57.86-97.83-37.25-73.6-68-149.19-90.69-228.79-5.35 16.4-20.7 63.83-36.65 67.87-32.08-13.72-40.59-101.91-40.34-134 3-7.16-4.25-3.55-7.56-0.66-45.08 33-99.54 49.37-154.54 55.76-9.32 1.44-17.8-0.17-26.27-2.53-7.68-2.14-1.81-9-0.8-10.75 33.2-57.2 85.26-101 137.24-140.57-49.88-20.57-102.31-43.54-132.23-91.57-4.49-13.09 51.88-20.54 61.11-19.81 17.43-0.47 35.8-0.79 53.51 4.17 7.75 2.18 16.32 4.19 24.31 4.14 7.34 0 4.39-9.41 4.6-13.28 2.28-37.72 16.73-74 40.3-103.48 3-3.24 0.87-11.72 0.3-17.73-0.94-9.92-2.73-19.76-3.79-29.67-2.08-14.9-1.89-30.36-4.85-45-8.48 11.95-72 81.09-78.88 46.37-7.54-35.81 5.61-71.65 13-106.38 2-10.38-7.1-1.81-9.5-1.33-43.09 9.38-88.41 9.63-130.76-3.46-8.9604-2.4484-17.667-5.7467-26-9.85-5.75-3-2.63-9.61 0.38-12.52 8.64-8.33 17-17 25.67-25.27 24.35-26.06 57.67-41 90.09-54.67 6.13-2.86-2.3-7.95-4-10.51-33-55.58-55.53-118-63.17-182.27-4.9-12.11-1.2-26 15-18.17 63.2 26.4 118.91 71.26 160.36 125.4 19.18-56.72 58.59-102.85 107.07-136.59 9.17-6 7.4 27.84 7.29 32.14 1.25 44.72 16.36 87.86 14.3 132.65 0 3.21 0.77 4.75 4.12 4.12 43.47-5.61 84.85 13.17 125.52 25.57 25.47 8.59-53.33 64.66-64.54 69-16.6 8.72-32.94 17.78-51.51 24.81 39.53 2.4 77.06 4.49 116.27 4.42 14.92-0.14 10.4 9.95 10.78 17.43 0.76 15 0.8 30.09 1.53 45.12 3.79 72.86 10.69 145.58 19.61 218 1 15.62 14.38 15.52 23.17 21.16 45.24 27.33 78.26 69.22 104.46 114.58 1.44 2.16 5.07-2 8.61-8.22 7.39-13 18.79-22.3 29.63-32.45 9.75-9.14 19.54-18 30.9-24.58 26.942-15.778 55.129-29.327 84.28-40.51 22.27-8.43 45.37-14.93 63.49-31.68 4.39-3.17 11.94 2.47 8 8.11-6.2 17-11.71 34.16-18 51.09-23.67 65.28-65.76 122-111 174-3.16 3.28 1.82 1.75 1.78 3.15 44.08 1.07 83.21 21 120.84 41.93 8.57 4.2 14.27 11.73 21.92 17 2 1.37 5.31 2.94-0.67 6.8-50.15 27-108.45 38.55-165 34.42-2.27-0.45-0.23 7.19 0.48 10.76 3.93 19.69 3.58 39.28-0.11 58.92-5.27 29.5-9.93 59.68-23.29 86.72-6.38 14.31-8.26 26 1.44 39.88 20.07 31.76 38.33 64.81 58.24 96.73 11.59 16.66 31.45 45.65-5.42 45.31-51.45 2.32-102.42 9.15-153.51 14.72-20.48 2.66-41 5.2-61.44 7.87-13 1.69-18.73-8.38-25.2-16.26-8.66-10.57-16.07-22.15-24.26-33.13-1.92-2.57-3.47-5.15-3.63-12.06-8.47 68.71-24.31 131.52-59.16 190.8 58.34 3.42 116.69 17.08 169.08 43 10.39 4.68 8.96 11.27-3.76 18.99zm-66.67-859.87c12.65 64.93 25.28 129.92 42.31 193.88 1.52 5.54 0.65 12.88 6.55 16.3 11.76 6.83 23.91 13 36.08 19.49-9.83-28-13.62-58.8-25-86.31-8.24-21.78-16.8-43.64-28.79-63.87-1.3169-2.4946-0.62592-5.5764 1.63-7.27 4.85-0.77 9.83 7.67 13 10.87 28.22 38.55 53.22 79.34 68.22 125.09 52.14-60.7 107.5-119.71 172.7-166.61 2.37-1.64 4.31-2.46 6.24 0 2.91 3.75-1.11 7.1-2.52 8.4-17 15.68-34.75 30.57-50 48.1-12 13.77-26.17 26.07-35.85 41.28-23.1 31.43-49.7 60.84-69.28 94.52 26.5 1.63 53.22 0.72 79.56 6.45 4.24 0.51 91.06 17.38 67 22.34-18.78 2.11-38.07 0-57.2 1.69-33.26-1.9-66.32-1.5-99.44 2.3-1.63 0.12-2.41 0.13-1.33 2.25 23.12 46.67 31.66 100.15 32.23 151.67-2.5942-2.4036-5.0514-4.951-7.36-7.63-12.21-38-24.32-78.2-45.66-112.73-3.49-6.66-3.93-7-8.94 2.91-3.53 7-11 13.84-7.86 22 20.05 52.45 47.71 100.45 73.53 150.45 20.72-46.25 33.2-99 29.61-150.15-1.14-7.89-5.62-18.11 2.4-24.76 7.49-6.2 17.18-0.28 26.06-1.73 43-2.79 85.68-8.5 125.52-26.15 11.91-2.8 10.81-6.48 0.81-12-38.76-21.48-80.13-39.49-124.62-44.61-5.29-0.77-13 1.56-16.21-4.28-2.91-5.21 3.9-6.4 6.53-9.29 54.52-62.53 101.86-134.21 124.64-214.29-70.35 35.17-157.27 52.93-201.64 124.84-4.52 7.39-12.24 14.8-16.76 2.78-26.77-48.85-65.86-95.09-116.07-120.24-0.18102 1.4295-0.21119 2.8742-0.09 4.31zm71.23 287.09c2.77 7.81 5.88 15.48 8.97 23.48 4.36-9.19 8.42-18.33 13.21-27.06 0.54-1 1.37-8.27 5.47-3.41 20.48 23.12 28.85 49.49 42.37 78.06-3.25-32.59-11.34-60.78-26.67-88.59-8.88-15.2 2.64-10.64 9.21-11 10-0.61 20-1 30-1.15 20.25-0.21 40.37-4.14 60.78-1.37 9.2 1.24 18.8 1.43 30.15-2.33-38.52-8.64-72-10.83-110.13-12.57-6.54-0.53-20.69 2.39-8.16-12.13 4.69-5.44 8.19-11.88 12.44-17.72 12.41-17 24.58-34.28 37.57-50.87 5.9-7.53 12.66-14.31 18.33-27.25-121.33 118-49.91 121.5-132.67-12.63 0.6 6.58 0 9.39 1.14 10.92 6.76 9.1 8.76 19.92 11.76 30.32 6.19 21.59 12.28 43.24 17.35 65.11 0.85 3.65 6.18 8.57 0.69 12.6-5.83 4.27-9.45-1.72-13.8-3.87-9.19-4.7-18.08-10-27.9-13.32 1.27 4.74 1.69 10 4.11 14 1.73 2.89 6 4.7 9.41 6.09 18.57 7.45 22.09 17.78 11.91 34.13-2.08 3.33-7.22 5.55-5.5 10.56zm-8.66-35.86c-0.86-0.36-1.77-0.6-2.66-0.9-1.9 6.66 5.43 17.14 7 24.14 10.58-10.74 7.64-18.15-4.3-23.24zm-350.28-481c0.21-11.73-1.64-23.5-2.72-35.67-90.21 137.18-25.84-15.53-1.68-60.53-14.25 1.52-25.86 7.92-38.8 9-35 4.25-69.58 11.68-104.86 13.24-9.79 1.19-19-4.06-28.52-0.56-10 5.19-15.26-5.87-5.21-10.62 49.5-23.17 101.77-39.62 156.5-43-7.28-2.71-135.36-190.71-99.85-168.41 47.72 45.83 82.28 104.31 130.86 149.1 8.73-33.94 20-67.72 35.16-99.55 6.88-15.26 14.46-30.21 22.39-44.95 6.9-10.92 16.25-7.3 9.68 4.2-1.1175 1.8568-1.8012 3.942-2 6.1-0.38 14.32-7 27.18-9.43 41-6.31 35.28-18.21 70.23-18.54 106.29 17.41-6.87 34.74-13.66 53.19-17.79 6.87-2.4 114.74-18.07 89.75 2.15-44.43 11.65-88 26.69-129 47.57 4.4 5.53 7.79 14 13.42 15.92 9.4708 3.0872 19.55 3.8284 29.37 2.16 53.51-9.28 102-38.14 140.74-75.68 9.1-8.91 3.71-9.64-4-11.64-38.63-8-77.8-28.55-117.81-19.56-7.1 2-8.57 0-7.84-5.74 1.54-12.09 2.46-24.06 0-36.2-4.36-25.53-6.77-51.75-11.66-77.11-2.82-16.38-0.43-32.29-2.83-48.32-43.39 30.8-76.37 76.27-95.69 125.93-6.54 24.19-18.89-4.65-27.47-11.3-40.72-43.21-88-81.25-142.64-105.25-15.08-13.77 4.12 62.14 6.45 66.56 15.26 45.09 31.12 91.63 58.07 131.24 5.28 7 1.35 8.28-3.17 9.46-42.85 13.63-80.89 40.81-112.35 72.38-4.65 4.87-8.71 9.76 2.54 12.64 11.56 3 22.73 7.51 34.7 8.66 17 1.63 34.06 3.56 51.12 4 23.48-1 47.21-6.63 70.05-12.06 7.64-2.72 10.16 2.61 8.21 8.91-11.65 35.89-19.55 74.19-15.29 111.91 0 2.63 1 1.19 2.3 0.51 27.21-14.65 53.27-37.56 66.9-65zm-4.5-75.36c-7.33 10-10.65 22.88-15.64 34.25-4.08 11.1-11.95 20.77-13.13 34.33 15.3-20.76 36.88-40.63 28.81-68.59zm5.66-14.62 54.29 2.85c-8.11-7.84-13.69-15-2.63-21.33 34.89-21.2 69.56-30.51 109.66-43.73-42.15 3.76-78.6 10.4-116.74 26-5.88 2.09-14.78 4.23-13.11-8.19 2.08-15.41 3.65-30.91 6.2-46.24 4.45-26.71 14.72-52.23 17.71-79.22-18.83 37.18-30.91 77.36-42.23 117.18-0.72 2.45 0.41 8-5.18 8.25-10.61-1.12-16.35-16.88-24.85-22.89-34-32.77-59.48-70.21-89.16-107.52-0.1 2.14-0.46 3.11-0.13 3.67 24.29 42.27 50.22 83.52 80.41 121.9 20.32 15.26-4.84 19.4-18.88 21.52-42.54 5.66-84 15.81-122.45 35.84 31.463-0.91179 62.816-4.154 93.8-9.7 19.26-2.82 38.48-5.08 57.07-11.49 5.64-1.95 13.41-3.13 18.57 1.13 4.26 3.55-1.56 7.86-2.31 11.96zm79.14 566.89c-12.89-41.42-21.88-84.07-34.39-125.67-26.67 21.73-55.34 42.4-86.35 58-13.72 5.39-59 31.49-70.21 26.56-0.25-0.19 0.17-1.88 0.72-2.34 20.4-18 45.65-29.59 66.83-46.5 23.14-19.82 49.6-37.74 69-61.07-18-4.15-124.6-47.51-125-62.77 0.42-0.88 2.12-2 2.93-1.74 42.73 10 84.71 24.63 128.39 29.72-10.8-56-15.45-112.4-21.53-171.77-20.71 34.21-33.5 66.67-34.42 106.24 0 4.38 2.69 16.26-9.81 12.15-17.89-6.46-37.14-5.5-55.7-8.71-17.53-2.51-34.72 1.46-52.06 2.36-8.85 0.46-17.11 4.12-25.67 8.4 39.3 45.4 76.45 62 130.52 84.71 3.78 1.82 8.43 4.29 2.64 9.25-49.27 43.98-107.48 82.8-139.15 142.49 18 3.22 35.44-2.33 52.57-5.65 47.8-7.38 89.84-33 130.92-57.19 1.94-1.07 2.88-4.3 6.07-2.5 2.83 1.6 2.24 4.24 2.14 6.64-0.84 46.18 5 94.8 28.28 134.93 5.35 4.13 6.3-3.78 7.17-5.49 7.6-17.2 28.06-52.62 26.15-70.06zm-47.32-176.1c-31.24-6.1-62.74-13-93.74-20.76l-0.36 1.4c27.1 14.65 56 25 85.16 34.52 4.76 1.63 11.19 5.5 13.37-2.11 1.11-3.9 0.3-11.38-4.43-13.05zm-15.27 46.19c-24.93 22.56-51 43.58-79 62.25l0.57 1c31.92-14.08 61.4-33.3 89.25-54.33 9-7.15 18.89-13.09 12.16-27-0.56-1.14 0.27-3.77-2.26-1.37-6.89 6.45-13.57 13.21-20.72 19.45zm223.4 465.54c13.36 19.47 26.67 38.93 40.69 57.94 5.86 7.93 8.5 17.31 22.56 14.24 16.52-3.6 33.8-3.65 50.71-5.54 55.42-6.53 110.85-13.9 166.69-15.12 1.34 0 6.92 1 3.45-4.62-57.49-93.27-117-186-158.86-287.59-45.31-105.72-67.85-219.35-88.44-332.08-19.31-98.95-25-200.09-26.77-300.63 0.14-1.08 3-6.34-2.43-6.73-46.67-2.69-93.46-4.42-140.24-5.91-34.18-1.57-68.92 0.1-102.76-4.08-1.4 0-3-0.48-2.76 2.16 0.89 8.9 1.37 17.83 2.34 26.72 11.42 108.15 19.59 216.75 35.84 324.35 17.66 82.19 40.65 163.41 63.12 244.31 33.99 102.29 77.95 201.83 136.86 292.58zm-183.72 325.99c-1.34-3.68-3.2-9.75-8-4.19-17.08 19.76-33.51 40.08-50 60.32-1.0832 1.3104-1.3455 3.1155-0.68 4.68 2.29 4.48 4.38 3.27 6 0 13.6-16.82 26.88-33.89 40.64-50.56 1.36-1.65 4.21-7.85 6.38-3.9 4.87 8.86 7.56 18.93 12.08 31-8.79 4.57-16.11 14.14-24 20.51-5.19 4.28-0.68 8.46 4.59 5.31 7.6758-5.8338 14.912-12.224 21.65-19.12 8.41 8 1 14.51 10.07 15.71 4.29-0.07 1.34-3.14 0.57-5-3.82-19.17-12.66-36.6-19.3-54.8z"/>
  </g>
 </g>
 <g id="Red_Japanese_Frames" data-name="Red Japanese Frames">
  <path d="m0 0v1600h976v-1600zm96 48h784c26.592 0 48 21.408 48 48v1408c0 26.592-21.408 48-48 48h-784c-26.592 0-48-21.408-48-48v-1408c0-26.592 21.408-48 48-48z" fill="#fc1c25" stroke="#000" stroke-linecap="square" stroke-width="4"/>
 </g>
</svg>
