<svg xmlns="http://www.w3.org/2000/svg" version="1.1" viewBox="0 0 976 1600"><metadata/><defs><style>.cls-1{fill:none}.cls-2{fill:#fff}.cls-3{clip-path:url(#clip-path)}.cls-4{fill:#6060bf}.cls-5{fill:#000}.cls-6{fill:#ffb85a}.cls-7{fill:#fc1c25}.cls-8{fill:#000}</style><clipPath id="clip-path"><path d="M960,22V1578a6,6,0,0,1-6,6H22a6,6,0,0,1-6-6V22a6,6,0,0,1,6-6H954A6,6,0,0,1,960,22Z" class="cls-1"/></clipPath></defs><g id="Paper_Backing" data-name="Paper Backing"><path d="M960,22V1578a6,6,0,0,1-6,6H22a6,6,0,0,1-6-6V22a6,6,0,0,1,6-6H954A6,6,0,0,1,960,22Z" class="cls-2"/></g><g id="Wikipedia_Cropped" data-name="Wikipedia Cropped"><g class="cls-3" clip-path="url(#clip-path)"><path d="m637.68 884.74c-43-37.85-94-89.53-103.18-150.79-14.1-0.5-32.35-1.21-29.36-19.61-1.68-14.36-6.87-27.31-8.72-41.52 0.29-9-10.11-24.34-1-30 16.14-11.7 49.81-47.73 71.71-27.1 29.48 22.63 19.16 51.92 44.3 47 16 0.66 70.48 10.79 47.52 35.41-17 21.09-49.1 96.62-30.22 117.83 13-8.54 8-31.72 17.82-48.86 13-23.82 29.07-89.17 62.9-77.65 18.28-4.74 8.11-51.45 38.93-51.17 52.6 4.07 88 12 130.74 33.43 14.84 6.35 12.09-12.2-0.36-14.07-27.41-14.87-51.53-24.17-75.92-29.26-14.89-5-55.07-0.63-41.88-26.71 67.07-108.18 172.21 26.55 196.13 104 2.25 5.12-5.25 5.28-5.82 9.64-1.85 8.7 21.06 18.31 9.29 25-63.63 7.42-127.78 40.36-192.27 25.61-14.75-1.75-1.31 25.81-21.47 40-30.96 30.76-73.31 53.33-109.14 78.82zm-146.42-266.1c-12.26-8.39-6.56-31.13-10.89-44.64 1.77-15.39-18.88-54.26 9.61-51.6 32.46 6.05 63.27 28.87 63.71 61.48-1.63 3.79-5.82 5.28-10.28 6.83-23.68 7.4-36.02 18.43-52.15 27.93zm169.24-19.64c-13-11.31-18.89-39.49-15.91-58.33-3.39-17.37 32.13-51.43 39.93-19.35 0.19 27.43-7.09 58.52-24.02 77.68zm72.09-42.15c-13.59-19.85-14.07-52.32-17.59-77.48-6-29.06 31.66-53.86 45.49-16.37 11.14 32.41-1.68 74-27.9 93.8zm-140-39.63c-19.3-12.12 27.56-56.65 38.05-58.56 60.05-9.48-14.64 58.19-38.08 58.51z" class="cls-4"/><path d="m703.45 1604a12 12 0 0 0-6.73 0c-4-4-171.24 8-169.46-4.51 12.2-15.62 4.3-40.16 7.94-60.88a596.74 596.74 0 0 1 19.8-106.38c16.92-49.37 30-110.35 59-150.55 12.1-5.69 30.08-4 43.26-3.65 10.62-4.47 32.63-9.89 42.92-2.93-15.17 56.38-36.05 117.63-41.11 176.82-0.08 27.48-16.81 68-1.76 80.18 20.41-40.85 27.21-91.23 55.91-133.77 50.82-96.09 116.66-178.73 211.81-234.37 100.59-64.39-0.78 30-22.33 59.35-41.38 50.89-75.62 108.61-101.32 168.73-27 64.25-53.62 134.21-46.41 203.06 7.41 17.35-46.1 5.67-51.52 8.9zm-253.4 0c-48-0.24-106.24 0-154.63 0-8.2-2.7-0.09-18.28-2-25.5 1.58-32.64-5.14-64.11-6.33-96.6-2.89-43.55-10.13-87.15-18.81-130.16-79.24-85.54-157.64-160.52-258.36-192-10.6-12.22 15.74-5.72 21-5.32 70.18 1.76 137.67 32.57 194.33 60.34-9.49-55.89-53.8-106-86.31-152.15-17.3-25.94-48.56-49.32-66.36-74.3 14.75-5.47 32.74 13 42.4 18.37 256.61 157.64 277.44 602.2 280.14 407.14 0.18-110.4-10.81-195.84-34.36-315.1-7.73-52.18 42.82 65.13 50.4 70.14 9.09 21.56 28.1 37.86 32.5 61.29 0.44 4.35 4.68 4.55 7.85 5.67 6.92 5.83 11.57 14.71 17.55 21.66 29.85 35.45 35.6 43 35.66 90.87 0.84 44 3.47 87.78-0.64 131.59 2.15 38.13-16 83.68-2.18 118 6.34 12.6-48.68 3.37-51.85 6.06zm-228.86 0c-5.74-3.06-54.53 7.58-48.52-7.7-2.75-82-23.44-154.59-62.67-225-3.09-12.45-67.75-85.84-24.18-58.83 82.68 48.3 147.54 132.77 169.63 224.3 5 20.28 7.45 43.91 9.07 65.36 0.63 3.99-41.62 0.93-43.33 1.87zm498.56-381.06c-11.79-10.38-17.74-29.58-25.64-42.38-12.43-11.73-17.76-25.75-5.81-38.76 71.79-106.93 161.09-197.8 269.51-261.95-114.34 146.15-210.52 273.15-238.06 343.09zm-451.1-400.15c-67.28-107.55-139.88-221.29-233.36-315.52 3.36-5.69 15.44 6.55 18.81 7.45 45.9 30.64 174.9 114.78 184.77 164.91 1.35 12 7.91 24.3 6.22 35.48-2.51 12.82 12.84 25.48 11.34 40.38-0.89 20.51 22.72 51.97 12.22 67.3z" class="cls-5"/><path d="m686.8 1001.3c-33.4-10.44-14.37-63.26-3.78-82-5.86-16.25-5.77-32.64-8.09-49.13-1.77-12.09 8.55-15 16.1-20.39 32.85-28.65 34 50.68 31.57 76.84-1.59 9.37-7.72 15.19 0.1 22.92-4.51 19.17-12.55 46.9-35.9 51.76zm-486.8-26.29c-43.87-10.78-35.69-78-13.6-102.27-5.88-25.52-11.15-50.81 0.08-75.27 44.37-31.65 41.84 63.54 26.2 83.35 8.85 25.37 25.89 84.13-12.73 94.15zm429.14-140.31c-17.65-39.3 8.22-98.29 30.1-137.7 5.8-14.12 33.34-3.37 17.78 8.59-26.65 38.2-39.35 86.65-47.88 129.11zm276.52-151.81c-47.94-24.07-101-40-153-45.59-15.66-44.7 168.34 24.56 153 45.59zm-245.73-6.48c-8.21-4.11-13.15-9.23-22.54-10.35-5.74-3.29-21.12-1.69-22.15-6.87-1-13.44 20.08-40.84 35.44-38 9.57-0.15 4.76-15.61 12.82-17.54 15.72 15.96 12.94 55.47-3.57 72.76zm57.17-9.18c-14.78-20.76-10.17-91.53 14.56-103.22 12.23 28.28 9.08 83.05-14.56 103.22zm-122.21-16.62c-11.14-11.57-17.56-31-32.36-38-5.51 0.38-4.13-8.62-10.21-7.91-20.53 9.81-40.79 22-56 36-30.32-20.52 33.25-44.52 45.61-49.38 5.24-1.3 13.63 4 14.54-4.83-0.59-12.36 21.82-80.75 35.76-69.25 3.68 22.55 1.69 42.53-6.09 61.09a6 6 0 0 0 2.35 7.4c8.51 17.28 18.35 48.94 6.4 64.88z" class="cls-6"/><path d="m500.65 1290.9c-179.4-178.5-263.26-573.93-283.9-822.58-3.36-39.51-7.68-79.06-11.4-118.55 1.52-10-8.74-29.73 4.16-32.75 52.3 6.61 178.71 1.82 248.05 12.6 7.29 110.16 6.9 218.12 32 328.1 33.3 221.72 118.43 413.92 243.37 598.32 6 10-4.69 11.57-11.29 10.62-73 3.07-148.54 16.15-221 24.24z" class="cls-7"/><path d="m987.76 952.41c-1.69 18.92-30.91 15.81-26-7.31 0.65-16.83 28.45-10.3 26 7.31zm-3.54 182.75c2.59 6.44-5 9.56-8.22 13.88-11.22 11.34-22.61 22.5-33.53 34.13-19.14 22.64-38.4 45.52-56.7 68.85-19.32 31.66-41.37 62-58 95.12-22.34 47.45-45.22 95.47-57.25 146.94-4.53 22.84-7.27 45.92-12 68.6-2.13 10.11 1.42 20.39-3.09 30.07-1.14 2.46-2.47 2.22-4.41 2.35-2.24 0-2-1.67-2.18-3.25-2-16.89 0.89-33.37 3.9-49.88 6.1-50.58 21.22-99 42.36-145.39 37.95-95.07 102-178.89 171.89-252.47-113.4 58.81-191.71 143.12-250.24 256.16-32.29 56.74-54.42 119.54-56.6 185.17-0.57 5.09-0.46 13.57-7.07 13.17-4.82-0.25-3.28-9-3.66-13.19-5.34-44.79-0.67-89.64 5.72-134.06 7.59-58.43 20-115.87 41.39-170.86 2.87-5.88-5.42-4.54-6.27-4.54-36.11 2.48-33.89 3.36-43 34.36-19 47.41-27.12 98.56-36.65 148.68-4.36 42.35-7.61 85.79-8.16 127.85-12.23 39.34-6.16-71.62-5-76.14 6.6488-77.589 23.917-153.9 51.32-226.79 1.53-7.8-29.55 0.14-33.55 1.59-6.68 2.06-6.86 11.48-9.68 17.44-28.16 66-52.9 134.92-62.63 206.36-4.54 28.07-5.22 56.4-5.77 84.78-0.21 4.2-3.81 4.76-5.91 5.39-1.56 0-2.26-2.92-2.4-5.17-1.66-25.41 2.6-50.53 3.32-75.77 9.31-78.49 37.61-154.58 68.72-226.72 4.66-9.15-2.95-6.56-6.77-6.63-17.76-0.32-24.21 11.74-29.13 26.21-14.844 37.056-27.47 74.964-37.81 113.52-11.5 40.38-20.3 81.45-24 123.32-1.49 14.29-1.34 28.74-2.3 43.09-0.19 2.81 0.69 6.42-2.6 8.47-11.64-16.77-2.52-50.25-1.83-70.51 6.35-60.11 6.53-120.5 4.2-180.79-0.63-15.87-2.87-31.69-3.53-47.56-0.24-5.73-4.89-6.46-7.32-9.63-13.79-17.12-26.07-35.88-40.6-52.18 3.62 82.06 5.37 165.37 5.2 247.9 0.31 24.65-1.13 49.33-1.93 74-1.79 16.49 2.48 32.35-6.84 47.32-2-68.26 3.15-131.95 0.16-199.44-2.84-60.4 2-121.67-6.81-181.68-2.48-12.48-11.51-22.28-18.24-32.72-20.38-36.71-40-67.43-58.17-106.56 19.4 87.31 28.68 174.19 36.25 262.85 0.61 74.25-0.77 148.51 3.55 222.71 0.37 15.17 2 33.78-8.66 46.09-4.52-27.49-0.34-56.84-3.27-84.87-5.24-58.44-18.08-116.39-36.78-171.94-31.33-101.4-80.5-199.88-153.1-278.13-26.67-28.4-57.39-51.53-88.08-74.8-9.89-7.5-20.61-15.05-36.41-19.75 81.64 74.07 144.16 168.81 174.68 274.72 13.794 48.532 24.651 97.852 32.51 147.69 8 46.48 8.28 93.7 14.06 140.38 1.93 15-1.07 29.72-0.45 44.57-1.12 4.36-5.85 4-6-1.45 1.19-32.9-3.79-65.6-6.08-98.38-1.11-29.15-6.54-57.73-10.94-86.4-1.06-13.85-5-27.07-6.57-40.72-0.88-7.63-5.29-13.57-9.25-19.09-43.41-57.82-97.88-108.63-160.35-145.28-25.61-16.29-52-31.37-81.2-40.28-4.91-1.75-9.8-4.83-9.11-9.51 1-6.08 8.67-4.88 12.64-5 71.56-0.49 142.89 22.39 202.8 61.32-44-96.78-104.13-197-201.35-247.32 29.16-12.46 149.16 67.17 181.83 109-3.95-25.29-13.46-46.61-13.86-71.7-7-44.54-36.24-47.63-21.66-104.37 2.57-11.75 13.45-21.59 10.68-33.88-4.1-23.24-11.42-60 9-77.14 51.2-18.19 47 64 31 92.59-3.42 7.88 4.53 14.67 5.81 22.51 16.85 72-17.08 54.67-4.23 93 9.2 47.24 13.12 98.44 35.37 141.52 24.21 35 46.31 71.39 63.56 110.34 34.29 69.8 55.9 141.09 72 217.85 3-127.39-8-254.38-37.33-378.37-5.52-32.5-18.44-62.51-30.89-92.73-13-36.93-26.58-74-36.52-111.84-28.69-85.14-84.9-157.38-134.34-231.26-25.49-35.83-51.16-71.38-82.57-102.38-17.29-18.4-37.29-33.5-57.81-48.06-2.07-1.47-2.66-5-3.93-7.63 50.4 3 188.87 117 222.75 159-7.81-53.72-11.9-106.19-17.44-159.92-4.95-56.58-13.86-113.74-10.86-170.59 0.59-3.9-3.73-10.35 0.63-11.29 8.6896-1.7255 17.614-1.9184 26.37-0.57 35.56 3.17 150.75 9.4 201.55 11.44 11 0.47 22.11-0.14 33.15 0.25 4.49 0.15 2 4.76 2 6.35-0.12 59.82 5.86 119.69 10.79 179.19-0.09 6.93-2.83 12.21 10 11.09 30.1-2.26 56.52 22.36 69.64 47.89 4.32-18.54 16-33.6 24.4-50.34 6.26-12.5 10.77-25.91 19.36-37.19 9.37-15.42 44.56-41.13 58.24-19 4.21 8.68-2.1 15.27-6.05 21.21-12.93 19.43-30.67 32.95-53.7 38.79-5 0.18 1.9 20.55 0 25.57-0.77 10.09-1.4 21.27-6.14 29.7-5.67 10.08 2.84 13.88 5 20.34 6.34 19.37 7.88 38.92 3.92 58.92-0.2 1-2.73 3.62 0.95 3.14 3-0.38 7.27 2.49 8.75-1.65 5.65-15.77 14.71-29 29.63-36.76 6.39-2.92 23.16-13 14.42-20.82-16-23.88-22.92-59-5.34-83.35 10.31-17 40.3-15.82 39.65 8.57 1.06 27.46-11.84 51-20 76-1.55 4.74 2.87 11.53 4.79 17.29 6.78 20.26 4.06 39.51-6.41 57.76-1.33 2.32-1.32 4 0.31 4.89 3.16 1.69 2.89 6.49 8.19 6.67 9.72 0.33 19.25-4.84 29.07-0.52 11.09 4.88 6.15-4.27 5.34-7.22-3.82-13.85-2.54-28.13-4.4-42-1.95-25.4 0.76-52.82 18.05-72.86 6.06-6.3-1.76-12.36-2.83-18.33-4.73-33.15-29-86.47 9.63-105.89 8.52-3.92 17.46 0.85 24.57 7.5 29.64 31.11 10.35 84-15.75 111.27-8.2 8.41 0.63 17.94 1.72 26.83 2.05 16.62 2.49 32.94-1.81 49 10.78-4.45 15.17-12.05 15.67-24.26 7-58.89 90.75-65.52 126.8-29.12 22.2 18.42 41.63 40.2 53.79 67.38 14.7 29.71 31.39 58.9 37.25 92 0.23 1.57 0.71 3.72-1.81 3.8-18.11 0.59-35.41 5.18-52.75 10-47.37 11.73-96.84 29.67-145.89 18.42-17.95-10.22 5 13.47-25.31 41.08-9.8803 10.417-20.827 19.769-32.66 27.9-4.34 3 1.58 7.57 3.07 10.66 17.62 39.25 18.34 114-11.24 146.55-24.53 24.29-23.76 57.59-35.59 86.27-3.79 9.18-5 19-9.23 28.25-3.77 8.27 4.35 15.29 7.85 22.77 11.58 24.75 15.18 2 19.36-3.73 20.34-27.68 40-55.84 62.29-82.08 55.83-65.06 122.42-120.6 194.06-167.56 6.29-4.12 13.44-7 20.32-10.12 4.57-2.1 7.93 1 10.33 3.83 1.168 0.94457 1.168 2.7254 0 3.67-22.79 21.54-42.5 46.12-62.64 70.12-75.69 80-136.91 172.27-185 271.27-6.15 11.63 4.3 19 8.78 27.88 10.07 20 7.07 26.34-16 25.4-13.77-0.55-15.19 7.14-18 15.79-27.75 75.13-38.2 155-46.47 234.27 13.34-62 43.67-117.61 76.75-170.94 28.67-54.24 69.41-100.19 115.68-140.12 22.38-18.65 110.39-85.9 135.12-77.39zm-393-623c1.57 2.78 3.49-0.81 5.3-1.32 22.44-6.31 39.26-19.41 50.73-40.12 5.25-9.48 1.52-10.06-10.42-9.33-20.42 4.07-40.75 30.54-45.63 50.74zm-348.33 758c-8.33-16.82-7.15-37-25.39-50.65-61.72-44.4-131.4-56-206.22-63.51 105.45 37.47 183.75 103.65 250 187.11-2.29-11.21-3.61-22.18-6.9-32.53-3.16-10-2.84-21.94-10.94-29.4-27.23-24.83-56.35-48-88.15-66.67-9.13-5.35-19.1-9.3-26.85-17 45.82 12.43 79.49 43.73 114.37 73-0.21 0.71 0.25-0.01 0.06-0.4zm-49.69-386.25c0.88 3.82 3.27 7.3 5 10.94 17.49-18.21 23.79-50.39 21-75.64-2.37-15.79-18.2-34.21-29.2-19.79-12.32 26.94-3.16 57.24 3.2 84.49zm9.11 86.7c26.71-10.89 17.26-57.79 10-79.5-5.65 6.11-9.69 17.63-19.31 13.08-5.24-2.48-6.56-13.25-9.71-20.42-17.19 18.99-15.06 88.43 19.02 86.84zm32.05 141.32c-9.9-45.47-18.57-81.84-23.15-126.6-1.83-15.28-10.88 5.3-13.65-3.27-5.68 1.14 1.5 28.17 1.68 33.84 3.67 19.5 9 38.76 11.47 58.39 2.04 15.89 17.1 21.08 23.65 37.64zm456 57.41c2.16 2.09 3.53 5 5.26 7.52 16.67-23.28 27.79-50.23 48.16-71 1.25-1.34 1.11-5.47 4.18-3.74 0.75 0.42 0.07 5.11-1.17 7.07-10.23 16.14-20.87 32-31.12 48.14-5.15 8.11-13.13 16.29-13.83 24.93-1.12 14 13.1 22.64 18.1 36.67 58.34-128.67 144.41-235.37 239.74-335.55-80.04 46.62-148.68 110.18-208.54 180.36-21 25.25-40.18 51.79-58.59 78.93-5.87 8.65-12.39 16.76-2.2 26.67zm-2.36-161.76c-2.39-4.16-10.45-1.24-14.33-7.29-6.89 21.1-15.51 41.59-24.13 62-7.32 16.08-7.18 32.89 6.56 45.14 7.65-29.57 16.78-58.81 28.39-87.14 1.7-4.16 5.06-10.01 3.51-12.71zm-169.18-268.66c-0.8 0.3-2.19-1-3.82-1.81 21.94 116.34 60.9 228.19 117.54 332.26 1.92 3.24 6.28 6.63 6.49 0.24 6.32-17.62 12.69-35.23 19.33-52.73 3.17-8.35 10.58-17 9.57-24.59-1.47-11.14-5.88-21.5-3.28-33.51 2.89-13.35 4.61-26.79 13.44-38 0.88-1.12 1.13-3.87 0.37-5-8.27-14.21-6.44-30.81-7.78-46.37-10.39 5.88-19.68 13.47-29.58 20.11-2.58 1.75-5 4.23-8.85 1.28-26.73-27.15-50.72-57-75-86.48-11.2-13.67-17-30-22.69-46.63-2.56-7.4 6.38-26.91-15.74-18.77zm199.82 210.68c-22.89 11.75-24.58-6-37.52-19-0.90488 0.24224-1.6447 0.89326-2 1.76-2.25 13-8.35 25.31-6.49 39-0.24 12.08 7.26 34.6 22.76 22.25 13.93-10.89 19.61-28.29 23.25-44.01zm-8.15-94.73c-1.43-3.32-1.5-12.15-9.87-6.47-7.2 6.52-23 9.22-21.73 21.24 3.58 25.94 2.2 58.77 27.85 74.2 22.7-11.13 12.18-69.67 3.75-88.97zm54.9-238.36c69.78 12.17 138 38.58 188.07 90.78-21.66-48.49-44.34-101.21-92.29-129.15-32.88-20.68-81.15-13.49-96.55 25.13-1.89 4.29-4.57 11.35 0.77 13.24zm-11 17.1c23.05 5.35 47.77 5.61 71.09 12.78 28.3 7.52 53.4 21.14 80.18 32.49-36.14-23.8-75.66-42.81-118.66-50.18-10.82-2.7-24.73-7.49-32.61 4.91zm-26.66 29c-24.34 46.39 15.27 106.73 67.66 103.39 56.35-1.21 109.51-21.35 164.71-29.77-33.1-42.05-85.39-65.14-135.34-81.83-25.38-6.8-50.92-10-76.25-12.14-13.51 0.44-17.27 12.15-20.78 20.31zm3.27-114.54c0.42576 1.6135 0.96716 3.1943 1.62 4.73 20.93-18.94 35.51-60.85 24.25-88.27-7.39-17.76-22.22-22.67-31.87-10.11-15.52 28.41 2 63.85 6 93.65zm-15.12 113c0.24 1.4 1.38 3 2.77 1.31 17.47-28.91 18.5-62.12 11.83-94.6-21.9 25.95-16.97 62.22-14.63 93.32zm-22.78 31.93c-20.66 20.79-31.45 48.8-42.79 75.49-13.56 33.51-15 69-15 104.63-0.05 2.54 1.51 5.11 2.33 7.66 34.51-27.12 75.24-46.07 106.19-77.53 42.34-48.68-31.45-34.09-33.58-109.24 0.87 2.48 0-0.62-0.23-0.57-5.73 1.19-11.75-5.75-16.92-0.44zm-30.36 6c-23.31 39.25-39.68 85.5-33.6 131.76-1.55-45.18 22.36-87.6 43.55-126.17 1.58-2.86 8.1-5.48 3.66-8.62-3.35-2.45-10.19-3.24-13.61 2.96zm-3.53-105.24c1.14 2.76 2.94 0.28 3.34-0.82 8.22-23.14 20.55-45.14 18-71.21-0.59-9-8.19-11.29-15.48-8.11-16.11 7.61-14.94 23.33-18.12 35.76 1.25 16.44 6.56 30.45 12.26 44.31zm0.72 78.71c10.67-21 12.92-42.72 3.72-64.77-16.04 48.53-16.51 58.1-3.72 64.7zm-34-13c6.1-0.21 12.31 3.07 18.79 4.87-3.9-12.91-1.05-25.38 1.73-38.23 1.41-2.78-1.14-1.56-2.3-0.92-10.23 5.65-16.34 15.28-22.64 24.47-2.51 3.52-7.08 10.1 4.42 9.71zm-70.24 23.87c-13.64 11.26-14.63 26.83-14.92 43.33-1.85 62.09 47.75 99.28 84.2 143.91-13.75-59.4-5.39-125.58 31-175 10.87-12.1 2.65-14.29-5.57-18.43-12.29-6.2-25.06-10-39.06-10.31-20.48-0.6-39.55 3.16-55.65 16.4zm30.73-94.09c-30 39.69-9.41 13.86 8.47 57.45 2.36-21.34-0.73-39.77-8.47-57.55zm-24.32 19.37c22.78-26 32.19-54.19 26.23-90.7-17.5 29.21-33.23 55.45-26.23 90.7zm-9.49 4c-20.57 6.68-39 17.11-53.58 33.46-1 1.1-4.38-1-3.28 3.63 4.57 19.2 6.86 39 12.79 57.78 2.29 7.22-4.24 22.78 14.75 21.39 6.29 2.21 7.61-1.24 8-8.54-2.06-33.57 26.21-56.58 56.68-61.35 3-0.68 2.75-0.61 1.92-3.74-1.06-9.72-27.67-45.9-37.28-42.58zm-52.26 19.78c9.08-9.62 19.93-16.29 31.87-21.7 5.88-2.67 14.07-3.2 14.81-13.1-1.43-11.41-49.11 21.27-53.82 26.48-3.76 3.13-0.7 8.83 1.73 11.75s4.13-2.02 5.41-3.38zm-21.35-99.66c4.9 27 4.61 55.89 12.24 81.9 15.225-12.064 32.403-21.433 50.79-27.7 6.19-2.23 10.82-3.23 7.18-12.59-11-28.31-31.88-42.69-60-48-4.15 2.23-11.46-3.17-10.21 6.39zm-210.37 286c-3.23-15.74-9.63-33.31-13.63-49.26-3.19-12.33-3.1-26.26-9-37-22-39.94-58.3-71.39-83.75-108.17 14.39 6 23.41 20.3 33.75 31.11 16.41 18.19 30.91 38.09 46 57-2.36-10.64-4.78-21.33-7.08-32-1.29-6-0.31-14.1-3.91-17.73-58.32-59.6-120.14-110-192.55-153.07 100.23 90.38 164.62 201.06 230.19 309.17zm287.77 472.56c-16 0.53-31.94 3-47.89 4.76-2.85 0.31-4.35 1-3.82 5.07 7 53.17 3.94 104.9 4.37 158.66 12.27-55.62 30.48-105.19 49.31-158.16 0.5-1.46 9.31-10.63-1.95-10.28zm169.49-28.62c1.31 0 7.14 1 3.63-4.49-39.88-61.68-77.11-125.24-112.38-189.6-53.72-96-87.06-201.34-110.91-308.29-20.23-96.88-41.48-193.98-45.23-293.3-1.43-42.72-6.69-85.44-5.56-128.15 0.56-4.7 0.49-8.58-6.85-8.06-9.59 0.68-19.31-0.28-29-0.77-69.69-5.8-140.12-3.26-209.54-9-1.78 0-3.12-0.15-2.84 2.6 0.88 8.57 1.24 17.19 2.06 25.76 9.69 98.81 18.78 197.9 32.14 296.2 24.88 136.07 63.87 270.21 114.5 398.72 33.9 80.75 79.35 156.33 131.33 226.72 5.34 7.8 8.7 14.94 21.21 12.32 16.56-3.47 33.8-3.61 50.71-5.51 55.48-6.61 110.9-13.83 166.75-15.1zm75.63 60.78c12.59-17.81 23.6-36.79 36.93-54-4.16-9.64-25.94 25.09-29.2 29.08-60.89 87.72-112.25 192.82-112.53 301.46 0.14 3.14 1.66 3 4 3.41 2 1.24 2.08-0.34 2.34-1.71 0.61-3.28 2-6.63 1.86-9.89 5.72-96.4 44.78-187.89 96.6-268.35zm-452.42 229.26c0.91-75.64-9.14-151.44-33.4-223.2-7.51-26-17-51.16-26.53-76.31-12.48-29-21.53-62.73-42.47-86.63 63.3 155.49 102.64 260.77 96.21 433.42-1.12 5.86 7.63 6.46 6.15 0 2.99-15.93 0.86-31.4 0.04-47.28zm-127.51-110.94c-41.89-69.04-107.59-134.12-185.59-155.24-3.92 2.06 10.78 10.77 12.46 12.8 56.69 52 87.33 127.05 107.09 200 7.95 32.37 10.94 65.32 15.48 98.19 0.11 2.52 3.28 4.85 5.19 2.46-0.14-104.56-38.69-207.41-102.73-290.26 86.76 48.37 154.23 131.1 178.06 227.91 4 18.42 7.6 36.71 7.6 55.64 0 3.58 2.48 7.19 3.72 10.58 16.01-43.48-19.28-122.72-41.31-162.08zm-1.81 113.06c-10.58-50.77-23.95-102.11-56.14-144-1.44-2.08-3.28-4-4.78-2.86-1.89 1.39 0.35 3.52 1.36 5.26 16.62 26.89 27.83 56.39 37.48 86.53 4.54 15.35 9.5 30.75 12.78 46.3 3.43 16.25 3.28 33.28 4.37 50 0.22 3.17 2.36 4.24 4.72 4.53 2.79 0.34 1.5-2.66 1.42-4.15-0.31-13.87 1.42-27.8-1.23-41.61z" class="cls-8"/></g></g><path fill="#fc1c25" stroke="#000" stroke-linecap="square" stroke-width="4" d="m0 1.3e-4v1600h976v-1600zm96 48h784c26.592 0 48 21.408 48 48v1408c0 26.592-21.408 48-48 48h-784c-26.592 0-48-21.408-48-48v-1408c0-26.592 21.408-48 48-48z"/></svg>