<?xml version="1.0" encoding="UTF-8"?>
<svg version="1.1" viewBox="0 0 976 1600" xmlns="http://www.w3.org/2000/svg" xmlns:cc="http://creativecommons.org/ns#" xmlns:dc="http://purl.org/dc/elements/1.1/" xmlns:rdf="http://www.w3.org/1999/02/22-rdf-syntax-ns#">
 <metadata>
  <rdf:RDF>
   <cc:Work rdf:about="">
    <dc:format>image/svg+xml</dc:format>
    <dc:type rdf:resource="http://purl.org/dc/dcmitype/StillImage"/>
    <dc:title/>
   </cc:Work>
  </rdf:RDF>
 </metadata>
 <defs>
  <style>.cls-1{fill:none;}.cls-2{fill:#fff;}.cls-3{clip-path:url(#clip-path);}.cls-4{fill:#0055e1;}.cls-5{fill:#0055e1;}.cls-6{fill:#50b271;}.cls-7{fill:#ffb85a;}.cls-8{fill:#000;}.cls-9{fill:#fc1c25;}.cls-10{fill:#000;}.cls-11{fill:#000;}</style>
  <clipPath id="clip-path">
   <path class="cls-1" d="M960,22V1578a6,6,0,0,1-6,6H22a6,6,0,0,1-6-6V22a6,6,0,0,1,6-6H954A6,6,0,0,1,960,22Z"/>
  </clipPath>
 </defs>
 <g id="Paper_Backing" data-name="Paper Backing">
  <path class="cls-2" d="M960,22V1578a6,6,0,0,1-6,6H22a6,6,0,0,1-6-6V22a6,6,0,0,1,6-6H954A6,6,0,0,1,960,22Z"/>
 </g>
 <path class="cls-4" d="m477.66 1283.4c-12-1.76-30.93-0.26-39.17-9.12-0.19-6.56-9.72-4.13-9.31-11-1.12-24.23-2-50.86 1.3-74.37 11.25-0.66 15.06-12.81 27.37-12.31a234 234 0 0 0 93.19-4.91c11.47 0.71 12.3-15 22-14.79 15.55 3.39 31 12.35 46.94 11.44 28.07 4.17 14.83 45.16 20.64 64.87 0.1 5.82-9.94 7.44-14.51 7.58-17.32 8-36.8 8.42-56.72 10.09-11-1.47-20.75 11.26-31.72 9.72-17.67 8.4-37.45 25.52-60.01 22.8z"/>
 <path class="cls-4" d="m924.18 1236c-82.72-6.55-184-11.84-242.11-74.18-47.56-62.74 58.51-71.13 94.57-88 7.69-13.36-16.6-16.07-25.72-17.75-5.59-4.07-2.86-13.25-13.95-10.84-30.59 3.58-35.33 9-22.5-24.32 0.23-24.39 97.12 17.95 111.6 26.88 60 67.75-219.77 45.39-91.5 115.4 69.43 29.41 146.43 38.04 220.43 22.35 7.59 1.4 22.71-12.64 25-3.06-0.72 68.15 11.41 47.46-55.82 53.52zm-713.78-150.31c-70.81-5-140.63-17.74-210.95-26.57-8.26-3.75-0.79-27.34-3.45-34.07 2.06-11.32-7.72-40.53 15.12-25.56 53.63 23 110.48 34.08 167.3 45.59 9.42 3.21 22.46 0.56 30.08 6.54 0.2 3.88 1.45 8.54 6.29 8.44 29.73 0.73 76.79-22.94 35.71-49.38-10.22-4.38-8.85-16.28-17.61-18.5-7.8 1.49-13.71-8.69-15.26-14 4.44-30.21 59.15-35.15 88.88-36.84 23.26 4.18 116.26 1 106.25 35.23-8.16 8.22 6.78 26.65-11 26.8-43.08-6.37-80.3-20.84-116.76-8.26-6.28 11.58 7.28 22.92 13.45 32.09 35.7 56.03-53.33 58.64-88.05 58.49z"/>
 <path class="cls-7" d="m721.65 1604c-23.83-74.32-77.44-150.15-102-226.06 5.68-19 48.37-30.09 63.48-28.38 30.4 36.37 34 91.78 65.69 129.14a6 6 0 0 0 6-5.23c4.47-35.46 9.53-70.18 12.9-105.18-2.05-60.15 30.44-55 77.18-42.67 16.39 8.36 5.18 33 4.51 48-12.34 65.82-22.89 136.69-34.78 203.1-1.24 7.84-3.59 15.71-1.37 23.32 3.49 9.21-89.39 1.58-91.61 3.96zm-215.82-291c-13.14-2.89-42-3-33.09-23.57 5-4.93 14.08-2.39 20-0.85 7.09-3.35 15-6.77 22.53-8.58 15.29-2.34 8.45 36.86-9.44 33zm80.17-30c-15.15 1.61-23.4-28.74-7.74-29.76 14 4.37 51.81-18.29 46.37 10.48-3.09 8.28-13.88 9.41-21 10.07-6.63 1.37-10.71 10.82-17.63 9.21zm-64.79-736.26c-51.43 2.44 38.11-46.88 55.41-46.07 9.36 6 19.06-3.71 28.88 2.47 4.79 0.35 6.79-7 11.62-5.75 6.13 3.67 10.27-5.31 16.89-2.95 6.22-1.07 7.82-10 15.65-5.8 5.1-1 7.68-6.43 13.88-5.3 6.71-0.7 6.76-10.42 14.76-10.14 7.44 0.55 3.68-10.05 9.87-10.42h55.29c15.6 13.06-25.16 12.11-25 22-5.93 16.4-24 7-30.14 19.34l-11.68 5.48c-3.26 0.84-7.39-1.29-9.57 2.62-7.49 6.45-19 5.28-27.12 8.71-3.25 3.27-10.95 5.4-15.78 6.79-3.58-0.8-6.49-3-9.59 0.17-6.49 7.38-17.55 2.05-24.94 4.44a30.46 30.46 0 0 1-35.87 2.21c-11.18 5.22-21.01 13.37-32.56 12.2z"/>
 <path class="cls-8" d="m922.4 1604c-5.35-5.2-115.49 8.49-117.16-5.13 0.09-4.77 7.71-3.92 7.4-9.25-0.35-8.75 3.85-16.31 5-24 8.43-55.71 17.08-113.32 26.34-164.94-2.13-29.06 40.15-15 58-17.58 24.74 4.4 57.88-1 78 9.95-3.7 4 7.24 211.72-4 210.91zm-568.19 0c-6.17-7-345 13.81-329.52-7.92 141.85-33 279.6-91 425.23-130.87 59.76-16.6 118-37.59 178.77-50.48 10.93 1.68 17.15 28.63 24 38.1 23.6 47.93 41 102.69 72.95 145.31 4.45 16.51-367.37 0.41-371.43 5.86zm395.56-124.49c-5 0-18-33.49-18.56-37.12 0.77-7.43-11.44-11.94-10.4-19.74-22.26-34.34 12.83-27 33-33.29 22.48-4.45 1.85 31.4 7 41.46-6.19 13.06-0.3 39.25-11.04 48.69zm-749.77-1009.7c-11.09-42.9-0.38-140.06-4-187.11 63.68-71 153.61-130.08 199-219.92 14.8-22.84 35.8-45.68 56.13-66.76 2.54 3.2 112.79-6.26 109.87 4-13.59 48.42-34.74 75.13-75.66 100.15-12.05 64.67-91.73 71.6-119.76 129.77-75.1 95.2-8.3 37.21 49.71 25.36 29.89-9.3 72.76 9.55 12.53 11.65-54 14.47-100.47 52.78-147 82.57-42.82 24.24-55.11 83.5-80.82 120.29z"/>
 <path class="cls-9" d="m435.47 1184.9c-163.4-64.46-144-36.24-52.34-123.67 16.48-23.17 24.33-9.57 25.86-43.29a972.18 972.18 0 0 0 7.56-139.83c0.71-15.54-5.05-50 10.38-69.23a6 6 0 0 0 6.31-4.87c4.18-17.4 28.62-30.3 41.07-41.81 17.13-24.29 20.31-7.6 41.16-2.83 15.22 7.41 25.15-25.18 38.11-15.45 6.53 0.88 6.23 8.53 12.38 9.1 14.74 1.49 27.3 14.86 39.47 21 30.79 6.34 15.7 73.09 43.78 52.42 2.09-0.94 3.48-0.79 5.31-1 7.64 5.46 12.47-3.2 19.84-4.24 4.27 3.38 9.59-0.39 13.28 2.79 6.94 5.63 4.18 26.26 16.79 22.45 30.81-13.67 13.2 183.72 0.69 196.28-6 36.41-55.2-33-65.53-43.81-30-17.88 3.58 144.77 5 161.92-23 11.35-59.85-13.2-79.71-1.12-0.52 6.58-9.84 9.45-16.31 6.5-30.84 5.22-64.3 8.82-94.81 4.52-8.12 1.34-8.76 15.58-18.29 14.17z"/>
 <path class="cls-6" d="m196.58 1463.2c-10 2.44-39.33-12.16-21.67-21.12 12.37 3.56 25.27 1.52 35.72-6.64 7.05-9.23-29-49.8-32-65.59-4.52-10.73-6.48-23.13-21.33-18.85-34.76 0.56-48.32-30.73-51.55-61-1-7.56-8.18-27.31 1.79-28.55 20.27 0.78 11.72 36.67 24.51 48.48 40.42 38 37-18.47 22.33-43.72-7.4-14.66 8.35-27.86 15.24-39.33 9.24-21 32.57-14.88 51.56-16.77 8.84-0.86 5.47 15.54 15.92 11.79 3.16 0 5 1.78 6.52 3.22 21.08 23.83 21.35-10.89 8.23-24.47-3.48-6.56-10.38-10.22-10.73-19 5.16-29.69 33.64 26.46 43.62 32.84 8.3 11.67 0 27.24-5.93 38.76-5.91 15.88 21 33.35 24.7 50.43 9.08 18.17 15.57 37 23.15 55.6 6.16 17.64 27 3.39 39.06 21 13.05 8.62 31.53 66.77 3.28 47.28-18.41-20.4-47.67-18.69-70.42-25-32.82 9.48-64.3 58.69-102 60.69zm621.76-992.79s-24.425 22.4-34.625 22.4c-5.35 2.6-11.81 0.83-14 7.73-13 12.7-30.93 13.27-43.6 23.11-20.72 11.28-27.63 4.38-39.31 16.16-10.72 2.55-22.49 11.6-33.59 8.32-11.25 7.47-24.94 12-38.14 10.95-11-1.26-26.24 13.68-38.92 5.89-15.63-7.36-13.37 17.31-60.16 4.66-14.44 9-34.26 1.2-50.91 4-13.6-13.75 34.15-29.42 47.45-27.69 40.15 10 29.56-8.44 64.2-5.93 11.94 7.8 22-12.37 35.79-5.91 8.59 3.3 13.87-10.75 23.52-8.48 10.22 3.46 11.18-3.6 20.79-6.88 6-2.24 10.41-4.45 16.37-2.78 8.84-4.13 15.74-15 26.41-12.2 9.83-4.73 17.91-18.91 30.63-18.61 3.55 0.55 7.25-1.46 7.63-5.29 14.25-26.69 72.06-15.41 72.06-15.41z"/>
 <path class="cls-8" d="m137.58 986.09c-44.92-48.16-61.07-132.71-61.7-199.31-0.73-89.24 40-174.84 73.37-256.79 109.59-258.73-53.37-234.09 116.52-267.8 4.46-14.44-23.14-6.09-32.11-12.42-11 3.36-22.62 4.93-34 9.11-4.91-1.25-8.95-1.41-12.6 2.6-9.57 1.15-68.39 40.3-49.43 11.41 21-29.38 37.22-62 77-66.53 4-0.38 7.91 5 11.7 0.51 9.76-8.76 25.82-5.32 38.86-7.56 5.1 3 8.56 2.27 13.53-0.4 11.65 0.13 23.36-0.9 33.21 4.46 103.37 1.91 153.69 116 159.26 204.7 4.45 28.75-4.19 48.54-27.61 18-6.67-5.43-25.87-42.6-32.28-20.8-4.5 139.82-14.71 281.32-53 416.92-6.3 10.82-6.51 32.26-15.46 35.5-12.77 1-19.37-10-24.49-21-26.58-40.44-38-92.41-43-140.4-5.18-124.84-50.94 38.52-64.73 73.7-11.14 43.57-26.74 97.61-38.2 140.1-10.42 23.09-13.28 66.61-34.82 76zm799.17-50.7c-80.19-81.39-51.17-334.78-114.03-461.28-2.3807-4.7912-14.965-4.8262-12.78-9.71 8.7023-19.455-27.71-100.85-31.24-114.49-0.95-7.57-6.75-23-14.77-12.42-39.72 66.68-43.12 87.27-103.44 24.64-28.29-25.3-52.26-58.07-76.18-87.34-39.54-60.45-29.93-21.88-44 21.55-5.56 9.73-2.51 25.25-18.36 22.88-14.81-9-34.85-30.13-48.12-45-52.32-56.28-92.63-125.4-123.67-195.46-22.98-28.47 17.04-55.71 2.84-78.76 60.25-9.58 317-1.47 376.6-4 23.71 5.67 72.34-13 89.5 16 66.9 60.71 116.9 141.27 146.35 227.07 23.66 6.83 12.55 505.21 14.47 533-6.64 32-18.44 89.45-27.55 127.09-2.77 15.94-2.18 30.02-15.6 36.23z"/>
 <path class="cls-10" d="m976 1386.2c-39-9.46-79.84-11.66-120-11.29-1.27 0-3.88 1-3.43-1.9 1.11-7.12 1.41-14.55 3.89-21.36 13-31.09-23.73-32.95-44.43-37.52a59.72 59.72 0 0 0-32.8 1.91c-11.12 3.85-9.18 14.56-11.29 24.12-3.39 7.07-1.53 44-9.87 40.74-11-1.59-21.3 2.9-32 3.53-5.72 0.35-12.89 5.71-16.63 1.22-5.63-6.77-9.27-15.38-12.89-23.79-2.52-5.87-1.44-15.42-10.8-16.88-16.12-4.81-73.29 14-72.31 32.21 0.42 9.51 3.87 19.43 11.13 26.55-206.33 54.91-404.75 128.44-608.17 192.55-1.39 0.47-4.36 0.75-3.21 3.31 0.74 1.24 3.15 1.43 4.64 1.41 40.53-8.63 80.46-20.09 122.29-22 50.31-3.48 100.49-9.13 148.89-23.84 83.78-19.88 166.52-44.18 251.16-60.33 33.41-6.77 66.5-14.92 99.65-22.76 5.5-1.19 13.59-7 16.54-1.24 10.92 22.13 21.24 44.83 30 67.91-68.73-12-140-10.76-207.38 8.84-44.38 15.31-93.42 25.78-132.59 51.21 2.58 1.47 4.94 2.83 7.72 1.28 30.27-13.21 61.53-23.57 93.05-33.36 73.37-22.57 152.53-36.78 228.57-21.17 6.54 1.92 15.44-1.42 19.69 9.07 5.76 14.22 14.19 27.35 21.26 41 1.21 2.35 3.05 2.11 4.87 2.55 2-10.58-4.32-20-8.67-29.13q-42.68-89.55-86.94-178.34c-0.8-1.64-2.91-4.87-0.59-5.19 3.63-0.49 9.23-2.93 11.26 1.21 15 30.55 29.47 61.4 44.21 92.1q27.72 56.51 54.38 113.55a7.7 7.7 0 0 0 6.93 4.22c9.92 2.1-24.88-56.76-26.55-63.63-24.92-49.58-48.45-99.86-73.35-149.42 4.87-1.15 11.35-7.75 14.53-0.88q14.07 29.83 27.9 59.79c23 49.77 45.42 99.77 68.44 149.47 0.65 2 3.53 3.27 5.38 4.88 1.08-2.18 5.67-2.36 4-5.94-32.43-71.07-67.3-141-100-212-0.52-1.12-3.25-3.52-0.27-3.45 3.58 0.08 7.08-6.69 9.79-1.44 36.56 71.71 65.41 147.27 104.26 217.78 4.4 12.4 13 5 6.59-4.21-34.73-72.53-70.16-144.74-104.9-217.25-2.14-4.67 5.76-5.26 8.42-8.37 0.71-0.84 1.53-1.79 2.41 0.27 32.41 76.07 65.87 152 106.53 224 2.84 5 6.77 12.63 13.77 12.63 9 0.34 6.5-9.4 8.33-15.15 1.3-3.26-1.78-11.14 4.92-9.9 10.54 2 20.66 6.12 31 9.2 21 6.21 42 12.21 62.83 18.71 2.41 0.75 5.09 2.38 6.25 0.33 0.32-8.57-35.33-16.19-43.23-20-74.42-24.63-59.23 3.8-48.36-75.31 3-18.74 5-37.65 8.51-56.28 0.61-3.22-1-10.94 4.52-10.33 23.58 2.59 47.23 4.61 70 12.62 16.84 5.93 34.51 9.51 51.86 13.94 3.17 0.94 8.25 1.54 8.51-2.8 0-2.52-3.45-4.09-5.84-4.82-24.27-7-47.23-17.27-72-21.89-16.22-3.5-32.83-5.92-49.64-4.31-2 0.19-4.27 0.5-3.79-2.8 1.35-9.09 1.43-18.55 4.47-27.28 1.87-5.35-2-15.48 9-15.66 15.07-0.26 30.19-0.91 45.21 0 23.59 1.38 47.1 3.92 70.65 5.9 5.41 1.62 9.26-3.21 3.72-6.79zm-346.59 32.5c1.26-0.23 3.73 3.86 5 6.29 5 9.86 9.55 20 14.78 29.76 5.38 10-6.12 7.3-7.3 7.51-41.72 10.38-84 18.08-125.89 27.93-96.67 19.78-190.81 50.42-287.59 69.51-21.3 4.22-43 3.73-64.23 8.49-11 2.46-22.94 4.69-37.26 1.75 92.32-25.57 180.59-57.18 271.76-85.58 77.04-21.2 152.79-48.05 230.73-65.66zm49-60.4c-14.42 9.36-29.73 16.73-47.07 18.44-2.57 0.25-6.45 5.19-7.79 0.19-1-3.72 4.36-4.86 7.23-6.72 17.77-10.83 35.73-18.53 51.92-16.64-1.43 1.6-2.57 3.61-4.3 4.73zm100.9-31.54c5.71-8.44 70.75-3.11 69.24 8.33-6.55 9.6-65.79 0.13-69.25-8.33zm-24.52 114.19c-1.63 11.17-3.24 22.34-5 34.59l-14.7-32c3.15 0.06 20.84-7.22 19.69-2.59zm-0.09-8.1c-5.89-3.3-11.61-0.67-17.52 0-14.59 1.61-10.33-13.09-15.78-19.51-9.95-11.72-0.77-15.07 9.2-16 47.81-6.12 24-12.65 26.2 33.83 0.04 0.54-1.8 1.86-2.11 1.68zm9.23 65.49a8.32 8.32 0 0 1-1.12 2.41c-2.65-2.16-7.35-10.67-5.75-13.49 6.88-51.14 12.81-99.58 18.08-150.18a3.31 3.31 0 0 1 1.47-1.78c3.64 1.89 10.44 4.25 10.27 5.88-1.67 16.53-4.44 32.95-7 49.38-5.46 35.89-12.39 71.65-15.96 107.78zm14.19 36.09c-13.13-18.9-4.92-38.45-1.35-58.08 3-28.49 8.44-56.88 11.68-85.29 1-14.62 3.54-28.88 5.81-43.25 0.75-4.79 3.37-5.48 7.48-4.44 5.44 1.37 6.63 5.67 4.72 9.54-13.03 59.54-17.23 121.41-28.35 181.52zm14.75 29.48c-12.22-20.64-2.74-39.58-1.18-58.26 1.43-17.08 5.84-33.91 7.13-51 3.71-34.27 12.05-67.59 14.27-102 0.3-2.59-1-6.58 2.18-7.25 8.51-0.67 13.77-0.92 11.09 10.09-2.33 13.66-5.09 27.24-7.37 40.9-9.47 56.5-17.63 110.32-26.13 167.52zm46.32-153.94c-11.94 59.48-20 119.45-30.26 179.21-13.51-11.54-7.09-25-5.33-37.65 2.89-20.72 6.2-41.4 9.5-62.07 4.63-29 9.95-57.93 14-87 1.89-13.05 0.8-26.54 5.88-39.1-2.34-17-0.2-17.79 14.82-19.65 1.89-0.28 2.3 1.42 1.59 5.53-3.49 20.21-6.49 40.56-10.21 60.73zm138.63-199c0.5 3.06-2.38 3-4.38 3.29-10.53 1.61-20.07 4-32.43 4.47-53.07 0.74-106.43-2.83-156.83-20.76-1.68-0.64-4.57-2.41-4.45-2.74 0.88-2.34 3.18-2.71 5.4-2.28 52 11.89 104.84 17.13 158.1 18.26 6.2 1.82 34.23-5.71 34.58-0.18zm-337.58-1128.8c-0.43-2.34-1.65-4.87-1.17-7 3.13-20.89 13.31-51.92 7-71.74-2-2.76-0.18-4.77 1.83-5.91 2.21-1.63 3.82 0.91 4.86 2.54 7 11.05 17.07 16.56 29.83 19.22a368.07 368.07 0 0 0 55.7 7c2.11 1 5.67 1.34 5.41 3.43-4.3 8.85-41.45-0.53-51.89-0.84 24.51 25.64 35.73 28 69.22 34.08 4.77 1.25 13.24 1.58 14.64 7.1-1.39 5.92-39.8-5.35-45.75-6.65 20.67 35.34 56.2 35.11 90.65 49.7 1.25 0.44 3.1 2.47 2.87 3.21-0.59 1.92-2.56 0.89-4.17 1-20.27 1.8-36.62-11.71-55.56-14.26 15 36.48 52.44 44.6 84.14 60.16 1.43 0.71 3.21 3.42 2.84 4.54-0.86 2.58-3.22 0.88-5.05 0.49-18.68-3.5-34.72-13.41-51.55-21.37 9.42 39 52.37 39.23 78.14 59.51-17.31 6.55-57.32-27.26-53-14 11.67 31.74 21.85 39.41 51.34 54.4 9.41 6.78 28.2 9.89 33.32 19.59-3.68 0-7.88 1.17-11-0.19-18.28-7.2-35.19-17.53-50.75-29 9.64 43.5 48.29 68.95 83.24 91.76 3.82 2.84 9.73 5 11.23 9.73-14.35 6-67.81-40.78-76.37-55.07 7.83 57.9 39.75 79.83 80.58 114.41 0.82 0.8 3.53 2 0.92 3.77-13.07 6-55.53-42.61-63.59-54.13-0.47-0.65-1.65-0.79-2.5-1.17-1.65 47 42.41 75.21 74.27 102.57 2 1.85 6.24 3.52 4.17 7-24.43-4.05-54.69-39.48-72.17-61.89 3.68 17.55 1.26 32.72 12.12 45 17.28 21.71 34.49 44.07 59.15 58 3 1.58 7.84 3.74 5.69 8-2.49 5-5.47-0.39-7.72-1.41-26.23-11.86-42.31-37.77-61.32-58.41-5.66 54.38 40.53 68.14 67.94 102.67-16.25-0.33-33.16-22.06-45.95-31.47-7-5.88-12-14.21-18.6-22.35 4.21 13.55-1.25 27.09 7.78 39.28 15.24 20.58 30.09 41.33 48.44 59.34 3.28 3.21 12.9 4.22 8 10.46-2.92 3.71-9.25-2.9-13.29-6.16-19.64-15-32.82-36.12-46.65-55.75-2.57 0.25-0.32 1.94-0.43 3-3.56 50.34 46 77.9 73.2 112-1.74 15.4-66.79-59.13-69.14-66.46-0.35 21.33 0.67 40.49 14.27 57 9.34 11.31 17.41 23.61 26.71 35.06 9 12.28 22.54 20.31 31.6 31.59-0.57 4.07-5 1.85-8 0-27.23-16.5-42.61-41.9-60.72-67.67 1.79 19.23 0.29 37.2 13.88 52.26 12.49 13.84 21.37 30.78 35.88 43 5.69 5.12 12.36 10.62 17.36 16-8.76 12.71-50-39.54-54.72-48.72-2.29-3.76-5-7.27-8.56-12.47 2.71 58.56 11.36 64.94 47.13 106.88-4 1.66-8.53 0-10.2-2.32-8.69-12.11-23.06-19.76-28.19-35 3.24 14.92-0.27 30.72 7.68 45 9 16.16 20.41 30.3 33.4 43.26 1.71 1.51 3.54 3.58 1.75 5.65a1.94 1.94 0 0 1-3.07 0.49c-14.73-7.21-22.22-20.81-31.69-34.25-0.75 39.07 22.44 59.53 42.65 88.16-17.38-0.22-26.6-26.09-36.91-40.29 4.55 21.4 7 34.5 11.71 52.47 1.37 9.81 9.85 26.6 6.58 35.07-13.4-8.5-15.55-54.11-23.23-70.79-1 9.28-4.11 57.12-14.41 56.65-0.19-1.31-0.79-2.71-0.52-3.92 5.07-22.6 7-45.43 8.21-68.5 0.59-10.81 3-21.16-0.65-31.82-1.16-3.37 1.51-7.82-2.82-10.41-1.05 3.58-2.68 7.09-3.06 10.74-2.06 20-9.22 38.54-16 57.24-0.92 2.55-2.72 5.17-4.9 4.47-6-0.25 8.72-33.27 9.06-39.2 7.4-30.85 13.79-64.32 6.65-95.56-7.1 24.95-12.8 51.74-24 75.57-1.83 4.72-2.54 12.48-9.08 12.6 3.38-21.29 14.35-41 18.51-62.32 7.83-31.58 14.74-62.18 6.94-94.65-5.84 24.72-13 48.56-22.54 72-3.45 8.74-7.28 17.34-10.65 26.11-1.08 2.84-3.67 1.44-5.13 2.78-0.32-1.47-1.29-3.16-0.86-4.36 7.43-21 15.19-41.87 22.55-62.9 4.72-13.5 5.34-28.24 9.86-41.49 4.32-12.7 3-24.82 3.32-37.28 0.06-2 0.31-4.84-2.33-4.85-2.83 0-0.94 2.89-1.5 4.38-11.15 31.37-23.28 62.3-38.1 92.13-1.43 3-2.85 8.34-6.87 6.84-3.69-1.38-0.09-5.28 0.93-7.8 5.51-13.54 11.4-26.94 16.92-40.47 14.27-37.25 32.18-78.58 24.37-118.72-13.2 30.17-28.95 57.72-48.84 83.51-1.12 1.57-2.16 3.81-4.36 2.45-2.61-1.6-0.83-4.39 0.15-5.73 15-20.5 26.61-43.16 38.67-65.46 11.26-20.82 17.34-43 10-65.42-9.1 19.1-21.28 40.27-35.22 57.29-6.05 6-7.92 17.24-18.11 17.47 0.14-1.1-0.07-2.44 0.49-3.25 5.33-7.72 11-15.24 16.35-23 12-16.23 18.75-35.8 29.86-52.47 7.91-11.57 4.72-23.57 5.66-35.51 0.21-2.57-0.71-4.48-3-5.36-13.07 28.2-27.38 56.25-47.64 80.06-3.89 7.9-9.32 0.44-4.89-4.2 14.16-15.94 25.11-34.77 34.37-53.71 9.7-19.79 25-42.52 14.43-66.22-5.41 22.27-15.73 40.85-27.55 58.7-1.12 1.69-1.75 5.59-4.51 3.95-5.05-6.19 15.25-34 17.64-43.79 9.55-23.26 15.95-48.12 8.09-72.46-2.67 8.05-21 61.19-32.3 54.25-1.33-1.54-1-3.76 0.79-6.06 18.13-27.53 34.41-64.31 23.57-97.21-2.43 17.11-26.08 76.83-42.57 80.62 0.2-1.65-0.14-3.65 0.67-4.91 14.13-22 27.32-45.1 33.26-70.16 4.63-19.51 7.32-41.52-5.91-61-1.42 31.14-12.37 60.76-30.08 86.2-0.69 1-2.52 1.21-3.81 1.78 5.88-20.27 16.91-39.16 22.73-59.53 3.84-12.15 3.56-25.55 5.76-38.27 2.76-15.93-9.43-27.36-12-43.36-2.88 26.25-3.35 63.16-22.59 82-0.14-1.95-1-4.16-0.32-5.8 10.28-26.26 13.84-53.43 14.56-81.6 0.29-11.28-6.75-17.32-9.49-26.07-1.41-4.48-2-9.59-7.52-13.68a88.27 88.27 0 0 1 0.28 41.65c-2.66 7.7-2.92 41.57-14.33 39.41-2.17-0.84-1.9-2.91-1.31-4.72 11.67-38.54 17.67-83.42-8.27-117.88 0 6.12-0.21 10.18 0 14.22 1.3 8.16-3.52 65.31-13.36 62.89-4.3-2.33-1.07-6.91-0.37-9.55 6-22.61 5.41-45.17 4.61-68.44-0.6-17.27-11.89-26-19-41.58 2.67 15.63 9 69.6-1.2 77.18-6.8-1.26 0.38-40.31-2.69-49.7-2.64-30.14-5.3-45.77-29.51-66.08 0.39 12.74 11.57 69.92 0.78 74-1.15-2-3.35-4.05-3.29-6 0.65-19.9-2.32-39.53-4.17-59.23-1.8-19.07-7.56-26.74-32-42.36 5 9.7 19 69.22 9.07 72.92-5.53 0-5-6.69-5.1-11.58-1.83-24.57-4.44-70.07-30-81-3-1.59-1.65 1.94-1.72 3-1.72 14.31-3.4 55.56-14.87 63.43zm89.36-82.12c-1.06-4.33 2.37-2.89 4.95-1.62q3.26 0.78 6.5 1.62c30.95 8.88 62.95 18.58 95.23 10.18 1.73-0.29 4-1.57 4.45 1.09-1.83 6.62-13 6.52-18.53 8.4-14.23 3.55-28.63-1.36-43 0.26 23.1 27.15 60 28.13 92.37 31.48 4.74 0.49 11.08 1.71 16-2.1 0.44-0.33 1.83 0.18 2.51 0.67 2.71 16.67-59.42 4.17-69.31 1.51-2.08-0.42-6-0.37-6.27 0.39-0.83 2.55 2.49 2.66 3.81 4.09 4.45 4.79 8.9 9.6 13.06 14.65 8.64 10.47 21.55 12.18 33.22 16.2 18.47 7.39 38 7.36 57 9.16-13.09 14.12-56.13-2.6-73-6.47 18.11 36.54 56.49 57.75 96 63.79 0.95 0 2.83 3.35 2.49 3.8-5.64 8.22-14.62 0.89-21.73-0.87-9.4-3.4-18.75-6.95-28.11-10.48-4.08-1-7.68-5.14-12-4.16 9.17 24.88 36.3 37.48 57.66 50.56 8.32 4.63 16.68 9.06 26.09 11.27 1 0.24 1.5 2.63 2.23 4-16.65 4.48-49.09-19.41-64.78-29.93 26.59 49.62 29.88 45.37 72.49 74.42-2.61 3.45-6.2 4-9.44 1q-13.28-8.73-26.69-17.21c-1.88-1-4.52-0.13-3.52 2.54 9.41 22.17 31.47 58.34 29.63 81.51-8.25-17.5-16.5-35-25.29-53.69-1.83 10-1.79 36.84-10.19 40.78-2.83-0.23-2.68-3-2.48-5.16 8.92-46.07 3.18-63.16-21.17-102 1.42 8.7 9 49.61-2.59 50.52-4.3-0.22-2.18-6.48-2.14-10 0.23-18.09-2.23-35.75-5.34-53.58-2.39-13.71-13-21.71-18.05-33.52 2.07 5.17 3.16 46.56-5.19 43.57-1.77-1.41-3.16-4.53-2.82-6.55 3.09-17.65 0-34.47-4-51.73-3.1-13.42-13.64-20.64-19.59-32.23 1 10.56 2.29 20.11 2.82 29.69 0.21 3.76 2.28 10.09-3 10.61-4.91 0.48-4.28-6.84-4.45-9.65a169.34 169.34 0 0 0-8.56-45c-3.87-11.17-14.8-17.07-21.87-28.66 2.12 11.33 3.62 20.52 5.66 29.6 0.84 3.74 0.64 7-3.14 8s-3-3.06-3.56-5.13c-9.54-44.94-8.86-45.59-46-74.72 3.31 12.58 9.56 21.34 9.16 31.91-0.11 2.74 0.21 5.74-3.39 6.18-1.59 0.19-2.28-0.2-2.56-0.86-3-15-9.78-30.47-17-43.89-3.83-7.58-19.06-7.17-24.57-14.24zm-235.49 75c3.52 1.27 6.11-2.39 6.83-5.66 2.49-11.2 6.42-22.14 6.29-33.87 0-2.05 1.67-4.13 2.58-6.2 11.13 8.91 12 19.45 9.09 32-2.61 15.08-5.26 30.17-8.37 45.16-0.53 2.55-4.56 5-0.62 7.25 13.22 4.24 15.86-53.49 18.26-63.94 1.6 9.74 14.29 12.19 11.62 23.63a264.16 264.16 0 0 0-6.32 39.6c-1 12.81-7.27 24.12-8.42 36.7-0.15 1.69-1.75 4.54 1.53 5.4 7.64 3.87 12.33-30.7 14.36-36.43 3.21-13.23 3.24-27.52 7.06-40.41 0.76 0.61 1.92 1.07 2.22 1.85 3.7 9.73 11.53 16.55 9.55 30-4.16 28.24-11.19 55.15-22.24 81.3-1.17 2.77-0.45 6.87 0.66 9.9 4.69 8.58 18.79-40.33 20.66-44.38a214.77 214.77 0 0 0 8.59-48.9c15.5 21 14.14 32.67 8.89 56.1-6.54 27.6-8.49 57-20.06 83-1.45 2.68-5.84 7.26-1.32 10.11 14.6 5.84 31.65-102.51 31.06-116 4.31 7.4 10.18 14.87 10.44 22.52 1.93 44.14-3.56 87.84-13.39 130.84 0.24 3 5.13 4.37 6.14 0.54 10.73-41 16-80.86 13.81-123.92 14.24 38.11 20.6 23.95 16 66.91 0.07 28.77-6 56.55-13.83 83.95-0.91 3.16-0.88 6.69 2.58 8.64 5 2.37 7.12-18 8.93-21.63 7.66-29.52 8.43-55.78 11.12-87.06 3.1 16.43 14.22 26.45 12.69 43.07-1.49 16.31-2.62 33.26-1.83 50-2.28 14.72-7.3 29.68-9.54 44.59-0.28 1.5 1.81 3.42 2.8 5.14 17-28.69 14.89-66 15.14-98.7 5.44 11.17 14.37 22.28 15.39 34.36 0.7 23-0.57 46-1.67 69 1 6.61-8.27 29.81-1.82 31.89 12.33 4.7 9.3-71.56 12.55-81.8 20.86 29.19 14.75 65.95 13.48 99.45-0.06 1.46-0.79 3.86 1.74 3.89a4.08 4.08 0 0 0 4.26-3.89 162.28 162.28 0 0 0 2.78-48c3.8 8.26 8.07 16.11 11.73 24.44 4.27 9.47 8.18 19.1 11.81 28.87 0.91 2.43 6.17 5.69 7.61 5 3.19-1.59 0.07-4.68-1-7.05-4.21-7.83-6.53-16.4-10-24.56-36.08-91-76.51-180-122.7-266.57 4.66 0 9.12-0.13 13.57 0 5.29 0.19 11.36-4 15.74 1.58 10.88 13.86 17 29.82 20.6 47 0.79 3.78 0.69 9.72 5 10.71 2.28 0.52 3.42-5 2.82-8.3-2.48-13.78-4.71-27.6-13-39.55-2.36-3.39-3.26-7.8-4.83-11.74 4.27-0.75 7 3.67 10.4 3.82 19 0.79 21.87 15.14 25.44 29.17 4.07 16 1.8 32.23 2 48.37 0 1.73-1.14 4.7 2 4.65 10.39-1.22 6.28-55.42 2.7-63.58 6.64 0 7.23 6.77 10.87 10.08 15.86 12 12.67 20.05 15 36.66 3.29 18.27 0.85 36.18-1.06 54.14-0.31 3-2.67 5.67 1.48 6.75 10.84 1.22 10.35-57.21 7.45-65.61 6.5 10.18 15.29 19.89 15.44 32.79-0.3 9.62 3.45 18.79 3.55 28 1.82 7.16-6.72 52.31-1.57 50.15 7.06-2.85 4-13.4 6.33-19.35 3.28-13 1.14-26.35 2.16-39.61 5.05 1.12 2.94 5.78 4.72 8.45 10.5 15.79 11.69 34.15 12.57 52.13 0.74 15.14-1 30.4-1.63 45.61-0.19 1.77-0.23 3.7 2.15 3.56 5.91-0.14 8-38.92 8.16-46.31 6.58 14.07 13.25 28.28 19.6 41.88 0.4 0.86-0.37 3 1.59 2.07 8.61-4.52-18.68-56.3-21.76-68.81 6.45 6 34.47 35.46 40 27 0.36-5.92-9-8.18-12.45-12.27-21.92-17-42.29-38.92-46.77-67.36 9.29 5 28.54 23 37.33 21.89-0.49-1.8-0.39-4.36-1.57-5.29-9.13-7.16-18.19-14.47-27.86-20.83-18.63-12.26-28.69-30.81-38.26-49.87 11.63 7 23.29 13.94 34.87 21 2.7 1.64 4.56-0.26 6.74-1-0.52-1.26-0.67-3-1.61-3.69-26.92-17.85-54.74-34.85-77.73-57.65 9.34-4.83 20.35 0.38 28.51-7.36-0.79-1.13-1.55-3.22-2.36-3.24-4.85-0.1-9.89-0.5-14.53 0.6-19.03 4.56-36.29-1.77-55.68-7.77 6.27-0.75 40.56-19.66 25.9-21.63-4.68 0-6.12 4.9-9.75 6.53-15.54 5.61-40.31 23.11-56 17.89-6.72-5.4-10-15.09-16-25 15.43 6.8 46.33 9.73 57.24-1.35-1.23-0.68-2.65-2.15-3.66-1.91-12.18 3-24.42 3-36.71 1.1-7.08-1.07-16.53 0-20.63-4.19-7.28-7.34-11-18.14-19.57-27.11 16 4.27 58.93 20.78 69.25 11.17-25.3-7.8-55.1-10.46-77.8-24.08-7.93-6.47-12.71-17-21.15-23.86-0.71-0.57-0.79-1.94-1.16-2.95 17.64 7.81 35.53 16.94 54.56 21.81 8.36 1.88 34.41 8.49 41 5-13.15-7.72-29-8.2-42.86-13.14-22.42-6.66-43-17.18-64.21-27-1.68 0-3.09 0.84-3.31 3.53-1.44 17.46-5.06 34.38-9.16 51.32-0.78 2.59-3.33 7.61 0.78 8.87zm214.65 103.72-0.19-0.29zm-196.33 519.91c-2-8.32 16-10.76 22-6.34-6.57 3.13-16.93 15.01-22 6.34zm-0.57 42c0.49 2.23-2 2.5-4 2.4-6.86 1.1-0.99-16.03 4-2.39zm-13.43-18.45c-0.43-4.81 0.43-12.56 6.09-10.67-3.8 14 5.43 8.8 5.78 14.24-0.75 7.45-13.65 0.81-11.87-3.56zm-393.25 358.82c46.6 5.51 231.15 41.86 204.55-48.79-5.37-9.41-11.49-18.4-17.51-27.41-2.42-3.63-0.08-5.15 2.47-5.57a133.55 133.55 0 0 1 38.66-0.44c20.42 1.85 40.42 5 60.7 7 4.67 0.12 9.59 1.12 9.34 9.53-3.29 33.47-34.85 51.69-56.1 73.58-9.85 9.82-20.79 18.2-31.8 26.56-5 5.41-15.78 7-16.86 14.8-0.3 6.13 6.49 8.27 11.22 10.78 34.06 17.17 66.85 37.19 104.21 46.06 3.09 1 8.31 0.2 8.58 4.23 0.7 10.3 2.26 21.21-0.27 30.9-4.21 16.11-1.62 31.88-0.86 47.71 0.19 4-0.32 11.47 6.26 13 10.34 2.46 20.82 5.1 31.35 5.73 7.79 0.46 10.46 2.39 10 10.27-0.64 10.41 8.92 18 19.22 15.74 1.76-0.38 2.95-0.5 3.71 0.84 7.45 13.21 16.34 5.35 24.06 1 18.94-9.86 5.87-34.11 13.15-39.83 12.46-5.62 24.58-12 37.5-18.37 1.09 10.9-3.28 24.1 8.53 30.63 17.47 8.93 28.55-7.36 42.39-12.43 6.27-2.3 8.48-7.75 10.15-13.68 2.45-8.65 3.78-18.31 15-20.59 3.21-10.36-0.46-21 0-31.48 2.34-12.25-4.23-23.65-4.23-35.77 17.54 2 12.09-9 10.4-19.24-7.45-48.41-18.84-97.2-15.48-146.4 19.17 17.68 35 43.65 62.37 49.15 21.68 1 43.93-1.23 65.36 4.61 8.87 1.66 14.28 7.59 2.3 8.12-26.35 8.25-52 18.62-77.2 29.81-34.24 13.13-26.25 52.43-3.52 71.85 59.14 57 217.35 83.81 293.14 58.55 0.16-6.89-8-2.76-12.52-1-18.17-0.09-36.26 2.85-54.57 0.58-76.82-7.72-167.34-12.34-223.74-71.85-9.93-12.14-17.42-27-6.12-40.34 15-16.86 61.33-29.33 84.28-36.29 7.25-1.62 17.93-3 19.09-12 0.51-14.12-19.65-16.7-30.7-18.57 20.28 0.26 39.29 8.14 58.72 11.06-9.88-14.07-30.35-15.72-46.06-19.11-17.81-3.85-35.17-3.28-53 0.45 1.58-6.26 2.77-13.45 6.09-18.82 2.24-3.2-0.94-11 5.6-9.66 13.59 2.85 26.69 8 40.27 10.85 16.76 4.25 86.07 22.3 64.16 47.44-22.69 25.81-144.35 22.56-127.71 66.81 18.41 26.84 52.39 33 81.51 42.35 10.13 2.6 19.9 6.31 30.15 8.43 15 2.81 31 1.75 46 4a322.71 322.71 0 0 0 109.34-8.8c10.34-1.06 15-11.37 0.63-7.86-83.39 12.19-172.29 9.64-247.29-33.12-10.7-6.53-12-18.54-2.52-22.38a415.45 415.45 0 0 1 43.18-14.39c27.65-6.09 110.24-22.14 73.23-62.91-30.77-23.25-70.75-32-108.44-36.57-1.77-0.52-3-1.55-3-3.61-1.21-32 4.46-64.94 0.89-96.4 4.61-21.28 0.15-41.9-5.22-62.18-1.62-6.13 0.91-7.64 4.49-10.9 0.79 5.78 1.31 17.47 9.24 15.92 6-1 5.81-7.33 3.26-12.94-7.94-18.06 15.21-12.31 12.76-30.54-0.2-10.84-10.54-16.55-11.61-26.47-0.36-3.33-1.85-5-5-5.69-4.74-1.1-12.78-1.27-13.62-3.77-5.12-15.47-8.52-31.42-12.74-47.17-4.27-16-9.63-31.84-12.92-48.07-2.86-14.16-10.89-27.1-7.46-43 5-30.61 8.52-59.3 10.93-91 6.41 5.78 28.5 36.95 35.28 29.21 1.17-4-2.42-5.25-4.38-7.5-5.28-6.06-9.83-13-15.86-18.13-10.45-8.74 1.9-11.57 8-13.66 10.27-5.46 20-9.76 31.37-1.13 7.06 5.38 15.87 8.44 23.8 12.72 3.72 3.79 7.38-1.51 3.73-4.51-9-9.15-21-13.52-31.28-20.81 8.9-3 16.44-8.42 24.47-13 4.3-2.16 7.55-6.53 14-4.81 11.27 3 22.92 4.66 34.44 6.69 1.41 0.25 3.81 1.14 4-2.07 2.54-6.68-24.31-10.15-29.75-13.05 17.18-10.46 30.27-30.39 53-24.82 2.76 0.62 5.72-0.53 5.69-3.19-0.06-5-6.4-5.18-10.43-5.07q-59.73-1.9-119.47-3.83c-13.94-0.43-27.92-0.13-41.8-1.23-7.8-0.62-17.68 4.57-23.07-2.22-13.58-19.11-39.08-7.59-54.23 3.41-4.39 3.92 0.64 10.17-4.28 13.34-42.79 26.36-84.21 55.5-126.58 82.3-14.81 7.41-26.62 18.59-39.94 27.82-2.22 1.55-3.18 5.53-1 7.93s3.86-1 5.63-2c6.2-3.61 12.28-10.31 18.5-10.42 14.38-0.26 28.82 2.65 42.87 4.24-3.12 4.75-15.59 11.8-9.26 18.41 4.44 5 7.16 0.64 10.32-2.84 5.8-5.49 10.76-14.27 17.45-15.87 12.71-3 26.4-2 40.75-2.64-3.55 7-17.13 21.16-11.54 27.43 1.58 1.54 5.86 1.63 7.83-1.55 2.54-4.14 4.45-8.71 7.28-12.62 4.55-6.28 5.88-15.5 16.15-16.71 7.92-0.93 15.68-3.11 23.55-4.55 1.62-0.3 3.88-1.19 2.41 2.75-1 4.91-8.11 22.77-1.88 24.89 8.71 1.83 9-15.39 10.35-20.93 7.5 4.29 10.55 12.9 16.78 18.79 7.15 7 12.15 15.86 17.26 24.42 10 16.78 28 27.43 32 49.32 6.26 31.47 15.92 62.65 25.92 93.23 0.76 2.77 1 5.07-0.07 6.3-8.82 10.37-10 22.38-13 34.33-2.29 21.45-35.66 14.54-50.2 25.25-3.33 1.91-2.9 0.84-3.41-1.92-2.32-12.43-4-25-9.81-36.57-4.44-8.82-12.18-13.49-19.86-19-16.32-11.75-34-20.75-52.07-29.17-1.9-0.88-5.77-0.27-3.3-6.1 14.61-34.08-0.84-82.17-14.62-115.2-12-24.74-44.44-11.87-65.67-10.47-51.74 5.56 13.48 57.86 7.47 85.14-6 39.67 16.59 47.25-2.16 57.63-11.55 6.32-20 17.55-29.63 26.81-25.2 21.64-40.58 50.12-35.92 83.8 1 29.76 1.25 59.17-2.44 89 0.77 5.88-17.05-5.39-21.19-4.13-34.45-4.37-67.67-14.82-102.22-11.77-22.38 0.16-73.34 12.11-76.57 38.77-2.22 20 33.71 38.54 46.77 52.54 1.68 1.44 4.51 3 2.8 5.45-11.62 9.82-29.43 9.65-44.08 8.65-28.62-1.13-56.1-9-84.12-13.83a403 403 0 0 1-64.43-14.5c-22-7.22-44.14-13.7-65.9-21.46-1.49-0.29-2.89 0.15-3.72 2.57-5.68 5.33 40.64 19.71 44.53 21 24.26 6.25 46.75 17.91 72.07 21.14 30.85 4.17 60.87 14 91.94 17.29-34.51 6.22-72.24-5.43-107.42-8.54-17.73-2.29-34.78-7.51-52.4-10.39-9.77-0.74-50.62-14.85-54.95-7.62 1 3.68 6.53 4.74 10 5.57 38.74 9.69 77.34 19.85 117 25.2 25.08 1.6 49.38 8.26 74.59 7.36 24-0.32 79-0.86 79.17-33.48-1.7-10.5-9.36-18.16-18-23.94-14.49-9.63-14.86-23.55 0.51-30.46 16.2-7.27 34.12-4.32 51.17-4.62 28.69-0.51 57.44 1.35 85.37 9 6 1.62 14.63 1.27 16.75 7.71 4 12-3.89 11.29-12.31 9.26-31.18-6.31-159.46-36.67-99 31.3 23.06 27.87-8.61 48.18-34.89 49.18-30 3-60.49 4-90.29-0.59-56.69-6.93-113.38-15.27-170-22.95-2.3-0.23-6.09-1.32-6.59 1.82-0.44 2.81 3.74 4.35 6.59 4.76a783.15 783.15 0 0 0 105.06 19.21zm576.7-566.22c16.41-16.11 28.51-1.07 42.63 5.17-30.37 12.73-30.69 12.68-42.63-5.2zm-30.33 13.37c-1.34-4.84 6.45-5 10.38-7 13.09-6.66 16.09 7.13 23.66 11.66 7.75 3.44-24 10.7-27.1 12.77-8.36-3.29-5.41-11.9-6.94-17.46zm84.87-14c-4.68 2.37-9-4.4-13.69-6.65-4-3.19-8.92-5-13.51-7.23 3.11-1.9 6.77-3.25 9.21-5.78 10.07-10.44 20.27-2.86 30.45-0.74 5.92 1.23 11.84 2.49 18.1 3.81-9.06 8.15-20.38 11.44-30.56 16.55zm51.36-45.46c7.08 1.33 14.74-0.79 22.05-0.28-7.25 9.32-17.9 15.2-28 20.87-7.07 3.78-13.35-1.29-19.74-2.84-6.94-1.68-14.48-1.65-20.27-6.16 12.06-15.84 28.51-14.95 45.96-11.63zm-44.32-1.87c-15.14 11.1-29.73 11.24-55.29 0zm-64.66 10.41c12 2.27 23.92 5 35.64 7.5-15.55 18.14-28.84 2.57-41.18-5.05 1.85-0.87 3.91-2.76 5.54-2.45zm-14.1 10.41c7.35 4 15.86 7 21.9 12.87l-11.68 5.49-16.87-17.91c2.24-0.21 4.88-1.28 6.65-0.45zm-14.36 7.64a137.31 137.31 0 0 1 13.38 14.72l-15.29 5.7c-2.51-5.7-12.64-33.63 1.91-20.42zm-19.43 2.89c4.29-0.87 6.41 12.46 6.18 19.55-0.07 2.18-8.35 4.12-12.94 6a32.08 32.08 0 0 1-1.66-3.14c6.05-6.82-2.21-20.26 8.42-22.41zm-53.91 6.49c-21.6 18.81-36 45.77-69.16 36 21.87-10.77 38.75-33.31 69.16-36zm-76.31 65.17c-12.27-1.37-24.82-0.28-35.63-0.28 16.51-17.26 38.75-22.58 63-18.27-9.16 4.44-11.06 20.36-27.4 18.55zm73.31-18.92c-9.84 14.91-26 20.9-46.13 17.55 10.58-17.11 29.21-27.7 49.24-24.32-1.11 2.26-1.81 4.72-3.11 6.77zm-12.22-16.38c7.79-8.21 16-17 24.43-25.68 1.51-1.56 4-3.88 5.38-3.5 3 0.85 8.92-3.87 8.63 2.84-0.11 2.48-2.32 6.05-3.68 9-6.64 14.41-21.16 20.91-34.81 17.34zm49.14 5.13c-2.45 9.36-2.46 20.65-16.42 21.34-2.75-1.12-19.47 6.73-14.49-2.54 5.74-11.61 13.28-20.65 27.48-21.29 1.92-0.09 4.11-0.3 3.38 2.49zm-5.32-11.85a25.56 25.56 0 0 1-6.9 0.78c6.07-8.93 8.79-20.39 17.33-27.37 0.46 2 0.92 3.92 1.62 6.85-4.72 5.78 0.69 17.47-12.1 19.74zm11.51 24.56c-0.56-25.3 32.76-32.9 28.91-5.28-6.56 8.21-18.28 5.15-27.53 8.51-2.84 1.01-0.55-2.33-1.43-3.23zm23.19 42.37c-6.63-9.72-16.63-17.83-21-28.74 3.58-0.42 10-2 10.32-1.11 4.9 12.61 10.8 24.64 16.4 37.05zm17.5 6.76c-5.93-13.55-16.26-25.9-19.16-40.39 3.7 1.91 9.08-4.19 10.33-0.54 4.52 13.21 7.47 26.91 11 40.4zm13.14-28.5h-0.22a137 137 0 0 1-0.85 19.74c-4.6-1.84-3.16-6.75-4.44-10-3-7.75-4.32-16.08-6.19-24.18-1.08-5.45 7.42-4 10.87-5.32 1.76 5.86 0.46 13.57 0.83 19.76zm9 29.78c-1-19-1.84-35.17-2.64-52.48 2.81-2.37 8-2.3 11.53-3.52-2.7 19.29-4.99 36.67-8.93 56.03zm-190.78 703.61c-12.22 1.62-20.91-18.73-7.51-15 10-3.25 7.78 5.26 7.47 9-0.12 2.1 4.95 6.1 0.04 6zm17 2.6c-10.72 0.19-10.68-9.62-9.5-14.2 2.29-8.92 13.35-7.78 20.4-11.2 3.36-1.63 0 4.77 2.22 6.48-1.28 8.93-0.05 18.68-13.13 18.93zm80.85-30c-9.92 1.07-12-8.66-13-16.53-0.43-9.9 10.9-2.13 15-4.78 18.32-12.19 12.14 20.61-2.01 21.26zm20-9.19c-2.12 1.42-1.85-2.29-1.87-3.81-0.26-8.55 0.29-13.71 10.28-12.88 5.32-2 6.72 4.88 5.4 9.45-1.9 6.11-9.66 4.38-13.82 7.19zm25.7-80.8c2 14.71 2.75 29.6 3.91 44.43 0 0.44-1.5 1.51-1.73 1.37-3.36-2.11-6.54 5.48-9.77 0.21-6-15.08-10.6-30.79-16.28-46-2.9-4.29-7.5 0.06-5.81 4 2.82 9.4 5.91 18.71 8.93 28 1.62 5 3.43 10 4.92 15.06 2.07 7-5.25 6.07-7.4 6.41-13.38 2.11-26.91 3.27-40.42 4.35-6.4 0.51-5.31-6-5.66-8.84-1.86-14.94-7.52-29.36-6.35-44.71 0.3-3.87-3.88-1.45-4.89-3.48-8.15 11.13 0.22 40.29 4.65 53.07 4.56 11.72-7.7 8.27-11.8 11.68-6.33 5.27-8.89 1.33-8-6 0.89-5.94 3.37-37.39-1.79-39.17-1.86 0.29-4.23 1.14-4.36 4.37-0.44 11.69-2.66 23.51-1.51 35s-4.19 15.56-13.08 20.37c-23.43 13.72-48.4 11.21-73.77 4.85 18.09-17.39 39.08-32.67 51.43-54.5-1.66 0.16-3.91-0.33-4.87 0.57-8.79 8.26-17.33 16.79-26 25.16-0.83 0.79-2.69 1.79-3.18 1.45-2-1.45 0.63-1.48 1-2.25 7.37-14.57 14.7-29.16 22.32-43.6 2.47-3.29 0.34-6.18-3.27-6.32a5.65 5.65 0 0 0-4.6 3c-13.48 22.71-25.32 46.32-41.72 67.24-3.22-22.88 0.06-46.45-0.53-69.56-1.2-9.5 6.35 3 9.54-4.19 6.87-17.26 24.4-7.52 37.73-7.8 15.53 0.59 31-1.88 46.46-2.58 6.18-0.35 36-5.76 38.39-10.63 1.82-7 4.64-9.18 7.84-9.18 4.71 0 10.25 4.63 14.68 5.15 10 1.17 20.07 7.3 29.66 6.42 14.42-1.16 14.16 7.75 15.33 16.65zm-50.58-227.72c30.16-4.57 18-0.21 29.72 12.21-2.07 3.1-5.18 1.31-7.69 1.34-20.19 0.19-40.38 0.11-61.2 0.11 6.24-25.74 26.21-9.33 39.17-13.66zm-29.29-22.73c6.48-16.51-1-30.92 20.95-22.17 14.86 1.4 11 18.33 19 26.1 2.54 2.48 3.54 6.53 5.55 10.46-12.43 0-25-1.28-37.28 0.3-17.42 2.26-9.88-7.46-8.22-14.69zm25.16 85.86c1.65 26.32 9 47.71 19.1 68.32 1.56 3.18-2.31 3.11-3.84 4.14-9.75 6.49-14.41 3.15-16.28-7.86-1.93-11.32-5.55-22.36-7.34-33.7-1.64-10.23 5.85-18.31 8.36-30.9zm-15 17.4c-8.43 18.8-16 38-24.48 56.76-3.48 2.09-14.59-2-18.45-4.35 15.23-28.71 29.36-59.2 42-89.26 2.66-5.93 1.52-15.07 12.29-14 2.32 0.24 3 0.89 2.09 3-6.34 15.46-6.54 32.53-13.45 47.85zm-8.38-50.74c0 4.85 1.58 10.55-0.42 14.36-5.72 10.91-7.78 23.65-14.09 33.55-9 17.88-18 35.1-26.54 53.06-1.71 3.64-0.35 5.4 3.17 8 31 23.22 36.81-15.89 47.35-37.33 13.53 55.38 13.09 40.58-3 95.65-2.42 9.68-9.69 2.48-14.4 4-28.23 6.46-58.39 5.6-87.21 6.21 30.63-49.45 59.47-100.57 73.59-157.64 8.13-19.19-1.48-20.75 21.59-19.86zm87 165.84c0.65 7.66-58.18-4.1-66.31-4.54-10.79-2.85 0.6-11.07 0.94-14.48 0.79-8.13 3.53-16.58 4.57-25 0.45-3.63 2.13-5 4.86-5.69 40.88-7.7 1.8-31.74 1.35-69.71-1.37-12.08-2.91-24.15-3.91-36.26-0.53-6.45 1.25-10.9 9.67-10.39 16.19 3.39 33.09-11.21 32 11.39-1.24 52.11 2.21 104.43 16.87 154.68zm75.1-235.84c0.93 26.81-5.7 54.58-1.74 80.87-16.41-42.86-27.34-90-30.86-134.83 6-4.85 12.59-9.06 18.31-14.22 9.67-8.74 9.3 0.65 10.34 5.73 4.23 20.6 4.41 41.58 3.99 62.45zm22.12-109.77c-4 6.06-11.31 2.19-16.34 5.34-1.67 1.05-3.5-3.69-3.25-3.79a130.23 130.23 0 0 1 15.31-5.69c2.9-0.84 2.99 2.34 4.28 4.14zm-6.56-12.61c-3 4.82-9.85 2.53-13.86 6.06-1.1-1.27-3.36-2.84-3.12-3.76 1.67-6.38 8.22-3.43 12.19-5.77 1.6-0.94 4.51-0.55 4.79 3.47zm-10-17.27c3.19-0.65 6.6 4.18 5.18 5.15-3.89 2.67-9.07 3.45-13.74 5-2.91 0.26-3.86-2.13-3.32-3.49 2.06-5.25 7.45-5.73 11.9-6.66zm-29.17 33.26c2.61-8.6 5.61-17.07 8.43-25.61 8.43 11.17 6.61 26.69 17.62 36.19 0.31 0.27 0.43 1.39 0.23 1.53-4.85 2.38-15.79 15.47-19.64 13-5.17-6.99-9.53-15.52-6.62-25.11zm-10 13.52c0.09-0.64 0.83-1.18 1.27-1.76 4 3.95 3.69 10.14 6.36 14.79 5 6.87-4.39 7.88-8.58 11.13-2.61-8.52 0.26-16.61 1.01-24.16zm-118.41-34.47c0.56 2.49 0.2 9 4.18 7.85 7.71-1-4.56-38.73-0.79-44.78 8.11 3.49 15.53 8.45 23.49 12.3 10.67 5.43 2 12.68 0.39 17.42-3.71 10.53-4.75 21.41-6.84 32.11-0.25 5.45-5.6 30.53 1.27 31 2.86 0.1 2.24-3.14 2.75-5.36 5.11-22.22 4.78-45.62 14.62-66.63 21.87 10.37 20.67 35.23 26.77 55.06 0.58 2.15 0.12 2.9-1.57 4.67-11.94 14-35.58 32.3-36.34 51.38 18.73-12.45 37.82-54 61.89-59.3-0.15 1.38 0.24 3.28-0.52 4.07-11.89 12.48-17.25 28.7-24.9 43.56-4.6 8.94-8 18.48-11.83 27.82-0.93 2.3-0.65 4.77 2.12 5.85 2.37 0.93 3-0.35 4-2.6 11.83-22.07 28-73.61 51-82.94-2.82 53.5 7.63 107.32 23.92 158.47 3.7 11.49 12.77 21.94 10.36 34.7-1.93 10.28-6.34 20.12-9.95 30.05-0.82 2.14-2.73 3.71-5 1.21-35.94-30.52-64.58-68.22-88.91-108.64-21.72-39-41.27-80.1-45.88-125-1.29-7.44-1.44-22.87-6.13-28-6.1 5.88-3.92 15.86-2.25 23.62 4.88 31.43 11.05 62.9 25.91 91.54 1.39 2.46-1.71 1.69-2.77 1.68-7.26-0.09-12.79-0.23-19.46-7.12-7.09-7.34-21.14-7.5-31.41-12.35s-8.64-16.63-11.41-25.36c-9-29.44-15.81-58.81-22.41-89 25.7 22.06 49.87 15.07 69.61-10.64 2.14 11.63 4.27 22.45 6.09 33.36zm-75.65-67.27c-0.85-6.14-2-12.26-2.25-18.43 0.11-2.06 1.11-3.78 5-4.26 4.91-0.61 4.09-5.46 1.48-6.68-8.1-3.79-4.46-10.48-3.63-15.23 0.73-7.23 19.39-14.62 25.59-12.75 20.39-1.45 23.68 11.65 27.14 31.14 2.08 11.74 7 24.85-1.42 36.71-6.41 9-12.65 19.42-25.23 19.84-11.92-0.33-25.29-17.59-26.68-30.34zm-5.33 30.73c8.44-8.9 10.8-2.08 18.82 2.18 15.1 7.9 31.15 4.85 41.3-11 5.27-8 8.15 2.78 12.39 0.87-7 10.86-18.43 18.23-27.62 27.21-0.69 0.75-3 0.69-3.6 0.45-15.45 0.24-24.43-8.86-34.76-15.08-1.4-1.51-7.89-2.39-6.53-4.63zm-33 29.77c6.65-4.64 12.07-11 18.09-16.68-1.86 24.2-11.55 48.88-0.18 77.83a490.11 490.11 0 0 1 9.47-84.58c10.75 41.44 19.19 76.9 30.41 114.93-18.75-4.56-35.29-15.62-47.61-29.66-15.79-17.53-38.77-44.28-10.19-61.8zm-52.84 187.47c-37.33-12.31-77.23-16.42-116.23-13-17.43 1.09-36.81 0.33-48.31 18.49-2.2 2.57 0.32 9.44-3.07 8.33-3.86-1.26-7.51-6.78-8.8-11.17 7-29.83 86.84-35 112.18-29.54 24.11 3.5 48.83 4.88 71.9 13.81 7.32 2.84-0.28 10.3 3.24 14.73-4.08 3-7.79-0.63-10.91-1.65zm8.93 79.75c11.67-57.94 14.35-117.3 13.73-176.32-1.38-20.78-0.71-41.9 6.29-65 19.92 53.47 64.5 73.55 113.33 88.56-24.79 16.84-54.29 22.82-83.57 25.73-5.15 0.14-5.34-1.93-5.56-5.58-1.29-10.17-3.07-31.8-13-36.45-0.34 1.67-1.39 3.58-0.92 5 8.09 23.94 8.38 48.67 7.94 73.51 0 2-1.6 5.5 1.54 5.75 1.33 0.11 4-3.62 4.3-5.85a173.9 173.9 0 0 0 2-24.3c0-5.15 2.3-5.58 6.31-5.74 28.34-0.78 56.52-7.69 81-22.43a217 217 0 0 1-33.73 38.69c-14.31 12.79-30.66 22.67-45.46 34.67-1.66 1.35-2.15 4.15-3.18 6.27 2.19 0.69 3.74-0.1 5.8-1.25 30.63-15.36 54.27-37.47 77.22-62.58-17.4 88.49-54.51 170.66-98.07 249-5.93 10.09-13.93 2.21-19.74 0.5-30.74-9.07-59.83-22.53-88.75-36.23-6.21-3.32-27.82-12.09-14.25-18.67 29.3-21.59 54.7-43.68 78.09-72.24-4.49 23.42-8 40.36-13.06 61.75-0.34 1.79-1.69 5.7 1.58 5.7 3 0 5.55-2.71 6.4-6.2 4.61-18.76 9.54-37.47 13.76-56.29zm-86.23 405.51c-1.79 8.69 14.8 12.14 15 3.52-0.62-7.15 19.71-9.63 25.4-12.12 40.25-8.94 32.15-33.42 20.29-60.86-4.74-21.57-25.51-33.15-45.36-24.25-1.85 0.88-4.29 1.73-4.48-0.55-6.8-32-21.72-62.18-38.34-90.11-4.81-7.6-13.94-13.83-5-25.93 13.52-21.48-3.06-48.19-20.52-62.55-29.62-23.72-4.07-46.33-13.18-57.11-4.94-1.5-16.16-1.72-11.88 7.2 5.39 7.92 2.1 18.36-0.35 26.71-13.75-6.22-13.29-30.54-23.91-28.8-8.51 0.21-11.87 17-3.12 17.34 10.77-0.06 8.74 11.89 15.5 15.34 0.9 0.47 0.84 3-1.06 2.89-6-0.4-12.33 2.74-17.9-2.24-2.48-2.2-5.93-2.07-8.74-0.26-3.52 2.27-1.91 6.07-1.85 9.16s2.87 4.45 5.58 4.14c6.34-0.73 12.83 1.4 19.13-1.6 1.61-0.77 4.83-2 6.84 1.47q7 12 14.85 23.54c5.4 7.93 12.72 15.07 8.56 26.46-10.54-6.12-14.66-19-25.87-23.86-12.2-6.5-26.45-4.25-39.72-5.53-5.16-0.5-14.14 2.31-17.24 9-4 8.7-9.53 16.27-14.62 24.23-6.84 8-13.32 16.6-8.92 28.57 3.42 13.76 11.81 26.34 9.47 41.36-0.48 3.07 4.07 8.4 0.46 9.37-21.44 3.28-29.51-19.61-33.41-36.49-5.38-16.35-7.29-29.93 5.53-43.23 3-3.09 2-7.91-0.44-12-2.56-4.29-6-1.53-8.75-1.21-1.37 0.16-3.57 3.48-3.38 5.13 1.11 9.41-7.72 14.32-9.11 22.55-1.75-8.78-9.09-16.08-5.08-25.75 1.65-4-1.17-6-4.81-7.5-6-2.75-12 6.34-8.78 10.69 6.06 9.47 3.62 20.76 7.36 30.67 1.11 3-1.3 4.59-4 3.6-3.49-1.29-6.53-3.82-10-5-4.2-1.37-7-8-12.68-3.75a8.19 8.19 0 0 0-2.88 9.41c2.32 6.4 8.52 2.06 12.37 3.89 5.6 2.65 15.43 1.91 16.43 7.41 7.22 41 12.6 89.29 65 84.38 2.09-0.23 4.37-3.52 6 0.76 8.88 23.33 20.06 45.41 34.69 65.78 2.26 3.14 13.47 9.12 1.42 12.64-8.72 2.45-19.31 6.23-28.88 4.83-8.9-1.65-3.84-22.22-5-29.56 0.19-4.94-2.79-6.25-6.71-6.49-10.58-1.09-2.59 21.15-3.1 29.5-6-6.42-11.69-10.73-14.75-16.47-2.36-4.4-4.45-5.5-8.75-5.15-2.11 0.17-3.05 0.76-2.9 2.91 0.32 4.58-1.82 12.3 3.32 12.56 9.09 0.47 9.63 8.25 15.34 12.24-6.4 0.6-12.14 2.41-17.17 1.23-8.41-1.92-11.83 6.15-4 9.51 5.89 3.49 10.79-2.34 16.55-0.87s12.34-5 18.13 3.69c10.85 16.22 35.81 19.34 52.35 9.46 44-32.37 85.81-66.25 141.82-31.15-9.64-3.41-20.55 2.51-29.54-3.76-3.78-2.64-6.47-1.64-9.33 0.35-3.25 2.25-1.47 5.89-1.16 8.67-0.17 6.49 28.81 2.14 35.33 3.35-11.32 5.23-20.55 9.84-30.1 13.69-2.89 1.14-5.71 0.94-5.95 4.95zm-66.33-262.76c-3-5.09-8.78-8.64-9.15-15.21-0.1-1.78-0.87-4 1.81-5.08 3.12-1.33 2.6 2 3.31 2.87 10.66 12.35 20.88 25.08 31.42 37.55 6.87 9.39-1.49 21.08-4.68 32.39-0.17 0.48-1 0.73-1.52 1.09-3-6.49-13.63-7.63-10.8-18.84 3.25-12.84-3.93-23.89-10.39-34.77zm-96.82 150c-41.73 0.59-45.1-42.5-51.18-74.84-0.58-2.5-0.94-5.94 2.28-6.8 3.43-0.92 5.53 1.57 6.39 4.82 4.77 22.82 11.28 57.67 41.42 55.35 10.76-0.64 5.25 12.84 8 19.41 1.08 4.37-4.94 0.45-6.91 2.13zm190 61.17c-24.67-12.74-54.5 7-58.58-32.82-10.47-47.66-41.88-86.36-68.61-125.78-1.37-2.18-3.6-6.16-7.29-3.82-7.2 4.56 9 19.16 11.4 24.74 28.47 39 48.17 83.55 61.13 130 0.94 3.14 1.11 5.63-2.95 7.33-36.32 12.64-61 66.35-104.12 47-2.35-1.14-5-4.74-4.91-7.07 0.06-1.23 0.62-1.62 1.37-1.62 16.34 4.83 32.27-0.66 43.79-12.45 3.69-3.73-2.1-6.87-4-9.32-23.49-32.73-42.59-69.11-45.86-109.84-2.06-70.29-32.51-36.36 11.22-95.42 2-2.87 3.12-3.28 5.42-0.07 3.16 3.3 13.41 20 18.19 16.66 4.38-4.61-8-16.75-9.63-21 6.82 0 14.2-0.6 21.38 0.31 2.66 0.33 11.08-4.57 8.08 6.29-1.16 4.18 5.9 7.64 10.66 5.46 4-1.84 5.05-0.12 7.38 2 40.18 35.1 63.83 82.61 81.36 132.07 3.16 7.76 6 13.39 17.25 11.81 13.66-1.94 32.72 17.12 34.91 31.11 1.2 7.61 7.51 14.22 4 22.89-0.94 2.32-0.84 2.58-2.93 1.11-9.39-6.67-18.76-13.5-28.62-19.55zm6.29-1331c10.59-21.1 25.93-42.2 28.53-66.1 1-12 6.46-10.5 13.53-7.3 25.56 11.54 49.21 27.45 76.47 35 7.87 0.59 4.71 8.34-1.69 6.14-26.34-4.52-48.05-21.48-71.92-31.36 15.36 34.96 54.85 49.32 85.07 68.41 1.55 0.85 4.13 2.49 2.76 5-2.35 4.38-6.23 0.46-7.59-0.25-20.43-10.75-41.43-21.39-59.44-35.36 11.11 40.4 53.49 62.72 89.58 78.49 1.52 0.44 3 2.74 1.59 4.59-3.44 4.38-8.53 1.23-10.9-0.06-18-9.85-37.79-17-52.8-31.91-0.73-0.74-2.22-0.71-3.36-1 9.8 38.06 45.92 56.63 78.12 72.26 1.91 1.17 6.32 2.09 4.61 5-2.4 4-7.55 3.57-11 1.59-16.13-9.22-32-18.93-51.23-30.43 8.89 10.56 9.25 22.08 18.12 29.47 10.69 8.9 20.62 18.74 31.58 27.27 4.9 5.54 28.89 14.36 28.26 19.41-0.29 11.66-49.77-24.76-53.49-30 1.06 15.05 12.56 22.82 20.1 33.16a188.58 188.58 0 0 0 35.38 36.5c3 3.74 16.09 8.44 12.48 13.91-9.72 4-46.57-34.87-52.54-44.28 3.69 19.15 20.94 43.4 32.49 59.89a200.62 200.62 0 0 0 23.81 28.2c0.9 0.87 1 3.81 0.19 5-11.17 0.66-30.35-30.34-37.85-39.34 6.29 20.3 10.08 39.17 13.59 59.73 0.17 0.95-0.64 2.08-1 3.13-13.07-23.9-14.53-52.55-27.56-77.13-1.82 8.65-7.08 47-17.85 45.69-2.69-1.41-1.06-6.17 0.46-9.53 7.7-16.95 8.73-34.61 8.27-53.22-0.29-11.6-5.93-20.26-8.85-34.82-0.48 12.59-10 62.39-21.27 59.91-3.64-1.66-0.43-4.36 0.45-6.58 7.47-18.75 10.53-38.53 13.73-58.49 2.1-13.07-8.86-20-8.42-31.16-4.85 21.68-7.42 44.59-19.32 63.85-3.27 6.09-0.07 12-10.18 10.52 4.65-18.74 14.73-35.9 17.45-55.28 1.94-11.92 6.83-25.05 3.66-35.61a123.37 123.37 0 0 0-14.26-30.7c-0.85 11.26-17.78 93-31.14 84.8-2.14-1.35-0.67-2.15 0-3.77a333.87 333.87 0 0 0 17.14-54.85c8.15-33.19 10.94-40.88-7.72-71.94-8.14 33.4-19.75 65.47-41.47 89.53-3.32-8.9 4.77-14.61 7.69-22.29 18.1-39.62 41.92-75.11 9.5-114.32-3.8 29.53-18.48 55.65-33.8 80.61-3.89 4.62-10.24 21.68-16.64 20.09-3.88-1.29-0.56-3.54 0-4.56 19.11-32.99 38.96-67.11 43.79-105.61 1.49-5.26-8.52-30.43-10.84-16.88-3.24 22-16.79 39.39-26.2 58.49a120 120 0 0 1-24.58 33.74c-0.85 0.81-1.21 2.33-2.48 0.84-1-1.14-2.6-2.26-1.11-4.25a279.43 279.43 0 0 0 20.14-31.82zm-104.63-21.9c1.47-5.52 5.13-10.48 11.29-12.08 0.35 1.16 0.71 2.33 1.42 4.62-9.43 12-10.24 27.89-17.43 41.94-34.21 60.12-89 104.09-131.66 157.33-5.38 6.85-9-2.47-4.7-6.48 27.21-33.58 57.06-64.9 85.14-97.74 22.93-26.45 46.2-53.15 55.94-87.59zm-68 1201.2c0.12 3.62-1.21 7.05-4.57 6.32-3-0.64-9.45 0.22-7.58-6.22-1.62-10.46 13.92-10.24 12.2-0.1zm-181.09-889.92-1.49-2.59c10.72-29.43 26.83-55.64 45-80.9 9.27-12.81 64.9-94.19 78.32-84.52 3.05 3.85-6.52 9.5-11.09 13.23-20.49 20-35.44 44.73-52.3 67.65-10 13.7-19.31 27.83-28.59 41.95-7.76 11.79-13.85 24.64-20.85 36.97-2.2 3.63-4.3 7.56-8.35 9.4zm-2.68 108.56c6.49-31.09 29-55.76 40.59-84.34 12.09-35.66 82.73-73.19 115.72-92.04 37-24.44 55.1-36.47 101.51-38.65-13.57-2.4-25.9-5.39-38.54-0.93-19.48 6.87-40 10.77-58.58 20.15-15.29 7.73-29.9 16.79-45.13 24.66-5.43 2-35.27 18.66-36.4 12.07-0.7-5.06 4-9 7.51-10.46 36.49-13.07 56.64-48 78.31-77.89 17.32-25 38.09-48.53 64.22-64 15.5-9.37 32.18-16.48 42.28-32.32 18.57-34.38 18.95-76.58 46.19-106.75 3.27-3 5.44-10 10.6-7.1 4.94 2.74-0.45 6.82-2.41 9.42-15.33 19.18-22.07 42.18-29.68 64.73 28.07-24 54-45.58 59.57-86.17 0.56-1.7 2.56-2.91 3.9-4.35 10.91 7.4-3.81 37.37-12.57 53.67-16.83 28.88-40.73 28.18-54.94 63.3-19.15 46.42-73.58 52.94-100.16 93-17.78 24.21-36.17 43.88-51.9 70.14 16.19-12.14 33.37-15 47.72-23.14 4.86-2.75 8.49-13.73 11.36-21.27 8.33-17.14 27.4-38.6 43.87-48 3.6-2 7.79-3.91 9.92-0.67 2.4 3.65-3.09 3.78-5 5.68-19.11 17.7-36.83 37.05-47.84 60.84 8.94-0.06 17.17-6.33 26.63-6 8.45-0.45 7.49-8.87 11-13.47 15.77-20.88 34.64-38.06 58.21-49.52 2.36-1.15 7.08-3.29 8.77 0.17 1.41 2.87-3 4.35-5.28 5.57-23.76 13.22-44 32.8-59 55.37 6.62 1.49 18.52 6.7 23.91-0.32 12.83-15.77 26-31.52 42.74-42.39a85.61 85.61 0 0 1 32.66-13c2.1-0.36 5.39-4.93 6.42 0.42 0.71 3.7-2.9 4.91-6.28 5.92-29.07 8.56-49.75 30.38-68.59 53.45-2 2.37 1.12 5.25 6.28 6.18 2.37 0.43 5.16 0.63 6.91 2 9.6 7.53 12.79-2.47 16.77-6.76 13.06-14.08 28.36-23.84 45.72-32.29 10.95-5.34 22.71-8.1 34-12.45 3.52-1.36 5.28 1.93 6.08 3.73 1.56 3.48-2.17 1.64-3.35 2.06-31.31 9.49-60.42 26.41-82.7 50.22 30.35 3.46 55.66-17.47 85.66-18.28 10.19 0 35.79-5.19 42.29 3.14-28.22 4.38-58.66 3.3-85 15.92 36.46 19.32 81.91 10 120 26.09 2.75 1.59 9.21 0.87 7.51 6.16-3.28 7.46-25.42-3.25-32.48-3.67-17.57-4.41-35.79-6.68-53.5-9.56 13.85 18 34.61 23.21 54.84 29.84a426.27 426.27 0 0 1 49.13 20.89c1.8 1.11 5.41 2.45 3.76 5.37-3.4 6.86-30.43-9.23-37.37-10.77-12.94-4.57-25.53-12.26-38.68-15.22 10.48 20.25 27.69 35.31 45.76 47.23a191.11 191.11 0 0 0 27.56 14.48c5.12 2 9.9 4.15 12 9.63-9.57 3.8-44.39-17.09-53.93-23.2-0.59 1.86 6.69 23.24 8.7 25.05 12.75 11.53 25.11 23.48 39.48 33.08 2 1.33 4.42 3.59 2.37 6.18-6.5 6.83-32.05-20.64-37.95-26.18 5.33 18.06 10.27 34 15.05 51.43 1.08 6.84 7.54 25.17 5 30.3-1.85-2-4.91-3.69-5.38-5.95-4.7-22.45-13-43.81-19.76-65.65-0.26-5.63-3.74-5.09-4.29 0.8-2.26 10.84-4.08 21.82-6.94 32.52-0.74 2.77-1.58 8.91-6.17 7.41-5.75-1.89-1.4-7.39-0.52-10.24 11.77-59.19 15-47.37-12.47-101.21 2 10.45 6.09 58.06-4.44 56.8-2.53 0.28-1.55-2.06-1.56-3.26-0.63-32.23 6-75-29.59-91.19-0.46 4 0.75 7.45 2.34 11 2.92 4.05 9.39 61.06-2.63 44.8a221.53 221.53 0 0 0-9.93-57.3c-9.08-23.48-43.95-28-67.51-29.17 23.88 14.84 38.54 34.17 44.38 59.17 10 34.44 39.94 55.16 61.74 81.51 6.29 28.22-53.9-48.88-57.31-53.59 2.41 49 6.2 54.46 40.09 90.19 4.67 5.56 11.93 11.07 12.25 18.79-13.84-1.21-41.23-39.66-48.84-52.21-14.15 36.54 31.54 73.74 56.83 97.12 2.31 2 8 3.21 5.53 6.57-2.62 3.64-7.93 1.21-11.06-1.4-22.3-17.33-38.11-37.89-56.3-59.81 1 14.31-5.6 28-2.9 39.93 9.61 27.12 36.16 48 55.17 69.33 7 10.38-8.26 4.74-11.06 0.72-18.1-16.66-34-35.68-45.95-57-12.53 35.74 27 75.26 48.71 102.48 2.07 2.29 3.69 5.85 1.3 8s-3.88-1.59-5.64-3.07c-21.79-18.27-35.49-42.9-48.43-67.75-12.59 30 23.93 70.4 41.57 94.64 3.73 5.17 10.48 7.82 8.86 15.35-22.86-6.13-43.72-51.12-54.19-71.62-14.56 44 25.66 81.81 48.68 114.79 1.08 1.06 3.5 3 0.66 4.92-6.24 3.64-9.22-3-12.34-6.64-15.79-19.71-30.33-41.3-41.65-63.65-10 35.27 14.87 68.45 36.11 94.67 3.15 4 7.51 6.7 7.38 12.43-14.15 0.49-43.6-45.16-45.23-58.79-6.95 53.2 8.7 63.47 32.61 105.77-3-0.29-5.41-0.59-7.15-3-9.95-9.77-18.69-20.39-22.69-34.27-0.46-1.58-2.06-2.82-3.13-4.22-0.61 0.86-1.83 1.79-1.74 2.57-0.56 32.38-3.72 40.87 18.53 68.31 2.43 4.47 15.74 18.39 12.86 22.35-2.5 2.24-4.16-1.42-5.85-2.81-11.56-9.81-16.44-21.2-25.58-34.91 4 31.23 7.79 53.81 13.1 83 1.26 6.11-3.56 8.25-5.88 1.32-3-12.17-6-24.35-8.78-36.56-3.71-15.2-5.65-23.67-5.53-41.41-4.92 18.94-7.87 31.64-14.14 48.67-0.23 0.65-1.49 0.94-2.27 1.39-3.31-7.8 4.31-33.33 7-42.34 8.06-21.68 7.66-43.84 6.61-66.59-3 10.82-35.36 57.21-46.33 55.3 1-10.26 12.42-16.63 17.73-24.71 12.77-21 35.28-38 28.69-67.08-1-4.45 0.67-9.55 1.43-18-5.54 10.09-48.54 75.28-55.54 63.3-1.74-3.1 0.78-5.51 2.44-7 18.56-16.47 31.62-37.74 45.55-58 4.2-6.1 7.61-13.4 7.26-22.17-0.52-12.8 1.08-25.68 1.83-39.66-8.41 8.19-52.3 86.61-58.15 72.08-2.58-4.35 5.59-9.68 7.31-13.75 23-35.58 60.39-65.91 54.65-112.57-11.57 15.17-45.26 69.74-60.33 70.56-1.59-2.09-0.22-6.93 2.45-9.1 13.64-12.15 24.18-26.8 34.15-42 18.84-26.8 26-24.47 29.47-60.62-7.58 8.29-45.78 52.7-53.85 47-2.71-3.3 0.94-5.74 3.46-7.87 18.42-15.63 35.93-32.37 50-51.89 4.62-6.39 3.56-16.87 5.56-28.09-9.48 10.23-16.95 18.65-24.81 26.67-8.7 8.88-19.59 14.86-30 21.34-1.91 1.18-4.71 0.2-5.8-2.43-1.4-3.83 4.6-4.63 6.63-6.88 21.58-16.92 61-43.64 56.49-74.23-6.92 5.43-41.23 38.84-48.77 30-2.2-2.84 0.14-4.31 2.22-5.33 18.45-9.05 33.31-22.95 47.37-37.3 6.38-10.93 2.9-30.2 3.73-43.53-12.16 12.15-21.4 26.58-37.05 34.16-1.35 0.65-1.65 2.53-3.38 0.08-1.5-2.12-1.59-3.06 0.24-4.88 10.93-10.89 21.71-21.93 32.59-32.87 8.58-8.64 9.47-18.54 6.13-29.84-1.85-6.79 1.47-14.71-3-21.08-9.16 11.22-12.89 26-25.12 35-4.42 3.77-8.85-1-4.79-5.16 11.3-13.71 21.35-28.47 27.7-45 3.57-9.26-4.48-17.3-7.8-25.73-1.53-5.17-7-16.56-9.71-5.35-3.55 5.57-16.07 44.06-23.23 37.43-6-3.11 0.59-9.13 2.61-12.61 5.24-10.78 11.27-21.29 14.54-32.82 2.95-10.41-7.34-13.26-13.22-17-21.32-14.13-45.14-13-70.15-10 21 14.06 40.51 10.5 57.63 32.8 0.44 0.47-0.18 2.83-0.34 2.83-16.74-1.22-27-18.77-45-20.58 9.59 27.88 29.32 46.18 50.11 64.14 1.73 1.48 4.65 3.3 2.92 5.38-8.8 9.46-40.12-30.57-44.61-38.39-8.2 35.4 33.88 59.1 50.8 84.62-2.39 0.15-5.64 1.4-7 0.29-17.42-12.49-30.19-29.06-43.2-45.8-10.94 42.75 23.89 73.36 42.86 106.33 0.63 1 3.3 2.51 0.51 3.82-11.19 1.64-29.28-32.48-34.95-41.81-4-7.36-8.4-14.46-10.68-22.73-3.8-9.77-6 4.15-7.18 8-10.11 41.48 16.34 78.47 36.47 112.11 1.32 2.22 2.9 4.82 1 5.74-2.16 0.88-6-0.39-7.12-1.92-14.26-20.26-28.54-40.55-33-65.78-0.57-3.2-4.33-5.41-5-9.67-2.08 5.88-3.88 11.87-6.3 17.6-12.14 33.25 19.76 76.84 37.58 103.72 1.13 1.51 4.35 4.38 1.45 6.39-9.05 2.87-22.93-24.41-27.38-31.44-7.26-13.06-14-26.32-18-40.82-0.23-0.82-1.64-1.31-2.5-2-16 44.57 13.26 76 37.83 106.69 1.45 1.84 4.54 3.62 2.31 6.13-2 2.25-4.78 0.09-6.56-1.27-23.49-17.71-34.72-44.62-44.28-71.53-21.6 36.95 5.53 84.67 30.83 113 2 2.18 4.6 6.31 2.06 8.94a2.45 2.45 0 0 1-2.45 0.91c-23.69-20.46-38.09-47.28-43.75-77.73-22.43 40.07 0.23 85.51 25.52 118.74 1.87 2.87 6.12 6 4.68 9.77-2.15 3.37-5.45-1.23-7.39-2.67-22.02-18.27-29.51-48.27-38.76-73.27-4.35 10.91-8.66 22.62-10.21 34.09-2.39 37.52 23.23 69.91 43.38 99.38 0.38 0.58 0 2.5-0.55 2.75-4.58 2.14-7.56-1.89-9.51-4.18-16.39-21.36-36.29-50.89-38.63-78.46-19.59 43.09 7.93 87.9 32 121.9-22.91-1.9-41.29-52.12-44-74.22-13.36 42.24 1.2 72.73 20.65 108 2.51 5.15 7.91 8.41 11.47 12.75 0.79 1 3.43 3 1 4.46-14.26 0.63-25.83-26.21-31.38-37.72-3.84-8.38-8-16.45-10.08-25.48-0.13-0.56-1.21-0.9-1.85-1.34-9.25 32.24 5.48 67.46 23.05 94.68 2.67 6.18 15.67 17.45 11.78 23.54-1.58 2.09-2.37-0.6-3.27-1.37-21.82-18.76-29.86-43.6-39.24-72.72-0.12 34.91-0.7 63.61 17.79 92.19 3.63 8.66 14.88 22.09 14.27 30.75-16.9-11.71-23.45-31.08-31.75-50.59 0.09 31.07 1.21 53.8 7.59 82.44-0.35 10.59-7.19 4.44-7.65-1.56a380.09 380.09 0 0 1-8.56-79.81c-4.84 10.52-33.03 63.52-43.75 61.13-1-0.79-0.46-5.66 1-7.43a324.08 324.08 0 0 0 23-33.26c10-17.58 23.4-35.81 18.28-57.25-1.25-5.21 4.29-9.9 1.25-15-8.2 18-19.49 34.12-32.25 49.25-4.43 3.39-15 24.7-20.25 20-2.92-2.84 0.66-5.7 2.58-8.29 5.51-7.42 11.13-14.77 16.6-22.22a381.79 381.79 0 0 0 31.79-51.15c4.85-9.22 4.23-19.88 6.35-32.78-5.23 10-60.23 71.21-66.09 62.52-4.42-4.15 13.8-16 16.63-20 17.43-16.76 37.1-32.7 48.89-54 4.46-8.23 3.32-19.5 5-31.36-12.88 13.92-45.42 62.06-64.3 54.67-1.75-3.64 2.65-4.81 4.74-6.25 23.24-13.66 37.47-36.22 55.26-55.4 11.48-12.4 9.14-27.44 15.16-44.29-15 18.71-57.41 71.22-80.27 63 1.44-3.87 4.32-5 7.64-6.61 29.11-16.65 54.88-41.76 74.81-68.34 5.39-11.8 4.75-23.15 10.34-36.81-7.91 12.32-17.23 19.13-26.81 24.77-10.6 5.07-34.07 30.44-44.92 25.27a4.67 4.67 0 0 1 2.2-6.38 431.43 431.43 0 0 0 68.08-49c7.94-6.93 8.48-19.28 11-29.54 0.75-3-2.07-0.58-2.88 0.16-10.72 9.69-54.91 46-67.63 36.52-0.91-2 0.47-3.77 2.43-4.54 16.8-6.52 33.13-14.8 46.42-26.42 12.82-11.19 31.31-19.19 32.07-40.45 0.07-1.94 1.61-3.8 1.84-5.77 0.37-3.29 4.75-7.11 0.95-9.38-1.49-0.9-6.6 3-9.24 5.5-15.73 15.1-35.62 23-54.82 32.09-4.19 2.06-10.4-1.72-7.94-6.26 26.57-8.16 50.9-24.31 73-41.64 11.15-8.47 9.22-23 14-34.41 1.72-4.06 2.7-8.44 4.28-13.49-8.34 5.88-59 52.58-63.61 37.17a8.63 8.63 0 0 1 3.22-3.88c11.41-7.13 24-12.77 34.23-21.3 23.27-17.07 38-27.73 37.94-60.72-7.06 8.74-51.22 55.27-59.54 46.89-1.66-2.48 0.63-4.55 2.52-5.58 30.21-22.29 68-51 71.76-90.88-11.89 8.93-55.58 55.91-68.33 46.2 7.3-9.11 20.41-12 28.88-20.05 10.94-8.9 19.79-20.54 31.25-28.56 14.2-9.93 14.46-24.42 17.39-39.76-18.48 22.89-38.07 41.43-63.73 55.23-2.77 1.57-6.22 3.52-8 0.1-2-3.7 2-4.77 4.64-6.77 17.17-12.92 36.91-22.14 49.6-40.66 23.32-22.1 24.32-25.81 23.66-58.53-17 23.09-34.22 45.64-60 59.26-1.64 0.86-2.74 3.33-4.33 3.58-3.07 0.48-8 1.11-9.12-0.48-2-2.82 1.86-4.2 4.22-5.75 14.56-9.57 28.3-19.46 40.37-32.48 9.17-9.88 16-21.53 25.87-30.72 3-1.78 6.14-42.6-0.82-38.63-11.41 31.07-35.3 55.13-60.23 75.65-2.36 2-4.9 1.71-7-0.49-2.55-2.68 0.82-3.54 1.92-4.38a169.13 169.13 0 0 0 14.38-12.39c20-19.81 37.84-41.76 48.31-68.22 2.31-4.65-10.42-16.59-18.06-17.48-17.57-2.06-8.82 12.69-10.81 18.89-5.28 16.48-12 32.09-21.39 46.39-3.57 6.8-6.67 16.24-17.16 15.21 0.31-1.51 0.18-3.34 1-4.46a238.46 238.46 0 0 0 16.19-24.76c7.17-14.39 16.43-30.08 16.31-46.77-17.57 3-30.36 16.27-45.7 24.07-27.29 13.42-50.29 33.32-75.8 49.34-19.13 12-33 27.88-43.71 46.81-14.39 25.67-28.39 51.73-40.39 78.45-2.75 5.82-5.89 0.58-5.68-3.18zm2.68-197.92c29.73-55.22 88.62-82.7 127.68-130 44.32-44.94 65.14-108.94 116.89-146.84 1.09-0.71 2-1.4 3.21-0.52 1.22 0.06 3.22-1.72 3.46 0.7-16.36 21.75-38.62 40.38-52.85 64.52-11.4 17.56-20.66 36.78-33.8 52.86-36 52.64-89.75 87.94-133.65 133.36-8.12 9.28-16 18.45-22.63 28.84-2.75 5.48-13.31 3.89-8.31-2.92z"/>
 <g id="Red_Japanese_Frames" data-name="Red Japanese Frames">
  <path d="m0 0v1600h976v-1600zm96 48h784c26.592 0 48 21.408 48 48v1408c0 26.592-21.408 48-48 48h-784c-26.592 0-48-21.408-48-48v-1408c0-26.592 21.408-48 48-48z" fill="#fc1c25" stroke="#000" stroke-linecap="square" stroke-width="4"/>
  <circle cx="185" cy="185" r="125" fill="#fc1c25" stroke="#000" stroke-linecap="square" stroke-width="4"/>
  <text x="185" y="255" fill="#ffffff" font-family="AR PL UKai TW" font-size="192px" letter-spacing="0px" text-align="center" text-anchor="middle" word-spacing="0px" style="line-height:1.25" xml:space="preserve"><tspan x="185" y="255"></tspan></text>
 </g>
</svg>
