<svg xmlns="http://www.w3.org/2000/svg" version="1.1" viewBox="0 0 976 1600"><metadata/><defs><style>.cls-1{fill:none}.cls-2{fill:#fff}.cls-4{fill:#ffb85a}.cls-5{fill:#000}.cls-6{fill:#fc1c25}.cls-7{fill:#000}</style><clipPath id="clip-path"><path d="M960,22V1578a6,6,0,0,1-6,6H22a6,6,0,0,1-6-6V22a6,6,0,0,1,6-6H954A6,6,0,0,1,960,22Z" class="cls-1"/></clipPath></defs><g id="Paper_Backing" data-name="Paper Backing"><path d="M960,22V1578a6,6,0,0,1-6,6H22a6,6,0,0,1-6-6V22a6,6,0,0,1,6-6H954A6,6,0,0,1,960,22Z" class="cls-2"/></g><path fill="#ffb85a" d="m226.49 1109.3c-11-1.32-15.27-10-25.91-7.12-14.09-3.79-25.54-0.29-39 4-17.46-1.49-4.16-25.65-0.86-36.43 7.2-22.49 30.8-33.29 51-40.49 29.53-8.56 66 5.56 76.61 34.49-0.65 9.53-17.87 3.55-22.87 8.94-4.82 8.26-16.43 5.3-20.27 12.86-7.56 19.65-2.55 12.25-18.7 23.75zm500.71-303.1c-6.68-0.24-9.25-8.53-15.62-9.05-9.18 0.93-19.23 2.19-27.7-0.39-14 6.36-10.85 10.15-27.33 3.44-4.81-6.48-10.74-13.48-10-21.64-1.88-8.06-17.76-10.43-19.35-19.32-6.14-7.68-32.26-2.72-27-19.12 20.4-21.67 59-29 88.16-18 19.3 8 43.36 19.63 47.63 42.25 3.29 12.42 11.21 37.48-8.79 41.83zm-295.63-485.15c-16.4-1.12-30.75-1.74-46.87-3.25-13.69-1.74-28.43 2-41-2.21-8.31-3.19-18.86 2.35-27.65-1.79-9.17 3-21 2.5-28.75-4.48 5.57-28 46.71-50.85 76.1-51.22 15.44 0.08 30.82 2.38 44.68 9.12 16.92 7.89 62.79 51.57 23.49 53.83z" class="cls-4"/><path d="m309.27 1604c-28.49 0.91-188.87-0.68-221 0-17.19-2.89 47.76-44.58 51.23-54.74 21.89-17.1 37.12-44.93 63.38-54.64 22.43 4.68 48.14-11.47 56.95-33.41-0.51-31.74 28.92-47.43 47.38-71.54 28.1-23.91-2.73-54.53-26.71-71.41-16.26-2-31.41-6.71-15-25.64 12.26-6.58 1.83-41.47 13.33-38.34 46.45 27.81 95.77 65.68 145.35 22.57 12.53-6.43 25-36.34 39.34-27.35 12.32 13.53 21.23 41.66 42.8 39 20.58-5.4 43-6.06 63.08-4.27 18-10.88 40-6.19 59.82-9.4 12 4.77-9.68 18.56-11.94 24.5-56 71.76-129.34 131.88-179.67 205.93-22 35.29-56.57 66.81-78.78 98.73zm-125.38-369.87c-12.11-6.3-62.93-76.76-40.27-82.81h-0.13c64.6 22.23 29.47 22.89 74.9 58.55 5.62 8.36-12.53 11.07-18.09 12.68-7.68 0.28-8.83 11.24-16.41 11.58zm527.87-29c-16.93-10.34-22.14-36.38-34.71-52.59-14.92-21.21-24.42-43.09-38.33-65.88-31-33 21.08-55.31-11.32-83.31-12-13-28.69-19.75-42.06-31.46-25.94-36.89-39.81-87.34-48.63-131.29 21.79-3.63 43.57 33.82 63.3 5.1 14.06-0.35 30.59-2.82 43.7-7.89 16.84-1.87 9.66 37.61 7.86 49.66 3.91 33 70.68 85.63 105.15 88.17 42.12 11.26 90.6-29.2 125.34 8.79 35.74 48.86 21.75 52.51-17.62 86.6-19.39 12.07-41.09 51.44-64.43 45.45-17.58 11.16-24.36 34.94-41.52 46.75-6.72-3.35-10.25 2.29-12.33 7.9-16.41 3.88-15.41 31.08-34.4 34zm-487.62-571.43c-23.81-17.67-41.84-41.17-60.38-54.43-13.55-14.48-36.1-25.74-40.89-44.66-10.05-5.72-19.18-6.74-25.49-22.75-20.29-45.53 43.94-70.54 30.68-112.23-20.48-49.8 13.2-75.15 42.54-110.88 11.9-5.34 14.15 18.66 25.74 19.91 7.87 3.1 7.54 7 7.37 9.1-3 50.31 6.62 99.75 8.86 149.71 1.78 39.34 9 79 11.4 117.82-1.57 11.54 11.76 39.31 0.17 48.41zm255.37-67.6c-9.06-15.84-3.06-44.72-9.82-64.67-3.73-26.27 10.91-40 23.55-57.5 26.61-33.73 48.34-72.29 77.41-104 4-4.22-1.45-7.63-1.78-11.69 8.3-20.76 22.13-40 33.44-59.85 14.45-16.41 12.36-54.74 36.11-66.53 16.55-4.26 20.29 18.11 16.35 30.69-10.55 33-30.35 59.84-45.23 90.34-26.38 43.9-30.51 95.25-63.73 134.76-3.32 5.6-11.58 1.68-13.71 8.06-14.1 34.74-29.75 71.93-52.59 100.39zm-197.6-327.64c-13.84-10.77-29.81-13.61-42.76-21.58-7 1.42-14 4.12-20.26-1.33 8.33-37.87 47.08-69.57 61.38-108 11.37-41.52 50-77.78 50.14-107.6-2.66-9.2 77.59-1.58 80.29-3.95 5.63-0.1 5.51 11.43 1.34 13.12-33.38 43-46.32 93.29-78.09 140.33-26.53 50.89-45.13 12-48 85.05a4 4 0 0 1-4.04 3.96z" class="cls-5"/><path fill="#fc1c25" d="m216.59 1493.3c-76.3 6.17-87.05-97.9-11-108.24 66.63 1.63 78.62 95.14 11 108.24zm3.9-180.29c-37.82 0.58-58.84-50.93-33-77.62 1.61-21.3 60.68-9.4 38.83-31.06-14.76-13.11-5.72-30.33-8-45.11-16.15-2.78-34.08 8-51 0.72-42.45-6.73-6.54-33.23-57.88-21.09-85.62-0.82-90.64-81.13-22.07-115.63-1.74-75.12 11.19-80.58 73.63-109.74-14.7-15.28-37-18.31-36-50.09 0.67-40.52 51.11-56.51 78.75-27.4 39.25 53.13-41 71.78-16.51 81.36 18.9 1.78 33.29 8.85 41.5 20.72 5.83 10.17 13.63 3.83 21.56-1.2 13.38-15.09 55.85 0 54.35-15.33-17.85-59.27-34.35-123.94-49.47-182-32-130.92-36.8-266.56-52.5-399.27l0.05 0.76c0.51-46.72-3.69-18.23-22-48.9-36.89-64.31 53-92.83 96.11-55.33 16.7 6.11 5.12-48.62 47.07-63.65 51.86-23.38 106.42 1.44 129 47.81 40-22.73 115.88 9.55 105.46 59.81-8.08 46.16-57.54 65.19-99 68.86-4.66 36 3.77 76 3.65 113.49 2.84 75 17 151 31.17 224.18 8.89 19.73 22.82-31.76 43.25-32.92 24.18-12.29 46.84-1.26 70.65 3.16 12.06-65 114.82-97.07 151-37.55 8.23 14.8 17.46 34.81 15.73 58.23a6.09 6.09 0 0 0 5.53 7.09c18.77 0.42 38.9 11 51.71 22.64 65.3 57.91 18.43 153.66-65.13 136.3-23.64-6.6-16.38 11.57-29.58 24.4-26.45 26.94-81.55 5.77-86.31-28.37-7.1-14.11-19.07 8.31-33.44 5-34.69 4.68-76.91-42.32-67.69-72.86a6 6 0 0 0-5.43-8.52c-26.61-9.81-47.39-53.16-32.92 8.42 15 52.64 25.77 108.21 46.86 157.66 29.22 79.3 70.08 153.62 113.52 225.87 3.51 17.72 81.61 109.32 51.29 107-73.34 3.24-145.14 13.37-217.46 20.66-34.09-2.37-50.28-69.85-77.86-87.61-12.18 2.39-1.31 16.93-3.18 25.83-1.1 42.75-60.41 66.94-88.6 32.8-34.29-27.2-11-89 36-87.55 5.14-1.42 8.08 2.89 12.45 3.56 5.82-2.42 11.73-0.07 15.79 4.1 10.06 11.79 26.87 11.47 14.85-6.43-20.11-33.93-41.54-72.31-56.05-106.52-7.64-11.64-22.33 15-30.35 19.66 17.83 30-12.75 49.89-42.71 57.08-14.46 8.58 17.87 24.09 11 44.34-0.92 18.11-20.15 36-38.8 36.08-11.11 1.62-3.7 12.44 2 16.33 1.29 1.26 2.81 2.92 2.56 5.34 0.39 6.62 7.83 7.39 7.53 15.64 3.82 21.45-5.13 46.45-32.55 55.09-6.96-4.96-10.58 0.2-17.36 1.74zm-32.58-211c13.49-5.88 45.3 22.61 49.58 6.9-1.37-42.11 76.42-23.36 26.56-64.32-31.52-21.23-78.57-6.92-95.86 26.33-11.27 28.49-13.84 37.88 19.72 31.07zm445.17-374.4c-67.32 32 18 22.82 21.87 76.88 5.37 14.71 21.52-9.67 29.18-6.11 18.55-2.71 33.28 10.74 46.9 7 15.26-58.04-46.97-91.13-97.95-77.77zm-290.98-458.62c-13.59 3-63.06 37.24-42.37 48 47.34 0.52 89.88 4 135.78 4.81 15-4.63-2.53-19.45-7.68-29.63-20.47-24.39-55.48-30.68-85.73-23.18zm-226.38 417.69c-62.4 0.25-60.85-98.92 3.88-97.72 63.08 6.43 60.29 96.11-3.88 97.72zm5.18-458.83c-67.48-2.92-67.53-100.19-0.32-103.23 36.35-1.16 74.91 51.63 38.66 84.22-10.05 11.73-22.12 20.86-38.34 19z" class="cls-6"/><path d="m559.23 1374c-34.88 39.24-74.28 74.15-104.82 117.19-27.54 37.56-55.3 75.81-90.68 106.64-5.34 6.06-10.29-1.92-4.32-6.32 46.26-39.9 75.43-94.27 114.48-140.42 52.41-57.29 106.86-110.88 155.34-172.21-18.36 2.71-37.19-0.27-53.83 6.54-9.06 4-13.39 15.32-18.61 23.23-12.51 19.65-23.42 40.79-40.15 57.14-35.47 31.56-73.89 60-97.95 102.14-14.92 24.73-21.2 53.9-42 75.75-19.24 22.08-45.4 34.32-65.77 54.64-2.51 2.6-6 7.93-9 1.72-1.88-4 3.91-5.56 5.55-8.54 8.47-15.28 24.84-21.69 37.26-32.53 9.94-8.69 18.74-18.22 27.66-27.83 9.75-10.5 15-23.26 20.48-35.9 10.294-23.522 23.704-45.552 39.87-65.5 21.75-27 48.93-47.53 74.79-69.86 12.63-10.92 20.24-26.54 29.58-40.45 7.11-11 15.82-20.85 22.8-31.88-62.81-4.49-56.85 30-99.56-35.62-1.54-2.07-3.44-1.22-5.1 0.41-18.49 16.67-34.05 40.73-61.09 43-6.67 0.43-11.26 7.07-18.4 7.92-11.45 1.37-20.75-4.28-30.19-8.78-24.69-9.41-45.89-23-68.75-36.69 2.31 13.4-0.07 27.26-8.16 37.4-17.73 22.23 7.94 15.49 13.24 19.2 25.55 20.1 59.46 46 28.4 77.94-12.31 14.49-25.61 28.17-38.9 41.8-8 8.18-4.16 19.14-7.8 28.59-8 20.79-34.57 40.12-57.15 36.29-14.67-2.48-17.5 10.42-25.23 16.77-33.63 27-59.63 63.49-96.72 86.21-2.54 2.06-4.6 8.47-8.15 3.48-1.24-1.74-0.95-3.61 0.08-5.4 35.9-29.61 66-65.62 101.63-95.7 2.69-2 4.22-5.52 5.9-7.8-72.93-45.2-17.34-148 56.86-106.18 6.9 4.38 8.29-3.77 12.65-5.26 4.51-1.53 8.14-5.54 12.29-8.26 0.84-0.56 1.52-3.36 3.32-0.85 1.14 1.58 2.54 2.86 0.53 5-3.27 3.49-5.63 8.1-9.4 10.81-16.21 11.86 6.72 19 5.18 33.34 13.06-12.85 42-39.33 45.51-56 1.66-28.84-36.18-45.62-57-56.92-1.78-1.18-2.87-1.08-4.26 0.35-4.21 4.32-15.2 2.1-11.8 14 2.15 7.34 4.49 30.79-6.39 31.13-2.55-0.13-2.45-2.38-2.57-4.48-0.54-9.75-0.26-19.71-2.32-29.15-1.31-6-9-4.06-13.64-4.65-19.07-2.4-39.59-25.92-42.6-44.55-2.09-12.91 3.62-22.47 6-33.62 2-9.47-7.82-15.37-13.06-22.14-19.57-22-28.58-48.73-33.14-77.42-0.87-3.3-3.57-1.59-5.71-0.69-54.22 18-119.63-34.2-78.06-90.15 10.81-13.26 23.11-24.27 39.76-29.36 3.07-0.94 1.7-1.64 1-3.32-20.63-49.35 16.87-96.5 66-105.91-47.41-17.88-41.06-89.41 9.2-96.22 6.43-0.15 12.68-0.51 19.26 0.71 12.65 2.34 8.13-11.29 13.25-16.43 3.22-3.21 4.44-8.39 6.79-12.55 3-2.16 4.77 2.27 4.34 4.46-2.78 8.43-5.23 17.08-9.12 25-4.71 9.64 5.26 9.81 8.44 12.79 24.42 24.35 14.85 66.81-14.64 80.5 42 2 39.26 37.84 62.41 20.17 24.08-17.79 49.06 4.1 41.69-18.46-11.13-41.46-27.82-82.37-35.14-124.56-2.93-23-18.86-32.41-34.36-44-24.78-19.55-43.52-45.69-69.36-64.21-4.6-3.68-7.66 2.85-10.58 4.91-55.29 31.95-109.29-45.82-61.92-86.97 40.49-36.32 107.12 10.75 83.47 61.66-10.3 11.64 0.37 17.29 6.82 22.32 26.79 20.49 45.23 51.93 75 67.92-5-34.1-17.24-67.14-20-101.77-0.23-2.51-4.77-4.52-7.12-6.95-29.63-27.4-59.92-53.67-88.47-82.2-36.62-27.41-65.54-62.24-30.45-102.55 21.7-28.42 16-62.16 14.28-95-1.9-41.22 55.66-54.46 50-96.26 0.07-10.25 1.92-19.75 9.19-27.6 2.44-2.63-1.59-3.83-8.45-10.23-12.78-11.92-19.77 2.82-29.15 4.76-23.22 4.79-43.25 1.09-59.22-17.06-46.61-62.27 38-132.11 88.24-71.5 15.73 19.22 14.92 46.27-0.33 67.67-1.81 3.05 1.92 4.42 3.66 6.33 9.15 10 17.5 7.1 28.88 1.94s13.14-15.63 18.91-23.5c28.13-39.67 53-81.61 72.28-126.19 10.518-19.824 22.586-38.786 36.09-56.71 1.74-2.3 6.84-5.16 7.41-5.16 3.78 4.32-0.08 8.48-2.23 11.48-31.33 40.32-43.18 91.32-72.62 132.25-12.92 19.46-25.05 39.44-37.62 59.13-0.42 0.66-0.61 2.12-0.22 2.51 26.72 13.12 37.1-39.95 47.94-56.05 0.57-1.16 1-3.51 3-2 1.68 21.64-12.17 42.95-23.29 61.09-0.39 0.58-3.25 2.35 0.07 3.14 12.14 2.91 23.65 7.1 32.48 15.58 1.7-43 21.83-83.66 35.33-124 11.58-29.28 26.61-57.2 35.94-87.43 0.81-2 0.38-7 4.72-5.81 4.63 1.22 3.8 5.86 2.92 8.88-17 52.23-41.61 100.09-58.76 152.91 15.25-6.66 20.9-20.3 28.56-31.76 31.01-44.27 45.18-101.63 80.07-141.91 7.71 1.85 3.54 4.81 0.66 8.33-27.25 49-47.66 101.78-77.86 148.86 41.9-12 95.88-2 115.38 40.81 6.09 12.93 14.42 9.7 25.11 7.26 30.93-8.38 65.61 8.93 84.31 34.16 9 13.06 7.81 42.17 0.38 56.57-16.61 30.58-50 50.58-84 51.11-14-0.84-12 7.49-11.24 14.8 5.1 32.32 3.68 63.93 8.31 96.4 23-35.64 51.15-65.94 71.79-102.74 26.69-49.94 56.79-98 79.58-149.88 14.69-32.13 41.48-9.55 37.5 18.42-4.85 22.84-17.76 41.77-27.74 62.11-17.1 30.82-33.9 61.78-46 95.05-8.84 26-17.1 52.27-36 73.69-27.15 34.24-48.72 74.2-66.88 113.76-3.25 8.66 1.43 20.51 3.18 30.79 4.8 25.35 8.24 51.06 14.66 76 18-36.76 66.06-47.16 100.55-27.73 3.17 1.49 4.3 1.77 6.34-7.8 5.92-27.74 25.23-43.22 49.06-53.75 42.76-20.39 97.45-6.79 113.56 41.12 16.6 38.23-3.68 54.85 21.87 51.71 116.38 30.31 88.83 195.12-35.74 161.4-2.12-0.67-4-2.15-4.42 1.75-6.58 44.85-61 45-91.06 21.66-17.2 38.78 29.89 58.35 51.34 82.78 8.61 9 17.92 15.71 32.71 15.79s29.62 3.25 44.72 3c32.93-4.29 34.83-16 72.31-5 28 5.81 32.37 33.84 45.88 53.94 6.32 14.64-4.27 22.77-13.1 30.92-38.45 35.33-78.26 69.16-117 104.15-20.31 18.44-40.15 37.39-60.24 56.07-1.67 1.55-1.56 2.36-0.33 4.45 7.17 12.19 13.79 24.71 20.91 36.93 5.94 10.22-1.93 15.34-8.51 16.33-18 2.71-36.56 2.19-54.62 4.86-10.66 1.57-23.07-1.88-31.79 5.66-20.75 18.37-35.48 42.46-55 62.16-10.685 10.28-20.721 21.215-30.05 32.74zm-434.46-1188.9c18.25 2.63-7.09-16.1 0.83-49.53 1.56-9.79-3.54-5.75-10.54-7.42-22.11 3.5-47.29 31.56-41.6 55.52 0.63 2.29 0.16 8.77 3.87 7.1 15.39-6.92 31.27-6.76 47.44-5.67zm14.35 14.55c-9.9-3.17-20.41-6.21-29.74-4.56-10.59 0.26-20-1.81-27.94 4.91 9.19 19.46 31 27.12 51.33 22.76 16.65-3.32 24.92-12.04 6.35-23.11zm21.76 3.23c20.24-26.06 0.7-62.15-23-71.32-2.18-0.71-2.61 0.39-2.76 2.17-2.32 26 3.59 49.44 21.07 69.41 1.81 2.09 3.04 2.66 4.69-0.26zm-86 431c70.73 10.53 31.07 32.33 59.61-26.73 10.13-11.74-7.7-11.85-14.89-14.13-19.6 1.39-35.19 8.82-43.85 29.59-1.23 2.95-6.07 10.51-0.87 11.23zm73.22 36.84c-6.68 1.89-9.49-2.55-13-4.82-17.83-11.61-37.55-18.06-58.05-22.61-1.23-0.27-4.23-1.25-3.81 1.37 4.18 36.35 46.59 49.64 74.86 26.02zm4.06-60.79c-1.75-1.34-4.33-9.46-7.22-4.13-6.64 12.2-11.66 25.39-14.05 37-0.69 15.28 12.58 13.81 18.24 20.09 2.25 2.5 3.84 1.53 5.92-0.85 9.72-11.15 8.64-43.29-2.89-52.15zm54.25 852.08c-3.59-16.87-13.8-31-23.45-45.08-3-4.4-9.35-11.64-11.11-10.85-14 8.38-15.29 29.53-13.39 44.9 2.91 19.84 27 41.18 46.14 36.8 1.01-8.61 3.54-17.67 1.81-25.77zm27.59-56.73c10.07-12-17.79-14.08-24.68-16-10.7-1.34-20.65 3.47-29.23 8.8-1.76 1.09 8.9 7.66 11.89 13.41 7.9 11.18 14.11 23 20.12 36.34 2.9-17.47 12.04-30.34 21.9-42.55zm11.33 2.5c-17.77 21.23-29.33 47.23-30.53 75.28-0.34 4.54-1.43 7.4 4.42 5.82 34.13-6.8 54.46-55.87 26.07-81.1zm402.25-520.62c10.22-75.74-4.57-31.48-44.5-38.88-24.08 28.82-42.58-1.16-63.4-5 8.41 30.47 17.35 61 29.65 90.17 5.12 12.31 7.92 26.06 18.64 35.4 13.3 11.6 29.94 18.34 42.36 31.75 37 34.63-19.37 43.47 11.72 83.82 8 11.8 13.17 25.44 20.49 37.72 12.37-16.32 34.63-57.16 31.42-77.24-5.0475-20.916-13.091-40.994-23.88-59.61-18.6-29.42-41.77-57.63-46.84-93.16 0.55-5.14 7.32-7.23 7.9 0.06 2.63 26.35 20.67 47.18 35.27 68.06 17.92 26.36 36.39 59.47 37.73 91.61-2.84 19.74-11.81 38.17-20.8 56.28-5.26 10.59-20.25 19.26-9.25 34.37 13.44 16.33 21.87 36.2 33 54.15 3.1 5.43 4.85 5.93 10.67 1.19 14.55-11.87 15.82-28.28 16.83-44.22 1.08-16.86-8.39-31.86-13-47.73-6.52-14.18 4.89-36.91 7.42-22.52-2.58 35.43 21 42.34 13.58 86 56.54-128.43-9.33-112.6 16.61-160.83 3.44-9.59 14.76-9.65 9.68-1.21-22.74 36.74 27.24 44.77 0.58 116.09-2.82 11.24-6.75 22.2-11 35.84 34.86-40.45 59.1-84.73 97-122.13 4.38-4.19 5.81-10.7 0.09-16-10.63-9.86-23-16.36-37.63-16.72-2.29-0.06-7.1-1.4-8.57 2.83-0.3952 1.5516-0.0234 3.1986 1 4.43 8 6.4 14.62 14.79 25.26 17.52 2.18 0.9 4.63 5.09 2 7.06-4.05-1.39-8.26 1.61-12.56-1.39-9.47-7.82-29.89-14.53-26.73-29.34 6.7-28.25 73.57-2.13 70.65 22.5 0.2 11.12-6.26 18.44-14.22 25-14.57 12.09-26.06 27.15-36.57 42.53-3.91 5.72-11.68 10.36-11.13 19.9 29.12-21.24 53-47 80-70.6 5.69-5.18 15.73-10.41 13.13-17.73-5.07-14.26-13-27.82-21.53-40.46-9.47-14-26.46-12.38-40.77-15.38-11.41-2.39-21.32 5.8-32.05 7.35-32.44 5.18-71.18 3.62-97.56-18.72-19.4-20.83-60.33-41.84-60.69-72.76zm-18.88 126.37c-10.85-10.1-21-23.55-36-27.18 8.07 22.7 21.18 43.16 31.69 66.15 1.43-3.8 3.57-6.86 3.54-9.91-0.11-9.69 10.76-19.04 0.77-29.06zm-84.53-240.38c0.66-2.84 0.39-4.92-1.88-5.6-9.84-3-16.81-10.13-24.76-16.25 0.44 15.43 6 30.66 10.26 45.37 4.49 12.66 0.55 28.61 16.59 37.12 13 5.94 32.26 20 46.26 12.58-0.0305-0.85857-0.34732-1.6823-0.9-2.34-29.22-17.12-51.02-35.28-45.57-70.88zm16.9 33c12 22.33 30.66 35.2 56.9 35.07 30-2.41 43.65-31.22 23.76-58.6-12.87-21.9-55.11-40.15-76.51-22.79-16.55 15.46-17.22 22.12-4.15 46.35zm183.72 36.38c3.58-36.89-81.57-63-90.35-8.52-0.83 46.22 87.34 62.12 90.35 8.55zm-237.68-138.52c1.2 24.08 13.94 41.42 33 54.84 2.21 1.56 4.19 1.6 7.18-0.68 5.92-4.53 13.27-7.16 19.46-11.41 2.76-1.89 10.14-0.18 7.94-6.11-4.62-12.49-3.26-26.3-9.34-38.42-0.93-1.84-2.23-5.87 1.45-7.32 4-1.59 3.8 2.45 5 4.48 6.23 10.93 6.75 23.43 9.06 35.32 1.54 7.89 5.77 8.87 12 8.59 2-0.09 1.46 0 2.24-8 1.51-15.47 2.47-30.78-1.81-46-0.43-1.53 2-4.87 3.86-5.76 9.28-0.2 9.49 48.64 6.13 56.22-2.53 9.47 11.09 10.1 17 12.3 4.6318-17.573 6.9448-35.677 6.88-53.85 0-3.81-2.72-10 3.5-10.82 5.11-0.65 2.48 4.29 3.12 7.28 3.4387 15.733 2.4945 32.107-2.73 47.34-4.31 12.34-0.08 18.57 8.37 25.24 3.87 3 5.09 0.41 5.38-2.29 0.67-6.31 3.25-12.26 5-18.06 5.58-18.61 7-37.72 9.11-56.89 0.3-2.78-0.36-6.75 3.2-6.61 12.22-1.54-1.58 66.69-5.09 74.27-6.68 15.33-10.64 26.08 2.78 40.27 11.037-23.223 20.173-47.301 27.32-72 4.0768-14.364 6.677-29.108 7.76-44-0.0247-2.3602 1.7192-4.3662 4.06-4.67 2.81-0.42 1.59 2.5 2.2 4 4 42.35-16.23 80.44-31.58 119.33 22.12-14.21 34.08-38.11 45-60.57 5.42-11.92 10.05-24.26 14.45-36.74 0.56-1.61 2.25-2.81 3.41-4.2 7 3.82 2.94 10.4 0.7 15.66-8.52 30.27-20.57 55.63-43 80.32 8.89-4.44 15.63 2.34 19.71-2.63 7.84-9.54 15.4-19.28 22.37-29.43 7.3156-10.545 13.814-21.634 19.44-33.17 1.08-2.24 1.69-7.63 6.08-6.93 8.68 6.49-17.39 43.71-22.33 51.51-4.36 6.29-8.9 12.47-13.38 18.69-1 1.37-5.07 3.08-1.67 4.41 3.2 1.24 5 8 10.62 2.83 16.59-15.56 30.58-33.47 44.79-51.13 2.29-4.46 8.71-1.3 5.43 3.07-10.51 17-22.45 34.59-37.19 47.75-8.23 6.65-6.28 9.77-1 15.28 1 1 0.74 1.1 7.37-2.2 19.91-9.92 36.54-23.89 51-40.69 0.84-1 1-4.59 3.26-2.56 0.94 0.85 3.2 3 1.13 6.31-11.87 19-28.34 32.51-47.69 43.14-3.63 2-7.6 3-6.37 10.62 2.35 14.39 13.61 9.31 20.29 10.49 29.6 5 63.89-6.11 79-33.44 28.54-50.47-20.53-118.52-75.74-118-1.49-0.13-3 2.39-5 0-1.71-2.12-1.65-4.06-0.6-6.39 7.59-50.26-32.3-103-89.33-87.69-33.13 6.06-67.54 32.22-65.62 69.11 0 0.88-0.28 2.51-0.64 2.57-1.56 0.25-3.77 0.73-4.71-0.08-36.22-27.5-101.96-11.89-102.23 37.5zm-33.45-203.15c2.91 20.07 7.23 40.52 5.85 61.25 19.81-35.82 42.2-70 51.93-110.24 2.77-14.64 8.67-28.73 13.68-42.89 1.56-8.25 16.34-9.68 9.73-2-7.4 15.67-8.52 33.18-15.22 50.64 20.42-17.4 26.91-42.87 35.72-66.91 8.53-23.8 19.5-46.8 30.59-69.58 7.2-20.51 73.3-109.27 33.95-115.56-11.41 4.49-15 17.75-18.29 28.33-9.61 35.14-35.06 62.32-48.72 94.89 0.66-0.3 1.65-0.42 2-0.93 7-11.71 17.78-20.2 25.22-32 11.1-17.66 17.67-37.77 30.7-54.23 1.56-3.83 4.33-3.87 4.17 1-2.22 15.83-13.48 27.63-18.91 42.18-18.86 39.29-55.5 66.47-78.37 103.56-14.28 22.64-30.69 43.88-46.69 65.26-10.65 14.11-20.37 26.27-17.34 47.23zm-292-215.48c12 29.53 26.3 17.58 51.73 21 13.36 1.57 26.87 2 40.33 2.4 2.91 0.09 9.53 1.5 8.61-1.55-3.68-12.31-9.3-24-14-36-1.68-4.26-6-8.74-1.89-13.26 2.53-2.8 4 1.37 5.1 2.93 7.24 10.32 11.7 21.9 15.78 33.79 1.86 5.84 0.57 15.7 9.64 15.17 5.36-0.23 18 8.42 15.81-7.56-2.1-15.27-5.3-30.39-10.93-44.8-1.42-3.64 1.21-5.65 2.21-8.34 1.59 0.93 4.23 1.55 4.61 2.83 2.56 8.58 5.77 17 8.31 25.6 2.79 9.45 4.78 19.08 4.2 29.31-0.08 1.48-0.53 5.69 1.16 4.49 4.56-3.24 14.11 5.61 14.36-5.08 0.20447-13.826-0.43672-27.652-1.92-41.4 0.07-11.26-8.25-32.61-4.69-41.63 2.14-1.05 6-0.39 6.64 2.93 2.7 13.76 5.84 27.46 7.22 41.38s0.36 28.17 1.33 42.21c0.47 6.75 7.31 1.72 10.72 3.9 1.63 1.05 2.79 0 3-2.39 2-27.66 7-55.15 4-83-0.22-5.24-1.34-11.05 2.68-15.23 7.63 5.12 7 14.91 6.92 22.44 1.22 24.12 0.86 48.21-5.09 71.86-0.35 1.41-4.73 4.84-0.24 5.71 5.69 1.1 11.7 0.58 17.56 0.75-0.65-11.65 6.87-20.9 9.36-31.69 3.25-14.1 7.49-28 11.5-41.87 1.42-7 7.22-1.21 6.65 2.43-5.73 7.13-2.72 15.94-4.93 23.78-3.91 13.86-6.09 28.16-13.19 41-1.2 2.18-1.46 4.88-2.16 7.34 5.49-4.92 13.26 9.35 19.73-4.46 8.2-17.5 16.38-35.09 24.61-52.59 1.24-2.65 1.16-6.67 5.08-4.57s1.13 9.81-0.41 13.13c-3.42 8.22-5.81 16.88-9.29 25.08-3.47 8.84-10.27 15.77-12.22 25.46 8.63-0.83 18.41 3 25.12-5.11 8.26-13.15 15.94-26.82 24.62-39.72 1.47-2.25 3.43-6.77 7.42-4.72 8.15 3.08-21.43 43.08-24.24 49.36 2.56-1.15 4 3.17 7.64 0.55 12.71-9.16 23.66-20.2 35.22-30.61 1.5-1.35 4.78-0.74 7.24-1 0 1.75 0.72 4.25-0.15 5.11-8.49 8.36-16.71 17.15-26.1 24.39-8.6 6.64-16.22 12.33-11.91 25.05 0.88 2.62 0.28 5.79 3.72 4.66 14.19-4.67 29.36-4.93 43.19-11.89 45.59-19.79 64.66-84.91 7.77-108-19.58-8.16-39-12.17-58.56-1.5-5.5 3-10.21 6.78-13.35-0.61-15-35.18-43.43-55.74-84.73-53.94-38.94-1.6-73.51 26.87-71.77 65 3.06 8.32-2.18 20.83-10.82 10.6-14.46-13.46-33-17.5-51.07-20.92-32.42-7.23-66.48 31.76-47.11 61.8zm-51.9 110.63c6.58-33.24 30.49-56.24 48.18-82.81 2.44-3.65 6.63-6.95 4.59-11.4-1.85-4-5.78-7.1-8.79-10.59-32.9 45.71-55.74 41.12-43.98 104.8zm95.13 230.55c-2.6-14.76-1.78-31.19-6.61-45.19-14.37-11.91-26-26.29-37.35-40.93-21.05-29.11-27.93-65.43-39.79-98.72-1.17-2.86-5.62-7.18-0.17-8.8 5.84-2 6.27 4.59 7.87 7.78 6.8 13.53 12.76 27.44 15.07 43.12 2.44-10.64 4.69-20.6 7-30.55 1.09-4.68 4.81-10.84 3.06-13.7-7.45-12.15-9.26-26.88-18.29-38.19-2.5-4.61 1.14-9.34 5.7-4.61 8.7 7.47 11.45 18.34 16.68 29.36 3.24-16.4 3.89-31.26-2.6-45.84-2-5.67 1.55-10.82 5.8-4 19.57 30.83-1.56 67-5.9 99.06-7 41.21 17.95 67.42 44.75 97.39-7.52-45.31-9.88-82.17-13.18-126.3-2.17-43.06-10.46-85.68-7.22-128.95 0.42-5-6.64-4.44-9.29-7.64-9.42 10.65-15.3 24.16-24.42 35.16-21.87 25.41-28.64 57.56-39.07 88.26-8.33 26.58-41 45.94-25.95 76.93 7.58 16.18 16.15 21 33.8 16.91 14.66 0.73-3.34 10.36-7.21 13.16 31.43 30.35 65.55 58.74 96.57 89.44 0.26-1.05 0.86-2.13 0.75-3.14zm-43.56 262.45c0.42 3-3.7 15.76 2.45 13.21 28.93-10.36 36.51-54.59 8.37-69.92-6.0541 18.353-9.6914 37.417-10.82 56.71zm-44.33-46.34c16.51 5.6 26.27 18.41 35.51 31.87 4.22-15.52 5.53-31.95 12.16-47-17.56-5.15-33.59-3.88-46.27 11.14-1 1.13-3.68 3.22-1.4 3.99zm32.34 62.21c0.81 0 2.43 1.25 2.5-1.7 0.46-19.9-11.72-32.68-24.78-45-4.09-3.86-9-9.56-14.2-7.69-5 1.79-4 9-3.76 13-0.03 24.41 18.12 42.52 40.2 41.39zm-81.54 183.27c7.42-10.55 45.12 19.26 53.23 25.52 4.47 3.86 7-2.37 10.33-4.22 0.74-0.41 1.43-0.63 1.19-1.38-14.42-16.72-30.86-31.79-47.51-46.31-1.83-1.56-5.61-3.29-3.37-5.77 2.08-2.31 6.37-2.07 9.1 0.27 14.93 12.88 32.06 23.8 42.93 40.48 4.94 9.21 12.31 3.89 19.38 2 0.23169-0.6877 0.23169-1.4323 0-2.12-11.57-16.88-23.68-33.35-38.07-48-2.61-2.65-8.64-4.88-5.26-8.6 9-6 28.52 22.75 34.88 29 6.277 7.7903 11.906 16.081 16.83 24.79 4.23 7.54 14.82 0.29 21.34 5-0.26-6.63-3.32-10.43-7.67-14.88-11.47-20.88-24.71-40.41-42.61-56.36-3-2.66-0.26-3.57 0.43-5.16 1-2.24 2.21-1.52 3.91-0.48 21.4 14.59 40.32 41.65 51.29 64.55 3.9 10.35 7.18 17.49 18.34 18.78-5.31-23.46-13.14-47.26-24.07-68.82-5.23-10.4-11.48-20.22-19.85-28.93-1.9-2-1.84-3.15-0.54-5 4.56-6.85 16.14 9.72 19.66 13 18.34 24.7 25.41 53 34.44 83.3 1-8.56 7.48-13.23 5-21.08-6.25-25.19-5.57-51.89-17.61-75.62-1.52-3.17-5.94-8.1-0.52-12.1 2.82-2 4.09 1.64 5 3.15 17.16 25.41 17.62 55.06 23 84 4-2.64 10.34-3.1 11.71-8.28 5-24.14-0.83-48.09-4.71-72.08-0.37-3.59-5-9.17 0.07-11.24 3.5-1.43 5.68 3.6 7.11 7.61 7.65 21.38 9 43.55 8.06 65.87-0.1 2.45-3.34 8 3 7.72 5 0.19 9.07-2.6 8.92-8 0.37-9.72 2.33-19.41 4-29 2.35-13.72 3.09-27.35 0.2-41.11-0.3-1.41 2.14-4 3.9-5.09 11.53-2.53 5.28 74.19-2 81.94-0.029 0.082-0.0624 0.1618-0.1 0.24 2.78-2.66 6-1.21 8.19-1.5 4.53-0.65 9.6 5.84 13.86-1.73 5.2937-9.5188 9.0564-19.811 11.15-30.5 1.74-8.6 7.46-17.76 3.33-26.35-8.48-17.61-12.89-36.7-21-54.3-2.8-6-1.26-16.27-7.63-17.76-15.855-3.8327-32.576-1.4194-46.7 6.74-8.41 4.75-17.08 13.92-26.81 0-21.16-26.9-61-21.43-89.73-11.14-69.54 31.39-30.43 82.72-48.21 100.11-30.42 10.68-57.53 54-37.59 82 15.51 19.08 75.24 37.85 88.28 9.91-14.43-9.23-28.79-18.58-43.35-27.6-2.81-1.61-9.57-0.5-7.15-5.47zm126.67 77.1c0.58-1.55-0.43-2.36-1.87-1.8-6.8234 2.7939-14.175 4.0635-21.54 3.72-3.84-0.21-3.07 1.37-1.72 3.21 8.6 11.74 15.61 24.92 29.34 32.41-4.3-12.49-8.47-24.54-4.21-37.54zm18.64-32.32c-0.35-7.34-2.71-13.53-9.48-17.2-23.81-16.39-79-12.89-79.66 21.46 2.23 31.14 89.94 25.82 89.14-4.26zm24.35 81.92c50.49-3.49 44.31-74.67-3.46-71.92-44.87 5.51-43 70.35 3.46 71.92zm28.09-80.41c15.21-4 28.29-10.19 39.7-21 8-7.56 6.06-15 1.94-23-7.61-14.69-22-14.07-32.36-15.39-65.92-0.4-72.18 66.57-9.28 59.39zm61.61-79.62c-3.55-6.33-8.7-27.2-13.35-28.55-2.18 10.78-3.11 21.61-8.23 31.75-1.88 3.88-7.1 7.92-4.09 12.65 1.43 2.26 7.81 4.32 9.2 3.17 6.59-5.46 13.44-11.11 16.47-19.02zm-167.62 170.85c2.59 3.63 3.83 7.33 8.55 1.19 2.65-3.45 5.75-7.85 11.91-8.32 5.12-0.38 10-3.48 15.79-5.66-12.07-7.7-19.69-18.36-28.25-29.28-4.58-5.3-3.8-14.88-12.51-16.46-12.14-1.59-22.83-6.08-33.3-12.19 1.52 27.39 22.56 49.2 37.81 70.72zm43.28 78.51c-7.179-20.034-18.145-38.499-32.3-54.39-9.09-17-11.62 18.35-9.84 24.35 1 15.93 21.65 34.86 36.25 34.83 2.99-0.34 8.27 1.74 5.89-4.79zm35.05-62.45c2.28-1.94 0.14-3-1.05-4.35-15.64-19.26-51.56-21.54-65.59-0.52-1.07 2.76 2.15 4.13 4 5.65 14.12 11.35 23.31 26.2 31.31 43.45 4.46-19.53 17.33-32.28 31.33-44.23zm9 17.17c-1.31-9.79-4-13.5-10.53-4.16-10.15 9.29-16.07 21.06-22.18 33.31-3.87 7.73-2.5 12.62 1.17 17.59 3.21 4.33 6-1.25 9.16-2.4 21.58-8.15 23.06-29.43 22.35-44.34zm185.4-18.13c-7-11.49-16.85-21.09-22.68-33.66 5.63 31.34-16.66 67-49.43 69.58-34.57 2.31-55.06-12.76-64.53-49.19-11.86-42.15 49.35-89.78 93.15-54-15.87-31.13-34.91-60.84-49.32-92.63-6.28-14-10.12-17.35-20.12-3.81-2.48 3.36-3.55 4.28-1.6 9 16.83 31.16-24.7 56.62-53.55 57.36 14.25 6.3 20.33 29.89 18.07 42.23-3.52 24.87-21.34 33.39-43.14 40.79 11.91 5.46 10.72 21.26 24.58 27.31 20.41 8.9 39.45 21.31 60.14 30.14 14.5 6.2 28.43 15.42 44.94 3.29 5.72-4.2 15.58-2.83 21.19-7.11 14.39-11 27.48-23.68 41-35.76 0.95-0.79 2.58-1.41 1.27-3.54zm-111.87 14.16c14 10.22 29.07 15.17 46.45 9.42-11.34-13-12.57-29.49-16.49-46.17-6.68 10.18-13.25 18.86-22.5 25.41-5.65 4-8.86 10.34-7.46 11.34zm10.42-26c12.648-12.878 21.028-29.336 24-47.14 1.59-9.08 3.67-10.48 1.75-10.61-29.5-3.18-56.16 22.64-52.91 52.7 7.34 29.55 8.16 24.54 27.16 5.01zm44 30.64c0.53303 0.5567 1.3158 0.7987 2.07 0.64 15.18-9.17 22.58-23 23.84-38.74-0.58-18.2-6.67-32.41-20.52-41.78-14.71-14.88-18.3 1-19 15.24-1.61 21.87 1.34 45.85 13.59 64.6zm254.49 4.44c24.1-1.92 48.25-3.31 72.36-5.16 2.43-0.19 9.28 1.65 5.5-4.66-23.63-38.06-47.6-75.93-69.55-115-45.252-73.424-82.893-151.27-112.34-232.34-16.42-43.16-24.3-89.38-37.64-133.63-16.59-76.87-31.48-154.3-42.38-232.19-6.48-68.64-10.9-137.91-11.88-206.79 0.15-1.34 3.31-6.9-2.94-7.22-8.73-0.45-17.43-1.7-26.16-1.86-68.18-1.33-136.58-5.84-204.83-6.74-4 1.15-13-4.25-13.68 0.94 10.58 123.46 21.42 247.78 42.1 370.22 16.62 75.77 37.84 150.87 58.92 225.43 34.09 102 77.21 201.59 136.39 291.91 13.64 19.66 29.07 38.39 40.72 59 8.87 15.7 19.74 14.16 32.48 12.78 44.33-4.78 88.48-11.08 132.93-14.69zm-8.03-97.4c-2.23-1.95-3.54 0-4.7 0.94-30.49 27-81.47 49.79-115.54 16.45-31.17-36.2-21.73-89.53-52.85-126.54-20.91-27.39 13.15-44.31-1.56-62.66 49.29-29.58 34-106.14-23.14-74 4.2306-16.117 11.129-31.411 20.41-45.25 1.35-2 1.46-5.84 0.5-8.15-0.9-2.16-4.18-1-6.59-1.18-12-0.64-18.81 9-28 13.74-11.57 5.92-21.1 16.17-35.68 15.06-21-3-0.05 29.51 34.42 4 1.5665-0.73909 3.2008-1.3251 4.88-1.75 0.08 1.91 1 4.37 0.12 5.65-10.56 15.66-13 34.46-20.06 51.47-2.21 5.35-3 12.75 2.57 16.19 5.35 3.35 10.86-1.9 12.47-6.3 6.1-16.42 25.67-40.85 45-34.57 12.07 6.61 8.57 27.85 1 36.34-8.29 9.88-16.69 21.2-32.93 15.12-8.22-2.89-16.52 10.46-7 14.91 3.64 1.56 7.93 2.61 10.58 5.25 3.39 3.38 16.05-1 8.56 12.63-23.43 38.68 21.73 64.11 26.85 103 7.84 57.34 36.93 114.82 104.48 94.1 23.4-6.53 43.64-17.67 56.09-39.72 0.9-1.53 2.21-2.9 0.12-4.72zm-290 326.69c15.56-13.7 28.34-29.92 40.82-46.41 23.13-30.57 53.54-54.87 75-86.94 2.4-3.57 7.26-6.76 3.16-10.8-4.83-4.73-5.07 2.46-6.89 4.32-42.53 39.46-76.31 86.84-115.51 129.18-43.65 34.48-59.47 55.72-80.24 107.21-2.64 3.85-3 12.07 3.71 14.58 19.56-49.07 35.5-80.1 79.95-111.14zm10.63-628.29c-6.06 0.25-12-1.83-14.57-7-14-27 18.58-47.55 39.7-57.43 6.5-2.86 4.86-8.94 3.41-12.68-8.41-21.69-15.68-43.94-29-63.44-1.7-2.48-2.75-6.91 0.49-9.49 3.87-5.06 14.39 12.49 15.4 15.54 6.16 18.74 16.06-3.8 47.49-1.61 6.85 1.48-0.07 9.59-4.11 10.06-9.2 2.78-18.5 5.21-27.69 8-11.24 1.09 13 33 10.52 44.29 0.14 4.3 6.64 1.66 9.82 0.51 17.87-5.34 39.64 3.53 38.37 22.73-3 16.86-14 30.82-24.18 45.17-5.59 6.77-16.77 29.49-27.2 24.31-5.31-15.36 44.46-60.93 35.45-74.78-4.1-4.67-10.56-3.85-16.82-3.78-19.6 0.25-14.55 16.62-17.59 26.75-5.13 17.14-21.82 32.17-39.49 32.85zm29-46c-0.68-1.14 1.32-5.46-3-2.93-10.463 6.1711-19.922 13.904-28.05 22.93-2 2.24-3.15 5.8-0.72 8.92 10.46 10.69 33.31-16.27 31.8-28.85zm-104.54 670.81c22.05-37.86 55.69-65 88.41-92.86 27.73-30.53 54.84-64.38 72.62-101.63-0.85-2.7 1-5.67-2.29-6.2-2.48-0.41-3.33 1.91-4.54 3.76-7.78 11.94-15.35 24-23.75 35.55-21.09 28.52-43.08 56.79-70.5 79.59-1.17 1-3.23 0.85-4.88 1.23 14.83-32.94 23.12-69.79-5.35-98.38-5.66-9.4-10.47-0.4-5.76 6.43 28.36 35.57 10.85 81.47-13 113.72-10.95 16.09-25.16 30-35.68 46.34-11 17-23.29 31.78-40.53 42.7-34.09 21.69-67.69 44.15-98.4 70.49-2.37 1.9-3.23 4.58-1.71 7.24 1.79 3.11 4.46 0.76 6-0.19 6.25-3.82 13.09-7.25 18.14-12.38 37.29-36.39 92.29-50.38 121.22-95.41zm61.15-788.93c-11.66 17.18-27.06 5.84-28.42-10.27-19-71.12 114.94-94.48 103.77-25.84-5.39 41.9-48.88 62.12-36.41 38.6 6.51-9.51 14.53-18.38 19-28.76 6.56-13.82 0.62-38.22-19.23-33.37-15.63-3.17-11.47 11.12-14.9 17.87-7.24 14.34-13.74 28.72-23.81 41.77zm16.81-54.28c0.26794-0.93241 0.3927-1.9001 0.37-2.87-22.27 3.6-40.26 27.43-28.56 49.12 12.93-8.43 20.58-32.49 28.19-46.25zm-44.48-115.79c-14.05 23.64-49.7 22-40.68-11.72 5.89-16.91 10.84-34.1 25.09-46.67 1.91-1.68 1.33-7.5 0.31-10.94-2.2-7.46-2.26-15.05-1.42-22.42 1.14-10-4.91-8.18-9.92-6.55-10.53 3.41-25.83-2.9-30.29-13.16-3.7-6.69 5.2-9.21 8.85-6 7.21 5.36 15.15 4 22.87 3.36 4.57-0.38 8.26-2.58 8.45-8.76 0.3-9.46 2-18.86 2.59-28.32 1.84-11.95-9.89-2.24-12.47-9.74-0.62883-2.9906-0.2782-6.1042 1-8.88 1.8-3.75 4.9-0.53 7.51-0.52 9.07 0 18.1 0.52 19 11.8 0.69 8.34 2.24 17-1.33 25.42-1 2.38-0.15 5.55-0.15 7.93 19.19-5.57 37.68-18.37 58.26-13.2 5.12 1.59 10.68 2.69 9.19 8.73s-9 5.14-13.4 5.23c-15.56 0.66-29.7 6.7-43.87 11.93-13.59 2.62-12.4 12.74-10.64 22 1.27 6.75-2.09 19.83 2.41 19.14 12.54-1.93 26.2-6.83 27.79-23.66 0.24-2.56 0.68-5.58 2.2-7.44 2.11-2.57 3.07-8 7.93-6.25s4.57 5.64 2.57 10.23c-18.14 35.36 61.86 7.34 37.15 74.87-2.5 18.11-61.64 70.24-30.33 77.5 13.49 1.53 12.06 12.11-0.65 12.13-22.87 1.26-30.87-14.11-20.06-36.66 8.33-20 54.12-62.35 35.62-83.41-8-8.33-19.24-9.55-29.5-9.1-6.08 0.27-6.11 9.72-8.74 15-4 8.07-7.22 16.5-10.89 24.72s6 12.34 6.23 19.43c0.12 3.22 5.52 6.74 0.67 9.47-11.27 5.33-11.04-19.77-21.35-5.49zm5.58-37.7c2.61-8 8.39-13.85 6.7-19.92-12.75 1.81-7.66 10.36-6.7 19.92zm-10.55 8.38c-1.63-6.25-3.13-18.35-8.8-7.86-6.61 11-12 22.66-12.8 35.86 0.59 13.89 25.49-17.11 21.6-28z" class="cls-7"/><path fill="#fc1c25" stroke="#000" stroke-linecap="square" stroke-width="4" d="m0 4e-5v1600h976v-1600zm96 48h784c26.592 0 48 21.408 48 48v1408c0 26.592-21.408 48-48 48h-784c-26.592 0-48-21.408-48-48v-1408c0-26.592 21.408-48 48-48z"/></svg>